<svg width="110" height="110" viewBox="0 0 110 110" fill="none" xmlns="http://www.w3.org/2000/svg">
<path d="M55 109.141C84.901 109.141 109.141 84.901 109.141 55C109.141 25.099 84.901 0.859375 55 0.859375C25.099 0.859375 0.859375 25.099 0.859375 55C0.859375 84.901 25.099 109.141 55 109.141Z" fill="#34485C" stroke="#34485C" stroke-linecap="round" stroke-linejoin="round"/>
<path d="M55 82.5C70.1878 82.5 82.5 70.1878 82.5 55C82.5 39.8122 70.1878 27.5 55 27.5C39.8122 27.5 27.5 39.8122 27.5 55C27.5 70.1878 39.8122 82.5 55 82.5Z" fill="#576D7E"/>
<path d="M65.313 30.9375C64.3608 30.9375 63.5943 31.7041 63.5943 32.6562C63.5943 33.6084 64.3608 34.375 65.313 34.375H67.0318C67.984 34.375 68.7505 35.1416 68.7505 36.0938C68.7505 37.0459 67.984 37.8125 67.0318 37.8125H63.5943C62.6421 37.8125 61.8755 38.5791 61.8755 39.5312C61.8755 40.4834 62.6421 41.25 63.5943 41.25H78.7777C76.285 36.925 72.662 33.3601 68.2974 30.9375H65.313ZM33.5665 37.8125C32.6963 38.8972 31.9097 40.0463 31.2133 41.25H32.6568C33.609 41.25 34.3755 42.0166 34.3755 42.9688C34.3755 43.9209 33.609 44.6875 32.6568 44.6875H29.5281C29.0805 45.8076 28.7071 46.9559 28.4103 48.125H49.8443C50.7965 48.125 51.563 47.3584 51.563 46.4062C51.563 45.4541 50.7965 44.6875 49.8443 44.6875H44.688C43.7358 44.6875 42.9693 43.9209 42.9693 42.9688C42.9693 42.0166 43.7358 41.25 44.688 41.25H48.1255C49.0777 41.25 49.8443 40.4834 49.8443 39.5312C49.8443 38.5791 49.0777 37.8125 48.1255 37.8125H33.5665V37.8125ZM27.5878 53.2812C27.5408 53.8531 27.5117 54.4263 27.5005 55C27.5038 55.5734 27.5251 56.1466 27.5643 56.7188H30.938H43.1639C44.1161 56.7188 44.8827 57.4853 44.8827 58.4375C44.8827 59.3897 44.1161 60.1562 43.1639 60.1562H41.3143C40.3621 60.1562 39.5955 60.9228 39.5955 61.875C39.5955 62.8272 40.3621 63.5938 41.3143 63.5938H81.1006C81.4743 62.4685 81.7748 61.3203 82.0003 60.1562H75.6356C74.6834 60.1562 73.9168 59.3897 73.9168 58.4375C73.9168 57.4853 74.6834 56.7188 75.6356 56.7188H82.4132C82.4602 56.1469 82.4894 55.5737 82.5005 55C82.4972 54.4266 82.4759 53.8534 82.4368 53.2812H27.5878ZM28.0074 60.1562C28.717 63.851 30.1772 67.3609 32.2976 70.4688H34.6072C35.5594 70.4688 36.3259 69.7022 36.3259 68.75C36.3259 67.7978 35.5594 67.0312 34.6072 67.0312H33.2845C32.3323 67.0312 31.5658 66.2647 31.5658 65.3125C31.5658 64.3603 32.3323 63.5938 33.2845 63.5938H34.4091C35.3613 63.5938 36.1279 62.8272 36.1279 61.875C36.1279 60.9228 35.3613 60.1562 34.4091 60.1562H28.0074ZM52.8353 67.0312C51.8831 67.0312 51.1166 67.7978 51.1166 68.75C51.1166 69.7022 51.8831 70.4688 52.8353 70.4688H54.5541C55.5063 70.4688 56.2728 71.2353 56.2728 72.1875C56.2728 73.1397 55.5063 73.9062 54.5541 73.9062H51.1166C50.1644 73.9062 49.3978 74.6728 49.3978 75.625C49.3978 76.5772 50.1644 77.3438 51.1166 77.3438H63.6111C64.5633 77.3438 65.3298 76.5772 65.3298 75.625C65.3298 74.6728 64.5633 73.9062 63.6111 73.9062H62.2884C61.3363 73.9062 60.5697 73.1397 60.5697 72.1875C60.5697 71.2353 61.3363 70.4688 62.2884 70.4688H65.3298C66.282 70.4688 67.0486 69.7022 67.0486 68.75C67.0486 67.7978 66.282 67.0312 65.3298 67.0312H52.8353ZM70.4693 67.0312C70.0134 67.0312 69.5763 67.2124 69.2539 67.5347C68.9316 67.857 68.7505 68.2942 68.7505 68.75C68.7505 69.2058 68.9316 69.643 69.2539 69.9653C69.5763 70.2876 70.0134 70.4688 70.4693 70.4688C70.9251 70.4688 71.3623 70.2876 71.6846 69.9653C72.0069 69.643 72.188 69.2058 72.188 68.75C72.188 68.2942 72.0069 67.857 71.6846 67.5347C71.3623 67.2124 70.9251 67.0312 70.4693 67.0312ZM46.4068 73.9062C45.9509 73.9062 45.5138 74.0874 45.1914 74.4097C44.8691 74.732 44.688 75.1692 44.688 75.625C44.688 76.0808 44.8691 76.518 45.1914 76.8403C45.5138 77.1626 45.9509 77.3438 46.4068 77.3438C46.8626 77.3438 47.2998 77.1626 47.6221 76.8403C47.9444 76.518 48.1255 76.0808 48.1255 75.625C48.1255 75.1692 47.9444 74.732 47.6221 74.4097C47.2998 74.0874 46.8626 73.9062 46.4068 73.9062Z" fill="#4BBFEB"/>
<path d="M68.9603 16.9856L67.8946 12.8951L63.804 11.8294L67.8946 10.7636L68.9603 6.67316L70.026 10.7637L74.1166 11.8293L70.0261 12.895L68.9603 16.9856Z" fill="white"/>
<path d="M25.7768 32.6456L25.0663 29.9186L22.3393 29.2082L25.0663 28.4976L25.7768 25.7707L26.4872 28.4977L29.2143 29.2081L26.4873 29.9186L25.7768 32.6456Z" fill="white"/>
<path d="M20.4031 80.572L19.4262 76.8223L15.6765 75.8455L19.4262 74.8685L20.403 71.1189L21.38 74.8686L25.1297 75.8454L21.38 76.8223L20.4031 80.572Z" fill="white"/>
<path d="M85.2852 36.9548L84.3971 33.546L80.9883 32.658L84.3971 31.7698L85.2852 28.3611L86.1732 31.7699L89.5821 32.6579L86.1733 33.5459L85.2852 36.9548Z" fill="white"/>
<path d="M28.363 22.3414L27.8302 20.2962L25.7849 19.7633L27.8302 19.2304L28.363 17.1852L28.8959 19.2305L30.9412 19.7633L28.8959 20.2961L28.363 22.3414Z" fill="white"/>
<path d="M91.3026 87.429L90.6365 84.8725L88.0799 84.2065L90.6365 83.5403L91.3025 80.9838L91.9686 83.5404L94.5252 84.2064L91.9687 84.8724L91.3026 87.429Z" fill="white"/>
</svg>
