<svg width="111" height="110" viewBox="0 0 111 110" fill="none" xmlns="http://www.w3.org/2000/svg">
<path d="M55.5 109.141C85.6729 109.141 110.133 84.901 110.133 55C110.133 25.099 85.6729 0.859375 55.5 0.859375C25.3271 0.859375 0.867188 25.099 0.867188 55C0.867188 84.901 25.3271 109.141 55.5 109.141Z" fill="#34485C" stroke="#34485C" stroke-linecap="round" stroke-linejoin="round"/>
<path d="M83.25 55C83.25 39.8122 70.8259 27.5 55.5 27.5C40.1741 27.5 27.75 39.8122 27.75 55C27.75 70.1878 40.1741 82.5 55.5 82.5C70.8259 82.5 83.25 70.1878 83.25 55Z" fill="#FCD062"/>
<path d="M63.9009 36.2849C60.9655 36.3102 58.0936 36.4158 55.5 36.4158C47.9178 36.4158 39.5512 36.517 33.1665 38.7321C29.6593 43.4449 27.7617 49.1441 27.75 54.9998C27.7613 59.719 28.9978 64.3559 31.3407 68.4645C31.5883 67.8157 32.2096 67.3533 32.9531 67.3533C33.914 67.3533 34.6875 68.1199 34.6875 69.0721V69.6528V70.4216C34.6875 71.3738 35.461 72.1403 36.4219 72.1403C37.3827 72.1403 38.1562 71.3738 38.1562 70.4216V69.6528V65.6279C38.1562 64.6757 38.9298 63.9091 39.8906 63.9091C40.8515 63.9091 41.625 64.6757 41.625 65.6279V74.376C41.625 75.3282 42.3985 76.0948 43.3594 76.0948C44.3202 76.0948 45.0938 75.3282 45.0938 74.376V69.1594C45.0938 68.2072 45.8673 67.4406 46.8281 67.4406C47.789 67.4406 48.5625 68.2072 48.5625 69.1594V72.2813C48.5625 73.2335 49.336 74.0001 50.2969 74.0001C51.2577 74.0001 52.0312 73.2335 52.0312 72.2813V67.454C52.0312 66.5019 52.8048 65.7353 53.7656 65.7353C54.7265 65.7353 55.5 66.5019 55.5 67.454V73.7449V76.1015C55.5 77.0537 56.2735 77.8203 57.2344 77.8203C58.1952 77.8203 58.9688 77.0537 58.9688 76.1015V73.7449V69.6528C58.9688 68.7007 59.7423 67.9341 60.7031 67.9341C61.664 67.9341 62.4375 68.7007 62.4375 69.6528V71.1131C62.4375 72.0653 63.211 72.8319 64.1719 72.8319C65.1327 72.8319 65.9062 72.0653 65.9062 71.1131V67.4507C65.9062 66.4985 66.6798 65.7319 67.6406 65.7319C68.6015 65.7319 69.375 66.4985 69.375 67.4507V73.1877C69.375 74.1399 70.1485 74.9064 71.1094 74.9064C72.0702 74.9064 72.8438 74.1399 72.8438 73.1877V70.7908V64.0199C72.8438 63.0677 73.6173 62.3012 74.5781 62.3012C75.539 62.3012 76.3125 63.0677 76.3125 64.0199V65.8528C76.3125 66.805 77.086 67.5715 78.0469 67.5715C79.0077 67.5715 79.7812 66.805 79.7812 65.8528V63.9158C79.7812 62.9637 80.5548 62.1971 81.5156 62.1971C81.7647 62.1971 81.9998 62.2519 82.2134 62.3448C82.8921 59.9541 83.2407 57.4833 83.25 54.9998C83.239 48.5156 80.9162 42.2438 76.6919 37.292C72.7452 36.3886 68.2539 36.2474 63.9009 36.2849Z" fill="#F8B84E"/>
<path d="M55.5 27.5C48.1402 27.5 41.0819 30.3973 35.8778 35.5546C30.6736 40.7118 27.75 47.7065 27.75 55C27.7514 55.6687 27.7773 56.3372 27.8279 57.0041C28.609 57.0197 29.4179 57.041 29.4843 57.041C30.4452 57.041 31.2187 56.2744 31.2187 55.3223V52.207C31.2187 51.2548 31.9922 50.4883 32.9531 50.4883C33.9139 50.4883 34.6874 51.2548 34.6874 52.207V54.8389V55.4834C34.6874 56.4356 35.461 57.2021 36.4218 57.2021C37.3827 57.2021 38.1562 56.4356 38.1562 55.4834V54.8389V51.9116C38.1562 50.9594 38.9297 50.1929 39.8906 50.1929C40.8514 50.1929 41.6249 50.9594 41.6249 51.9116V58.8235C41.6249 59.7757 42.3985 60.5423 43.3593 60.5423C44.3202 60.5423 45.0937 59.7757 45.0937 58.8235V55.094C45.0937 54.1418 45.8672 53.3752 46.8281 53.3752C47.7889 53.3752 48.5624 54.1418 48.5624 55.094V56.8127C48.5624 57.7649 49.336 58.5315 50.2968 58.5315C51.2577 58.5315 52.0312 57.7649 52.0312 56.8127V53.429C52.0312 52.4766 52.8047 51.7102 53.7656 51.7102C54.7264 51.7102 55.4999 52.4766 55.4999 53.429V58.2764V60.5591C55.4999 61.5113 56.2735 62.2778 57.2343 62.2778C58.1952 62.2778 58.9687 61.5113 58.9687 60.5591V58.2764V55.094C58.9687 54.1418 59.7422 53.3752 60.7031 53.3752C61.6639 53.3752 62.4374 54.1418 62.4374 55.094V56.4368C62.4374 57.389 63.211 58.1555 64.1718 58.1555C65.1327 58.1555 65.9062 57.389 65.9062 56.4368V51.8176C65.9062 50.8654 66.6797 50.0989 67.6406 50.0989C68.6014 50.0989 69.3749 50.8654 69.3749 51.8176V58.7396C69.3749 59.6918 70.1485 60.4584 71.1093 60.4584C72.0702 60.4584 72.8437 59.6918 72.8437 58.7396V55.3223V51.8176C72.8437 50.8653 73.6172 50.0989 74.5781 50.0989C75.5389 50.0989 76.3124 50.8653 76.3124 51.8176V55.3223C76.3124 56.2744 77.086 57.041 78.0468 57.041C79.0077 57.041 79.7812 56.2744 79.7812 55.3223V48.4473C79.7812 47.4951 80.5547 46.7285 81.5156 46.7285C81.6729 46.7285 81.8146 46.7772 81.9593 46.8158C80.2001 41.2232 76.6846 36.3334 71.9253 32.859C67.1659 29.3845 61.4113 27.507 55.5 27.5V27.5Z" fill="#F8A744"/>
<path d="M55.5 27.5C51.5193 27.5032 47.5859 28.355 43.9668 29.9977C40.3477 31.6403 37.1275 34.0354 34.5249 37.0203C34.625 37.2379 34.6874 37.4764 34.6874 37.7319V39.4507V41.1694C34.6874 42.1216 35.4609 42.8882 36.4218 42.8882C37.3826 42.8882 38.1561 42.1216 38.1561 41.1694V39.4507V36.5302C38.1561 35.578 38.9297 34.8114 39.8905 34.8114C40.8514 34.8114 41.6249 35.578 41.6249 36.5302V44.3787C41.6249 45.3309 42.3984 46.0974 43.3593 46.0974C44.3201 46.0974 45.0936 45.3309 45.0936 44.3787V39.2224C45.0936 38.2702 45.8672 37.5037 46.828 37.5037C47.7889 37.5037 48.5624 38.2702 48.5624 39.2224V40.9412C48.5624 41.8934 49.3359 42.6599 50.2968 42.6599C51.2576 42.6599 52.0311 41.8934 52.0311 40.9412V36.5268C52.0311 35.5746 52.8047 34.808 53.7655 34.808C54.7264 34.808 55.4999 35.5746 55.4999 36.5268V42.4048V45.2313C55.4999 46.1835 56.2734 46.9501 57.2343 46.9501C58.1951 46.9501 58.9686 46.1835 58.9686 45.2313V42.4048V39.2224C58.9686 38.2702 59.7422 37.5037 60.703 37.5037C61.6639 37.5037 62.4374 38.2702 62.4374 39.2224V41.6293C62.4374 42.5815 63.2109 43.3481 64.1718 43.3481C65.1326 43.3481 65.9061 42.5815 65.9061 41.6293V37.5037C65.9061 36.5515 66.6797 35.7849 67.6405 35.7849C68.6014 35.7849 69.3749 36.5515 69.3749 37.5037V43.3817C69.3749 44.3338 70.1484 45.1004 71.1093 45.1004C72.0701 45.1004 72.8436 44.3338 72.8436 43.3817V39.4507V38.1818C72.8436 37.2296 73.6172 36.463 74.578 36.463C75.5389 36.463 76.3124 37.2296 76.3124 38.1818V39.4507C76.3124 40.4029 77.0859 41.1694 78.0468 41.1694C78.4903 41.1694 78.8823 40.9925 79.1883 40.723C76.7163 36.6901 73.2388 33.3554 69.0902 31.0396C64.9416 28.7239 60.2615 27.5049 55.5 27.5V27.5Z" fill="#FCD062"/>
<path d="M69.5989 16.9809L68.5235 12.8904L64.3957 11.8248L68.5235 10.7589L69.5988 6.6685L70.6742 10.759L74.802 11.8246L70.6743 12.8903L69.5989 16.9809Z" fill="white"/>
<path d="M26.0159 32.6444L25.299 29.9174L22.5472 29.207L25.299 28.4964L26.0159 25.7695L26.7329 28.4965L29.4847 29.2069L26.7329 29.9173L26.0159 32.6444Z" fill="white"/>
<path d="M20.5877 80.5749L19.6019 76.8253L15.8181 75.8484L19.6019 74.8714L20.5877 71.1219L21.5735 74.8715L25.3573 75.8484L21.5736 76.8252L20.5877 80.5749Z" fill="white"/>
<path d="M86.0599 36.9531L85.1637 33.5443L81.7239 32.6563L85.1637 31.7681L86.0599 28.3594L86.956 31.7682L90.3958 32.6562L86.9561 33.5442L86.0599 36.9531Z" fill="white"/>
<path d="M28.62 22.3446L28.0823 20.2993L26.0184 19.7665L28.0823 19.2336L28.62 17.1884L29.1577 19.2337L31.2215 19.7665L29.1577 20.2993L28.62 22.3446Z" fill="white"/>
<path d="M92.1383 87.4286L91.4661 84.872L88.8863 84.206L91.4661 83.5398L92.1382 80.9833L92.8104 83.5399L95.3902 84.2059L92.8104 84.872L92.1383 87.4286Z" fill="white"/>
</svg>
