<svg width="82" height="78" viewBox="0 0 82 78" fill="none" xmlns="http://www.w3.org/2000/svg">
<path d="M55.3272 38.8775C55.3272 47.0231 48.6076 53.6409 40.3005 53.6409C31.9935 53.6409 25.2739 47.0231 25.2739 38.8775C25.2739 30.7319 31.9935 24.114 40.3005 24.114C48.6076 24.114 55.3272 30.7319 55.3272 38.8775Z" stroke="#8E744B"/>
<mask id="path-2-inside-1_26_27" fill="white">
<path fill-rule="evenodd" clip-rule="evenodd" d="M41.1281 8.7659L40.6085 0L40.0878 8.78539C38.9608 8.82521 37.8493 8.92551 36.7565 9.08312L34.9534 0.380009L35.7189 9.25093C34.6239 9.44729 33.5492 9.70144 32.4981 10.0101L29.4085 1.51264L31.4824 10.3277C30.4449 10.6721 29.4321 11.0702 28.4474 11.5186L24.0815 3.37584L27.4731 11.9832C26.5145 12.4613 25.5847 12.9879 24.6869 13.5598L19.0762 5.93335L23.7735 14.1648C22.9103 14.7591 22.0794 15.3963 21.2839 16.0733L14.4899 9.13539L20.4506 16.809C19.6946 17.5011 18.9739 18.2306 18.2913 18.9944L10.4121 12.9196L17.5565 19.8478C16.9159 20.6202 16.313 21.4244 15.7505 22.2579L6.922 17.2124L15.1313 23.2135C14.6116 24.0495 14.1317 24.9123 13.694 25.7994L4.08757 21.9302L13.2054 26.8392C12.8104 27.7233 12.4567 28.6296 12.1467 29.5556L1.96398 26.9812L11.8009 30.6592C11.5326 31.5767 11.3068 32.5121 11.1257 33.4633L0.592556 32.267L10.9305 34.6081C10.7893 35.5454 10.6912 36.4967 10.6383 37.46L0 37.6848L10.5967 38.6223C10.5939 38.7939 10.5924 38.9658 10.5924 39.138C10.5924 39.9282 10.6228 40.7114 10.6826 41.4864L0.197838 43.1291L10.7939 42.6418C10.9052 43.6038 11.0619 44.5521 11.2616 45.4846L1.18223 48.494L11.5252 46.6088C11.7663 47.5549 12.0521 48.4833 12.3804 49.3918L2.934 53.675L12.7903 50.4617C13.1615 51.3782 13.5766 52.2726 14.0327 53.1423L5.41907 58.5713L14.5784 54.1368C15.0784 55.0088 15.6206 55.8539 16.2024 56.6692L8.58906 63.0876L16.8698 57.5693C17.4952 58.381 18.1609 59.1604 18.8639 59.9048L12.3823 67.136L19.6367 60.694C20.3819 61.4281 21.1649 62.1244 21.9825 62.7797L16.7249 70.6377L22.8428 63.4445C23.699 64.0823 24.59 64.6765 25.5125 65.224L21.5323 73.5245L26.4414 65.7535C27.3956 66.2756 28.3808 66.7486 29.3938 67.1692L26.7111 75.7403L30.372 67.5557C31.4058 67.9438 32.4664 68.2779 33.5502 68.5545L32.1604 77.2418L34.5587 68.7938C35.6486 69.033 36.7604 69.2145 37.8905 69.335L37.7741 78L38.9106 69.4267C39.6653 69.482 40.4275 69.5101 41.1964 69.5101C41.5708 69.5101 41.9437 69.5035 42.3148 69.4902L43.4429 78L43.3278 69.4376C44.4777 69.3591 45.61 69.2176 46.7215 69.0165L49.0566 77.2418L47.7095 68.8209C48.8326 68.5793 49.9328 68.2765 51.0062 67.9163L54.5059 75.7403L51.9522 67.5814C53.0208 67.1832 54.061 66.7274 55.069 66.2178L59.6847 73.5245L55.957 65.7505C56.9466 65.2087 57.9028 64.6142 58.8217 63.9706L64.4921 70.6377L59.6362 63.3801C60.5271 62.7116 61.3801 61.9958 62.1912 61.2365L68.8347 67.136L62.9173 60.5341C63.6942 59.7574 64.4291 58.9392 65.1183 58.0832L72.6279 63.0876L65.7416 57.2821C66.3927 56.416 66.9983 55.5143 67.555 54.5805L75.7979 58.5713L68.0624 53.6958C68.5788 52.7593 69.0468 51.7928 69.4633 50.7996L78.283 53.675L69.8433 49.8482C70.2186 48.8601 70.5434 47.8475 70.8148 46.8135L80.0348 48.494L71.0588 45.814C71.2895 44.793 71.4685 43.7526 71.5927 42.6956L81.0191 43.1291L71.6957 41.6684C71.7651 40.834 71.8004 39.9901 71.8004 39.138C71.8004 38.931 71.7984 38.7245 71.7942 38.5185L81.217 37.6848L71.7559 37.4848C71.6986 36.4248 71.5865 35.3793 71.4225 34.3509L80.6244 32.267L71.242 33.3326C71.0386 32.2896 70.7814 31.2658 70.4735 30.2638L79.253 26.9812L70.153 29.2819C69.8046 28.2734 69.4041 27.2888 68.9549 26.3314L77.1294 21.9302L68.501 25.4055C68.0116 24.4492 67.4728 23.5219 66.8877 22.6272L74.295 17.2124L66.3102 21.7757C65.6868 20.8893 65.017 20.0374 64.3043 19.2236L70.8049 12.9196L63.6152 18.4628C62.8672 17.6643 62.0764 16.9059 61.2464 16.191L66.727 9.13539L60.4595 15.5358C59.5992 14.8434 58.7004 14.1964 57.7666 13.5985L62.1408 5.93335L56.8965 13.0616C55.9402 12.4933 54.9501 11.9754 53.9298 11.5114L57.1355 3.37584L52.9919 11.1038C51.9603 10.6758 50.9001 10.3023 49.8148 9.98676L51.8085 1.51264L48.8254 9.71706C47.7436 9.44159 46.6387 9.22334 45.5141 9.06574L46.2635 0.380009L44.4902 8.93968C43.4081 8.82477 42.3092 8.76583 41.1964 8.76583C41.1736 8.76583 41.1509 8.76585 41.1281 8.7659ZM68.8004 39.138C68.8004 54.2337 56.4633 66.5101 41.1964 66.5101C25.9296 66.5101 13.5924 54.2337 13.5924 39.138C13.5924 24.0422 25.9296 11.7658 41.1964 11.7658C56.4633 11.7658 68.8004 24.0422 68.8004 39.138Z"/>
</mask>
<path fill-rule="evenodd" clip-rule="evenodd" d="M41.1281 8.7659L40.6085 0L40.0878 8.78539C38.9608 8.82521 37.8493 8.92551 36.7565 9.08312L34.9534 0.380009L35.7189 9.25093C34.6239 9.44729 33.5492 9.70144 32.4981 10.0101L29.4085 1.51264L31.4824 10.3277C30.4449 10.6721 29.4321 11.0702 28.4474 11.5186L24.0815 3.37584L27.4731 11.9832C26.5145 12.4613 25.5847 12.9879 24.6869 13.5598L19.0762 5.93335L23.7735 14.1648C22.9103 14.7591 22.0794 15.3963 21.2839 16.0733L14.4899 9.13539L20.4506 16.809C19.6946 17.5011 18.9739 18.2306 18.2913 18.9944L10.4121 12.9196L17.5565 19.8478C16.9159 20.6202 16.313 21.4244 15.7505 22.2579L6.922 17.2124L15.1313 23.2135C14.6116 24.0495 14.1317 24.9123 13.694 25.7994L4.08757 21.9302L13.2054 26.8392C12.8104 27.7233 12.4567 28.6296 12.1467 29.5556L1.96398 26.9812L11.8009 30.6592C11.5326 31.5767 11.3068 32.5121 11.1257 33.4633L0.592556 32.267L10.9305 34.6081C10.7893 35.5454 10.6912 36.4967 10.6383 37.46L0 37.6848L10.5967 38.6223C10.5939 38.7939 10.5924 38.9658 10.5924 39.138C10.5924 39.9282 10.6228 40.7114 10.6826 41.4864L0.197838 43.1291L10.7939 42.6418C10.9052 43.6038 11.0619 44.5521 11.2616 45.4846L1.18223 48.494L11.5252 46.6088C11.7663 47.5549 12.0521 48.4833 12.3804 49.3918L2.934 53.675L12.7903 50.4617C13.1615 51.3782 13.5766 52.2726 14.0327 53.1423L5.41907 58.5713L14.5784 54.1368C15.0784 55.0088 15.6206 55.8539 16.2024 56.6692L8.58906 63.0876L16.8698 57.5693C17.4952 58.381 18.1609 59.1604 18.8639 59.9048L12.3823 67.136L19.6367 60.694C20.3819 61.4281 21.1649 62.1244 21.9825 62.7797L16.7249 70.6377L22.8428 63.4445C23.699 64.0823 24.59 64.6765 25.5125 65.224L21.5323 73.5245L26.4414 65.7535C27.3956 66.2756 28.3808 66.7486 29.3938 67.1692L26.7111 75.7403L30.372 67.5557C31.4058 67.9438 32.4664 68.2779 33.5502 68.5545L32.1604 77.2418L34.5587 68.7938C35.6486 69.033 36.7604 69.2145 37.8905 69.335L37.7741 78L38.9106 69.4267C39.6653 69.482 40.4275 69.5101 41.1964 69.5101C41.5708 69.5101 41.9437 69.5035 42.3148 69.4902L43.4429 78L43.3278 69.4376C44.4777 69.3591 45.61 69.2176 46.7215 69.0165L49.0566 77.2418L47.7095 68.8209C48.8326 68.5793 49.9328 68.2765 51.0062 67.9163L54.5059 75.7403L51.9522 67.5814C53.0208 67.1832 54.061 66.7274 55.069 66.2178L59.6847 73.5245L55.957 65.7505C56.9466 65.2087 57.9028 64.6142 58.8217 63.9706L64.4921 70.6377L59.6362 63.3801C60.5271 62.7116 61.3801 61.9958 62.1912 61.2365L68.8347 67.136L62.9173 60.5341C63.6942 59.7574 64.4291 58.9392 65.1183 58.0832L72.6279 63.0876L65.7416 57.2821C66.3927 56.416 66.9983 55.5143 67.555 54.5805L75.7979 58.5713L68.0624 53.6958C68.5788 52.7593 69.0468 51.7928 69.4633 50.7996L78.283 53.675L69.8433 49.8482C70.2186 48.8601 70.5434 47.8475 70.8148 46.8135L80.0348 48.494L71.0588 45.814C71.2895 44.793 71.4685 43.7526 71.5927 42.6956L81.0191 43.1291L71.6957 41.6684C71.7651 40.834 71.8004 39.9901 71.8004 39.138C71.8004 38.931 71.7984 38.7245 71.7942 38.5185L81.217 37.6848L71.7559 37.4848C71.6986 36.4248 71.5865 35.3793 71.4225 34.3509L80.6244 32.267L71.242 33.3326C71.0386 32.2896 70.7814 31.2658 70.4735 30.2638L79.253 26.9812L70.153 29.2819C69.8046 28.2734 69.4041 27.2888 68.9549 26.3314L77.1294 21.9302L68.501 25.4055C68.0116 24.4492 67.4728 23.5219 66.8877 22.6272L74.295 17.2124L66.3102 21.7757C65.6868 20.8893 65.017 20.0374 64.3043 19.2236L70.8049 12.9196L63.6152 18.4628C62.8672 17.6643 62.0764 16.9059 61.2464 16.191L66.727 9.13539L60.4595 15.5358C59.5992 14.8434 58.7004 14.1964 57.7666 13.5985L62.1408 5.93335L56.8965 13.0616C55.9402 12.4933 54.9501 11.9754 53.9298 11.5114L57.1355 3.37584L52.9919 11.1038C51.9603 10.6758 50.9001 10.3023 49.8148 9.98676L51.8085 1.51264L48.8254 9.71706C47.7436 9.44159 46.6387 9.22334 45.5141 9.06574L46.2635 0.380009L44.4902 8.93968C43.4081 8.82477 42.3092 8.76583 41.1964 8.76583C41.1736 8.76583 41.1509 8.76585 41.1281 8.7659ZM68.8004 39.138C68.8004 54.2337 56.4633 66.5101 41.1964 66.5101C25.9296 66.5101 13.5924 54.2337 13.5924 39.138C13.5924 24.0422 25.9296 11.7658 41.1964 11.7658C56.4633 11.7658 68.8004 24.0422 68.8004 39.138Z" fill="#8E744B"/>
<path d="M41.1281 8.7659L-393.11 34.5045L-368.799 444.659L42.075 443.765L41.1281 8.7659ZM40.6085 0L474.846 -25.7386L-393.629 -25.7386L40.6085 0ZM40.0878 8.78539L55.4506 443.514L450.912 429.539L474.326 34.524L40.0878 8.78539ZM36.7565 9.08312L-389.198 97.3322L-306.178 498.045L98.8533 439.628L36.7565 9.08312ZM34.9534 0.380009L460.908 -87.8691L-398.436 37.7746L34.9534 0.380009ZM35.7189 9.25093L112.501 437.421L503.234 367.352L469.109 -28.1437L35.7189 9.25093ZM32.4981 10.0101L-376.317 158.656L-236.767 542.453L155.066 427.385L32.4981 10.0101ZM29.4085 1.51264L438.223 -147.133L-394.03 101.137L29.4085 1.51264ZM31.4824 10.3277L168.522 423.178L546.012 297.875L454.921 -89.2963L31.4824 10.3277ZM28.4474 11.5186L-354.922 217.074L-162.285 576.351L208.723 407.405L28.4474 11.5186ZM24.0815 3.37584L407.451 -202.179L-380.632 162.85L24.0815 3.37584ZM27.4731 11.9832L221.612 401.258L578.318 223.362L432.186 -147.491L27.4731 11.9832ZM24.6869 13.5598L-325.703 271.343L-84.6584 598.981L258.401 380.442L24.6869 13.5598ZM19.0762 5.93335L369.466 -251.85L-358.735 221.535L19.0762 5.93335ZM23.7735 14.1648L270.44 372.467L599.725 145.777L401.584 -201.437L23.7735 14.1648ZM21.2839 16.0733L-289.515 320.423L-5.69595 610.256L303.222 347.338L21.2839 16.0733ZM14.4899 9.13539L325.289 -295.215L-329.045 275.985L14.4899 9.13539ZM20.4506 16.809L314.193 337.652L610.072 66.7651L363.986 -250.041L20.4506 16.809ZM18.2913 18.9944L-247.313 363.493L73.0876 610.518L342.659 308.841L18.2913 18.9944ZM10.4121 12.9196L276.016 -331.579L-292.418 325.2L10.4121 12.9196ZM17.5565 19.8478L352.369 297.563L609.332 -12.2309L320.387 -292.432L17.5565 19.8478ZM15.7505 22.2579L-200.088 399.933L150.459 600.268L376.32 265.598L15.7505 22.2579ZM6.922 17.2124L222.761 -360.463L-249.79 368.388L6.922 17.2124ZM15.1313 23.2135L384.568 252.868L597.601 -89.8299L271.843 -327.962L15.1313 23.2135ZM13.694 25.7994L-148.825 429.3L225.335 580.001L403.801 218.26L13.694 25.7994ZM4.08757 21.9302L166.606 -381.57L-202.126 404.946L4.08757 21.9302ZM13.2054 26.8392L410.369 204.283L575.191 -164.631L219.419 -356.177L13.2054 26.8392ZM12.1467 29.5556L-94.4766 451.286L296.601 550.159L424.648 167.64L12.1467 29.5556ZM1.96398 26.9812L108.587 -394.749L-150.381 434.432L1.96398 26.9812ZM11.8009 30.6592L429.324 152.723L542.744 -235.235L164.145 -376.792L11.8009 30.6592ZM11.1257 33.4633L-37.9609 465.685L362.961 511.217L438.446 114.841L11.1257 33.4633ZM0.592556 32.267L49.6792 -399.955L-95.4836 456.524L0.592556 32.267ZM10.9305 34.6081L441.075 99.4219L501.313 -300.356L107.007 -389.649L10.9305 34.6081ZM10.6383 37.46L19.831 472.363L422.898 463.843L444.985 61.292L10.6383 37.46ZM0 37.6848L-9.19264 -397.218L-38.3351 470.992L0 37.6848ZM10.5967 38.6223L445.536 45.9174L452.327 -358.996L48.9319 -394.685L10.5967 38.6223ZM10.6826 41.4864L78.016 471.244L475.291 408.999L444.397 8.06676L10.6826 41.4864ZM0.197838 43.1291L-67.1356 -386.628L20.1825 477.67L0.197838 43.1291ZM10.7939 42.6418L442.909 -7.37354L396.244 -410.545L-9.19083 -391.899L10.7939 42.6418ZM11.2616 45.4846L135.713 462.302L520.789 347.328L436.612 -45.6312L11.2616 45.4846ZM1.18223 48.494L-123.269 -368.323L79.1855 476.443L1.18223 48.494ZM11.5252 46.6088L433.051 -60.8198L332.816 -454.121L-66.4782 -381.34L11.5252 46.6088ZM12.3804 49.3918L192.019 445.567L558.082 279.583L421.492 -98.4342L12.3804 49.3918ZM2.934 53.675L-176.704 -342.501L137.768 467.251L2.934 53.675ZM12.7903 50.4617L415.961 -112.872L263.642 -488.855L-122.043 -363.114L12.7903 50.4617ZM14.0327 53.1423L245.979 421.145L585.892 206.903L399.257 -148.916L14.0327 53.1423ZM5.41907 58.5713L-226.527 -309.431L194.98 450.096L5.41907 58.5713ZM14.5784 54.1368L391.952 -162.23L190.163 -514.177L-174.982 -337.388L14.5784 54.1368ZM16.2024 56.6692L296.585 389.251L603.342 130.639L370.314 -195.977L16.2024 56.6692ZM8.58906 63.0876L-271.794 -269.494L249.818 425.074L8.58906 63.0876ZM16.8698 57.5693L361.459 -207.917L113.597 -529.631L-224.359 -304.417L16.8698 57.5693ZM18.8639 59.9048L342.788 350.247L609.941 52.1937L335.103 -238.789L18.8639 59.9048ZM12.3823 67.136L-311.541 -223.206L301.22 392.402L12.3823 67.136ZM19.6367 60.694L324.914 -249.194L35.0486 -534.747L-269.201 -264.572L19.6367 60.694ZM21.9825 62.7797L383.52 304.679L605.473 -27.0471L294.025 -276.658L21.9825 62.7797ZM16.7249 70.6377L-344.813 -171.262L348.084 352.464L16.7249 70.6377ZM22.8428 63.4445L282.698 -285.411L-44.3264 -529.005L-308.516 -218.382L22.8428 63.4445ZM25.5125 65.224L417.751 253.305L589.888 -105.684L247.511 -308.864L25.5125 65.224ZM21.5323 73.5245L-370.706 -114.556L389.299 305.845L21.5323 73.5245ZM26.4414 65.7535L235.249 -315.854L-123.14 -511.957L-341.325 -166.567L26.4414 65.7535ZM29.3938 67.1692L444.535 197.104L563.248 -182.185L196.194 -334.58L29.3938 67.1692ZM26.7111 75.7403L-388.43 -54.1942L423.798 253.356L26.7111 75.7403ZM30.372 67.5557L183.236 -339.701L-199.704 -483.437L-366.714 -110.06L30.372 67.5557ZM33.5502 68.5545L463.088 137.271L525.802 -254.741L141.139 -352.931L33.5502 68.5545ZM32.1604 77.2418L-397.378 8.52506L450.623 196.043L32.1604 77.2418ZM34.5587 68.7938L127.805 -356.095L-272.091 -443.856L-383.904 -50.0073L34.5587 68.7938ZM37.8905 69.335L472.851 75.1809L478.179 -321.197L83.9981 -363.215L37.8905 69.335ZM37.7741 78L-397.187 72.1541L469.001 135.167L37.7741 78ZM38.9106 69.4267L70.7 -364.41L-338.408 -394.388L-392.317 12.2598L38.9106 69.4267ZM42.3148 69.4902L473.542 12.3236L421.625 -379.306L26.8191 -365.234L42.3148 69.4902ZM43.4429 78L-387.784 135.167L478.404 72.1541L43.4429 78ZM43.3278 69.4376L13.6994 -364.552L-397.167 -336.502L-391.633 75.2835L43.3278 69.4376ZM46.7215 69.0165L465.184 -49.7846L357.448 -429.274L-30.734 -359.032L46.7215 69.0165ZM49.0566 77.2418L-369.406 196.043L478.595 8.52495L49.0566 77.2418ZM47.7095 68.8209L-43.7653 -356.452L-446.981 -269.722L-381.829 137.538L47.7095 68.8209ZM51.0062 67.9163L448.093 -109.699L286.889 -470.093L-87.398 -344.478L51.0062 67.9163ZM54.5059 75.7403L-342.581 253.356L469.647 -54.1942L54.5059 75.7403ZM51.9522 67.5814L-99.9333 -340.041L-486.37 -196.049L-363.189 197.516L51.9522 67.5814ZM55.069 66.2178L422.836 -166.103L211.668 -500.383L-141.194 -321.991L55.069 66.2178ZM59.6847 73.5245L-308.082 305.845L451.923 -114.556L59.6847 73.5245ZM55.957 65.7505L-152.928 -315.815L-514.513 -117.868L-336.281 253.831L55.957 65.7505ZM58.8217 63.9706L390.181 -217.856L133.636 -519.49L-190.713 -292.341L58.8217 63.9706ZM64.4921 70.6377L-266.867 352.464L426.03 -171.262L64.4921 70.6377ZM59.6362 63.3801L-201.44 -284.563L-531.068 -37.2286L-301.902 305.279L59.6362 63.3801ZM62.1912 61.2365L351.029 -264.029L54.47 -527.375L-235.079 -256.341L62.1912 61.2365ZM68.8347 67.136L-220.003 392.402L392.758 -223.206L68.8347 67.136ZM62.9173 60.5341L-244.644 -247.088L-535.936 44.1473L-261.006 350.876L62.9173 60.5341ZM65.1183 58.0832L306.347 -303.903L-24.4241 -524.329L-273.706 -214.723L65.1183 58.0832ZM72.6279 63.0876L-168.601 425.074L353.011 -269.494L72.6279 63.0876ZM65.7416 57.2821L-281.964 -204.111L-529.159 124.709L-214.641 389.863L65.7416 57.2821ZM67.555 54.5805L257.116 -336.944L-101.865 -510.749L-306.091 -168.16L67.555 54.5805ZM75.7979 58.5713L-113.763 450.096L307.744 -309.431L75.7979 58.5713ZM68.0624 53.6958L-312.876 -156.33L-510.958 202.943L-163.884 421.698L68.0624 53.6958ZM69.4633 50.7996L204.297 -362.776L-176.71 -486.992L-331.69 -117.428L69.4633 50.7996ZM78.283 53.675L-56.5507 467.251L257.921 -342.501L78.283 53.675ZM69.8433 49.8482L-336.816 -104.597L-481.863 277.316L-109.795 446.024L69.8433 49.8482ZM70.8148 46.8135L148.818 -381.136L-247.66 -453.403L-349.942 -63.5881L70.8148 46.8135ZM80.0348 48.494L2.03141 476.443L204.486 -368.323L80.0348 48.494ZM71.0588 45.814L-353.24 -50.081L-442.837 346.353L-53.3927 462.632L71.0588 45.814ZM71.5927 42.6956L91.5772 -391.845L-313.13 -410.458L-360.432 -8.09341L71.5927 42.6956ZM81.0191 43.1291L61.0346 477.67L148.353 -386.628L81.0191 43.1291ZM71.6957 41.6684L-361.81 5.63955L-395.317 408.805L4.36237 471.426L71.6957 41.6684ZM71.7942 38.5185L33.459 -394.789L-371.302 -358.979L-363.118 47.2805L71.7942 38.5185ZM81.217 37.6848L119.552 470.992L90.4096 -397.218L81.217 37.6848ZM71.7559 37.4848L-362.61 60.9606L-340.835 463.861L62.5632 472.388L71.7559 37.4848ZM71.4225 34.3509L-24.6537 -389.907L-422.392 -299.836L-358.145 102.881L71.4225 34.3509ZM80.6244 32.267L176.701 456.524L31.5379 -399.955L80.6244 32.267ZM71.242 33.3326L-355.713 116.604L-278.815 510.884L120.329 465.554L71.242 33.3326ZM70.4735 30.2638L-81.8712 -377.187L-465.733 -233.662L-345.329 158.067L70.4735 30.2638ZM79.253 26.9812L231.598 434.432L-27.3704 -394.749L79.253 26.9812ZM70.153 29.2819L-340.997 171.34L-210.534 548.933L176.776 451.012L70.153 29.2819ZM68.9549 26.3314L-137.258 -356.684L-499.707 -161.544L-324.848 211.113L68.9549 26.3314ZM77.1294 21.9302L283.343 404.946L-85.3895 -381.57L77.1294 21.9302ZM68.501 25.4055L-318.752 223.548L-137.693 577.413L231.02 428.906L68.501 25.4055ZM66.8877 22.6272L-189.824 -328.548L-523.144 -84.8884L-297.194 260.681L66.8877 22.6272ZM74.295 17.2124L331.007 368.387L-141.544 -360.463L74.295 17.2124ZM66.3102 21.7757L-289.511 272.008L-61.6947 595.955L282.149 399.451L66.3102 21.7757ZM64.3043 19.2236L-238.526 -293.057L-535.339 -5.22574L-262.944 305.814L64.3043 19.2236ZM70.8049 12.9196L373.635 325.2L-194.799 -331.579L70.8049 12.9196ZM63.6152 18.4628L-253.846 315.857L16.2926 604.224L329.219 362.962L63.6152 18.4628ZM61.2464 16.191L-282.289 -250.658L-535.965 75.9176L-222.639 345.788L61.2464 16.191ZM66.727 9.13539L410.262 275.985L-244.072 -295.215L66.727 9.13539ZM60.4595 15.5358L-212.28 354.414L95.1515 601.843L371.259 319.886L60.4595 15.5358ZM57.7666 13.5985L-320.044 -202.003L-524.925 157.021L-176.808 379.931L57.7666 13.5985ZM62.1408 5.93335L439.952 221.535L-288.249 -251.85L62.1408 5.93335ZM56.8965 13.0616L-165.332 387.013L173.626 588.446L407.286 270.845L56.8965 13.0616ZM53.9298 11.5114L-350.784 -147.963L-502.266 236.469L-126.123 407.499L53.9298 11.5114ZM57.1355 3.37584L461.849 162.85L-326.234 -202.179L57.1355 3.37584ZM52.9919 11.1038L-113.706 412.896L250.192 563.873L436.361 216.659L52.9919 11.1038ZM49.8148 9.98676L-373.624 -89.6374L-468.213 312.402L-71.6148 427.695L49.8148 9.98676ZM51.8085 1.51264L475.247 101.137L-357.006 -147.133L51.8085 1.51264ZM48.8254 9.71706L-58.5174 431.265L323.081 528.435L457.64 158.363L48.8254 9.71706ZM45.5141 9.06574L-387.876 -28.329L-423.333 382.613L-14.856 439.856L45.5141 9.06574ZM46.2635 0.380009L479.653 37.7748L-379.691 -87.8692L46.2635 0.380009ZM44.4902 8.93968L-1.44605 441.507L390.486 483.128L470.444 97.1889L44.4902 8.93968ZM475.366 -16.9727L474.846 -25.7386L-393.629 25.7386L-393.11 34.5045L475.366 -16.9727ZM-393.629 -25.7386L-394.15 -16.9532L474.326 34.524L474.846 25.7386L-393.629 -25.7386ZM24.725 -425.943C7.9141 -425.349 -8.7977 -423.848 -25.3402 -421.462L98.8533 439.628C84.4963 441.699 70.0074 443 55.4506 443.514L24.725 -425.943ZM-391.001 88.6291L-389.198 97.3322L462.711 -79.166L460.908 -87.8691L-391.001 88.6291ZM469.109 -28.1437L468.343 -37.0146L-398.436 37.7746L-397.671 46.6455L469.109 -28.1437ZM-41.0631 -418.919C-57.6838 -415.939 -74.041 -412.072 -90.0698 -407.365L155.066 427.385C141.14 431.475 126.932 434.833 112.501 437.421L-41.0631 -418.919ZM-379.406 150.158L-376.317 158.656L441.313 -138.636L438.223 -147.133L-379.406 150.158ZM454.921 -89.2963L452.847 -98.1114L-394.03 101.137L-391.956 109.952L454.921 -89.2963ZM-105.558 -402.522C-121.383 -397.269 -136.825 -391.199 -151.828 -384.367L208.723 407.405C195.689 413.34 182.273 418.613 168.522 423.178L-105.558 -402.522ZM-359.288 208.931L-354.922 217.074L411.817 -194.036L407.451 -202.179L-359.288 208.931ZM432.186 -147.491L428.795 -156.099L-380.632 162.85L-377.24 171.458L432.186 -147.491ZM-166.666 -377.292C-181.259 -370.014 -195.395 -362.007 -209.027 -353.322L258.401 380.442C246.565 387.982 234.288 394.937 221.612 401.258L-166.666 -377.292ZM375.077 -244.223L369.466 -251.85L-331.314 263.716L-325.703 271.343L375.077 -244.223ZM-358.735 221.535L-354.037 229.766L401.584 -201.437L396.887 -209.668L-358.735 221.535ZM-222.893 -344.138C-235.991 -335.12 -248.593 -325.456 -260.654 -315.191L303.222 347.338C292.751 356.249 281.812 364.639 270.44 372.467L-222.893 -344.138ZM332.083 -288.277L325.289 -295.215L-296.309 313.486L-289.515 320.423L332.083 -288.277ZM-329.045 275.985L-323.084 283.659L363.986 -250.041L358.025 -257.714L-329.045 275.985ZM-273.292 -304.034C-284.758 -293.537 -295.7 -282.463 -306.076 -270.852L342.659 308.841C333.648 318.924 324.147 328.539 314.193 337.652L-273.292 -304.034ZM283.896 -325.504L276.016 -331.579L-255.192 357.418L-247.313 363.493L283.896 -325.504ZM-292.418 325.2L-285.274 332.128L320.387 -292.432L313.242 -299.361L-292.418 325.2ZM-317.256 -257.867C-327.009 -246.109 -336.213 -233.835 -344.819 -221.082L376.32 265.598C368.839 276.684 360.841 287.349 352.369 297.563L-317.256 -257.867ZM231.589 -355.418L222.761 -360.463L-208.917 394.888L-200.088 399.933L231.589 -355.418ZM-249.79 368.388L-241.581 374.389L271.843 -327.962L263.634 -333.963L-249.79 368.388ZM-354.306 -206.441C-362.276 -193.62 -369.661 -180.348 -376.413 -166.661L403.801 218.26C397.924 230.173 391.499 241.719 384.568 252.868L-354.306 -206.441ZM176.213 -377.701L166.606 -381.57L-158.431 425.431L-148.825 429.3L176.213 -377.701ZM-202.126 404.946L-193.008 409.855L219.419 -356.177L210.301 -361.086L-202.126 404.946ZM-383.958 -150.604C-390.065 -136.936 -395.545 -122.898 -400.355 -108.529L424.648 167.64C420.458 180.157 415.685 192.383 410.369 204.283L-383.958 -150.604ZM118.77 -392.175L108.587 -394.749L-104.659 448.712L-94.4766 451.286L118.77 -392.175ZM-150.381 434.432L-140.544 438.11L164.145 -376.792L154.309 -380.47L-150.381 434.432ZM-405.722 -91.4048C-409.886 -77.1604 -413.389 -62.6486 -416.195 -47.9143L438.446 114.841C436.002 127.673 432.952 140.314 429.324 152.723L-405.722 -91.4048ZM60.2123 -398.758L49.6792 -399.955L-48.494 464.489L-37.9609 465.685L60.2123 -398.758ZM-95.4836 456.524L-85.1457 458.866L107.007 -389.649L96.6687 -391.99L-95.4836 456.524ZM-419.214 -30.2056C-421.396 -15.7206 -422.901 -1.09369 -423.708 13.6279L444.985 61.292C444.283 74.0871 442.975 86.8114 441.075 99.4219L-419.214 -30.2056ZM1.44571 -397.443L-9.19264 -397.218L9.19264 472.588L19.831 472.363L1.44571 -397.443ZM-38.3351 470.992L-27.7384 471.93L48.9319 -394.685L38.3351 -395.623L-38.3351 470.992ZM-424.342 31.3272C-424.386 33.9292 -424.408 36.5329 -424.408 39.138H445.592C445.592 41.3986 445.573 43.6585 445.536 45.9174L-424.342 31.3272ZM-424.408 39.138C-424.408 51.0923 -423.947 63.0235 -423.032 74.9061L444.397 8.06676C445.193 18.3992 445.592 28.7641 445.592 39.138H-424.408ZM-56.6509 -388.271L-67.1356 -386.628L67.5313 472.886L78.016 471.244L-56.6509 -388.271ZM20.1825 477.67L30.7786 477.183L-9.19083 -391.899L-19.7869 -391.412L20.1825 477.67ZM-421.321 92.6572C-419.606 107.476 -417.187 122.139 -414.089 136.6L436.612 -45.6312C439.31 -33.0349 441.417 -20.2681 442.909 -7.37354L-421.321 92.6572ZM-113.19 -371.333L-123.269 -368.323L125.634 465.312L135.713 462.302L-113.19 -371.333ZM79.1855 476.443L89.5285 474.558L-66.4782 -381.34L-76.8211 -379.455L79.1855 476.443ZM-410.001 154.037C-406.258 168.722 -401.822 183.13 -396.731 197.218L421.492 -98.4342C425.926 -86.1637 429.791 -73.6126 433.051 -60.8198L-410.001 154.037ZM-167.258 -346.784L-176.704 -342.501L182.572 449.851L192.019 445.567L-167.258 -346.784ZM137.768 467.251L147.624 464.037L-122.043 -363.114L-131.9 -359.901L137.768 467.251ZM-390.381 213.796C-384.632 227.987 -378.219 241.802 -371.191 255.201L399.257 -148.916C405.372 -137.257 410.955 -125.231 415.961 -112.872L-390.381 213.796ZM-217.914 -314.86L-226.527 -309.431L237.365 426.574L245.979 421.145L-217.914 -314.86ZM194.98 450.096L204.139 445.662L-174.982 -337.388L-184.142 -332.953L194.98 450.096ZM-362.795 270.503C-355.11 283.907 -346.798 296.856 -337.909 309.315L370.314 -195.977C378.039 -185.149 385.267 -173.889 391.952 -162.23L-362.795 270.503ZM-264.181 -275.912L-271.794 -269.494L288.972 395.669L296.585 389.251L-264.181 -275.912ZM249.818 425.074L258.098 419.555L-224.359 -304.417L-232.639 -298.898L249.818 425.074ZM-327.72 323.056C-318.183 335.434 -308.052 347.294 -297.375 358.598L335.103 -238.789C344.374 -228.973 353.173 -218.672 361.459 -207.917L-327.72 323.056ZM-305.06 -230.437L-311.541 -223.206L336.306 357.478L342.788 350.247L-305.06 -230.437ZM301.22 392.402L308.474 385.96L-269.201 -264.572L-276.455 -258.13L301.22 392.402ZM-285.641 370.582C-274.333 381.722 -262.458 392.281 -250.06 402.217L294.025 -276.658C304.788 -268.032 315.097 -258.865 324.914 -249.194L-285.641 370.582ZM-339.555 -179.12L-344.813 -171.262L378.263 312.537L383.52 304.679L-339.555 -179.12ZM348.084 352.464L354.202 345.271L-308.516 -218.382L-314.634 -211.189L348.084 352.464ZM-237.012 412.3C-224.028 421.972 -210.504 430.993 -196.486 439.312L247.511 -308.864C259.684 -301.64 271.426 -293.807 282.698 -285.411L-237.012 412.3ZM-366.726 -122.857L-370.706 -114.556L413.77 261.605L417.751 253.305L-366.726 -122.857ZM389.299 305.845L394.208 298.074L-341.325 -166.567L-346.234 -158.796L389.299 305.845ZM-182.366 447.361C-167.853 455.303 -152.849 462.507 -137.407 468.919L196.194 -334.58C209.61 -329.01 222.644 -322.751 235.249 -315.854L-182.366 447.361ZM-385.747 -62.7653L-388.43 -54.1942L441.852 205.675L444.535 197.104L-385.747 -62.7653ZM423.798 253.356L427.458 245.171L-366.714 -110.06L-370.375 -101.875L423.798 253.356ZM-122.492 474.812C-106.722 480.731 -90.5503 485.825 -74.0383 490.04L141.139 -352.931C155.483 -349.269 169.534 -344.844 183.236 -339.701L-122.492 474.812ZM-395.988 -0.162279L-397.378 8.52506L461.698 145.959L463.088 137.271L-395.988 -0.162279ZM450.623 196.043L453.022 187.595L-383.904 -50.0073L-386.303 -41.5593L450.623 196.043ZM-58.6874 493.682C-42.1036 497.322 -25.2563 500.068 -8.21702 501.885L83.9981 -363.215C98.7771 -361.639 113.401 -359.256 127.805 -356.095L-58.6874 493.682ZM-397.07 63.4891L-397.187 72.1541L472.735 83.8459L472.851 75.1809L-397.07 63.4891ZM469.001 135.167L470.138 126.594L-392.317 12.2598L-393.453 20.8331L469.001 135.167ZM7.12119 503.264C18.4428 504.093 29.8086 504.51 41.1964 504.51V-365.49C51.0465 -365.49 60.8877 -365.129 70.7 -364.41L7.12119 503.264ZM41.1964 504.51C46.7421 504.51 52.281 504.411 57.8105 504.214L26.8191 -365.234C31.6064 -365.404 36.3996 -365.49 41.1964 -365.49V504.51ZM-388.912 126.657L-387.784 135.167L474.67 20.8333L473.542 12.3236L-388.912 126.657ZM478.404 72.1541L478.289 63.5918L-391.633 75.2835L-391.518 83.8459L478.404 72.1541ZM72.9563 503.427C90.2028 502.25 107.301 500.119 124.177 497.065L-30.734 -359.032C-16.0812 -361.684 -1.24743 -363.532 13.6994 -364.552L72.9563 503.427ZM-371.742 187.818L-369.406 196.043L467.52 -41.5592L465.184 -49.7846L-371.742 187.818ZM478.595 8.52495L477.248 0.104025L-381.829 137.538L-380.481 145.959L478.595 8.52495ZM139.184 494.094C156.271 490.419 173.036 485.806 189.41 480.311L-87.398 -344.478C-73.1707 -349.253 -58.6058 -353.26 -43.7653 -356.452L139.184 494.094ZM-346.08 245.532L-342.581 253.356L451.592 -101.875L448.093 -109.699L-346.08 245.532ZM469.647 -54.1942L467.093 -62.3531L-363.189 197.516L-360.635 205.675L469.647 -54.1942ZM203.838 475.203C220.135 469.131 235.987 462.184 251.332 454.427L-141.194 -321.991C-127.865 -328.729 -114.094 -334.764 -99.9333 -340.041L203.838 475.203ZM-312.698 298.538L-308.082 305.845L427.451 -158.796L422.836 -166.103L-312.698 298.538ZM451.923 -114.556L448.195 -122.33L-336.281 253.831L-332.553 261.605L451.923 -114.556ZM264.842 447.316C279.892 439.077 294.415 430.045 308.356 420.282L-190.713 -292.341C-178.609 -300.817 -165.999 -308.659 -152.928 -315.815L264.842 447.316ZM-272.537 345.797L-266.867 352.464L395.851 -211.189L390.181 -217.856L-272.537 345.797ZM426.03 -171.262L421.174 -178.519L-301.902 305.279L-297.046 312.537L426.03 -171.262ZM320.712 411.323C334.224 401.185 347.158 390.331 359.461 378.814L-235.079 -256.341C-224.398 -266.339 -213.169 -275.762 -201.44 -284.563L320.712 411.323ZM-226.646 386.502L-220.003 392.402L357.672 -258.13L351.029 -264.029L-226.646 386.502ZM392.758 -223.206L386.841 -229.808L-261.006 350.876L-255.089 357.478L392.758 -223.206ZM370.478 368.156C382.271 356.366 393.444 343.928 403.942 330.89L-273.706 -214.723C-264.586 -226.05 -254.882 -236.851 -244.644 -247.088L370.478 368.156ZM-176.11 420.069L-168.601 425.074L313.856 -298.898L306.347 -303.903L-176.11 420.069ZM353.011 -269.494L346.125 -275.299L-214.641 389.863L-207.755 395.669L353.011 -269.494ZM413.447 318.675C423.382 305.458 432.655 291.658 441.202 277.321L-306.091 -168.16C-298.658 -180.63 -290.597 -192.626 -281.964 -204.111L413.447 318.675ZM-122.006 446.105L-113.763 450.096L265.359 -332.953L257.116 -336.944L-122.006 446.105ZM307.744 -309.431L300.009 -314.307L-163.884 421.698L-156.148 426.574L307.744 -309.431ZM449.001 263.722C456.946 249.312 464.172 234.397 470.617 219.028L-331.69 -117.428C-326.078 -130.812 -319.788 -143.793 -312.876 -156.33L449.001 263.722ZM-65.3703 464.375L-56.5507 467.251L213.117 -359.901L204.297 -362.776L-65.3703 464.375ZM257.921 -342.501L249.482 -346.327L-109.795 446.024L-101.355 449.851L257.921 -342.501ZM476.502 204.294C482.32 188.975 487.361 173.263 491.572 157.215L-349.942 -63.5881C-346.274 -77.568 -341.883 -91.2547 -336.816 -104.597L476.502 204.294ZM-7.18858 474.763L2.03141 476.443L158.038 -379.455L148.818 -381.136L-7.18858 474.763ZM204.486 -368.323L195.51 -371.004L-53.3927 462.632L-44.4167 465.312L204.486 -368.323ZM495.357 141.709C498.937 125.868 501.703 109.772 503.618 93.4847L-360.432 -8.09341C-358.766 -22.2672 -356.358 -36.2819 -353.24 -50.081L495.357 141.709ZM51.6082 477.236L61.0346 477.67L101.004 -391.412L91.5772 -391.845L51.6082 477.236ZM148.353 -386.628L139.029 -388.089L4.36237 471.426L13.6858 472.886L148.353 -386.628ZM505.201 77.6972C506.265 64.8917 506.8 52.0279 506.8 39.138H-363.2C-363.2 27.9523 -362.735 16.7763 -361.81 5.63955L505.201 77.6972ZM506.8 39.138C506.8 36.0022 506.769 32.8748 506.706 29.7564L-363.118 47.2805C-363.172 44.5741 -363.2 41.8598 -363.2 39.138H506.8ZM110.129 471.826L119.552 470.992L42.8818 -395.623L33.459 -394.789L110.129 471.826ZM90.4096 -397.218L80.9485 -397.418L62.5632 472.388L72.0244 472.588L90.4096 -397.218ZM506.122 14.0091C505.246 -2.19256 503.527 -18.2762 500.99 -34.1793L-358.145 102.881C-360.354 89.0347 -361.849 75.0422 -362.61 60.9606L506.122 14.0091ZM167.499 458.608L176.701 456.524L-15.4517 -391.99L-24.6537 -389.907L167.499 458.608ZM31.5379 -399.955L22.1555 -398.889L120.329 465.554L129.711 464.489L31.5379 -399.955ZM498.197 -49.939C495.046 -66.0984 491.056 -81.9849 486.276 -97.5393L-345.329 158.067C-349.494 144.516 -352.968 130.678 -355.713 116.604L498.197 -49.939ZM222.818 437.715L231.598 434.432L-73.0917 -380.47L-81.8712 -377.187L222.818 437.715ZM-27.3704 -394.749L-36.4704 -392.448L176.776 451.012L185.876 448.711L-27.3704 -394.749ZM481.303 -112.776C475.898 -128.42 469.697 -143.662 462.758 -158.45L-324.848 211.113C-330.889 198.24 -336.289 184.967 -340.997 171.34L481.303 -112.776ZM275.168 409.347L283.343 404.946L-129.084 -361.086L-137.258 -356.684L275.168 409.347ZM-85.3895 -381.57L-94.018 -378.095L231.02 428.906L239.648 425.431L-85.3895 -381.57ZM455.754 -172.737C448.211 -187.478 439.929 -201.723 430.969 -215.427L-297.194 260.681C-304.984 248.767 -312.188 236.376 -318.752 223.548L455.754 -172.737ZM323.6 373.802L331.007 368.387L-182.417 -333.963L-189.824 -328.548L323.6 373.802ZM-141.544 -360.463L-149.528 -355.9L282.149 399.451L290.134 394.888L-141.544 -360.463ZM422.132 -228.456C412.602 -242.007 402.39 -254.991 391.552 -267.366L-262.944 305.814C-272.356 295.066 -281.229 283.785 -289.511 272.008L422.132 -228.456ZM367.134 331.504L373.635 325.2L-232.025 -299.361L-238.526 -293.057L367.134 331.504ZM-194.799 -331.579L-201.989 -326.036L329.219 362.962L336.409 357.418L-194.799 -331.579ZM381.077 -278.931C369.715 -291.059 357.716 -302.567 345.131 -313.406L-222.639 345.788C-233.563 336.379 -243.981 326.388 -253.846 315.857L381.077 -278.931ZM404.782 283.04L410.262 275.985L-276.808 -257.714L-282.289 -250.658L404.782 283.04ZM-244.072 -295.215L-250.34 -288.814L371.259 319.886L377.526 313.485L-244.072 -295.215ZM333.198 -323.342C320.155 -333.84 306.519 -343.656 292.342 -352.734L-176.808 379.931C-189.118 372.049 -200.956 363.527 -212.28 354.414L333.198 -323.342ZM435.577 229.2L439.952 221.535L-315.67 -209.668L-320.044 -202.003L435.577 229.2ZM-288.249 -251.85L-293.493 -244.721L407.286 270.845L412.531 263.716L-288.249 -251.85ZM279.125 -360.89C264.593 -369.525 249.527 -377.408 233.982 -384.476L-126.123 407.499C-139.627 401.359 -152.713 394.512 -165.332 387.013L279.125 -360.89ZM458.643 170.986L461.849 162.85L-347.578 -156.099L-350.784 -147.963L458.643 170.986ZM-326.234 -202.179L-330.378 -194.451L436.361 216.659L440.505 208.931L-326.234 -202.179ZM219.69 -390.688C203.962 -397.214 187.792 -402.911 171.244 -407.721L-71.6148 427.695C-85.9918 423.515 -100.041 418.565 -113.706 412.896L219.69 -390.688ZM473.253 109.611L475.247 101.137L-371.63 -98.1116L-373.624 -89.6374L473.253 109.611ZM-357.006 -147.133L-359.989 -138.929L457.64 158.363L460.623 150.158L-357.006 -147.133ZM156.168 -411.831C139.685 -416.028 122.9 -419.34 105.884 -421.725L-14.856 439.856C-29.6228 437.787 -44.1977 434.911 -58.5174 431.265L156.168 -411.831ZM478.904 46.4605L479.653 37.7748L-387.126 -37.0147L-387.876 -28.329L478.904 46.4605ZM-379.691 -87.8692L-381.464 -79.3095L470.444 97.1889L472.218 88.6292L-379.691 -87.8692ZM90.4264 -423.628C74.1129 -425.36 57.6806 -426.234 41.1964 -426.234V443.766C26.9378 443.766 12.7034 443.01 -1.44605 441.507L90.4264 -423.628ZM41.1964 -426.234C40.8581 -426.234 40.5197 -426.234 40.1812 -426.233L42.075 443.765C41.782 443.766 41.4891 443.766 41.1964 443.766V-426.234ZM41.1964 501.51C293.686 501.51 503.8 297.488 503.8 39.138H-366.2C-366.2 -189.02 -180.759 -368.49 41.1964 -368.49V501.51ZM-421.408 39.138C-421.408 297.488 -211.293 501.51 41.1964 501.51V-368.49C263.152 -368.49 448.592 -189.02 448.592 39.138H-421.408ZM41.1964 -423.234C-211.293 -423.234 -421.408 -219.212 -421.408 39.138H448.592C448.592 267.296 263.152 446.766 41.1964 446.766V-423.234ZM503.8 39.138C503.8 -219.212 293.686 -423.234 41.1964 -423.234V446.766C-180.759 446.766 -366.2 267.296 -366.2 39.138H503.8Z" fill="#8E744B" mask="url(#path-2-inside-1_26_27)"/>
<path fill-rule="evenodd" clip-rule="evenodd" d="M43.8886 34.507C43.9196 34.6587 43.8724 34.8159 43.7629 34.9254L40.7925 37.8958C40.786 37.9023 40.7771 37.906 40.7678 37.906C40.7485 37.906 40.7328 37.8904 40.7328 37.871V33.943C40.7328 33.7564 40.8368 33.5853 41.0024 33.4993L41.152 33.4216L42.8379 32.5464C43.1325 32.3934 43.4916 32.5648 43.5581 32.89L43.8886 34.507ZM39.4632 33.0233C39.6289 33.1093 39.7328 33.2804 39.7328 33.467V35.749C39.7328 36.1944 39.1943 36.4175 38.8793 36.1025L37.3324 34.5556C37.2136 34.4369 37.1624 34.2665 37.1961 34.1019L37.4803 32.7114C37.5468 32.3861 37.9059 32.2148 38.2005 32.3678L39.4632 33.0233ZM40.7328 31.6896C40.7328 32.0646 41.1304 32.3061 41.4632 32.1333L42.8822 31.3966C43.0805 31.2937 43.1864 31.0716 43.1417 30.8527L41.7227 23.9102C41.602 23.3197 40.7328 23.4076 40.7328 24.0103V31.6896ZM38.743 26.5337C38.8636 25.9433 39.7328 26.0312 39.7328 26.6339V31.2136C39.7328 31.5886 39.3353 31.8301 39.0024 31.6573L38.1562 31.218C37.9579 31.115 37.852 30.893 37.8967 30.6741L38.743 26.5337ZM39.7328 16.6464C39.7328 16.6801 39.7294 16.7136 39.7227 16.7466L37.0309 29.9162C36.9644 30.2415 36.6053 30.4128 36.3107 30.2599L29.5701 26.7604C29.5247 26.7368 29.4831 26.7064 29.4469 26.6702L29.026 26.2492C28.9673 26.1905 28.8721 26.1905 28.8134 26.2492C28.7671 26.2956 28.696 26.3066 28.6378 26.2764L28.4521 26.1799C28.0741 25.9837 27.6678 26.39 27.864 26.768L28.0299 27.0875L31.8907 34.5239C32.0436 34.8186 31.8723 35.1777 31.547 35.2442L18.5734 37.8959C18.5404 37.9026 18.5069 37.906 18.4732 37.906H16.8347C16.7164 37.906 16.6205 38.0019 16.6205 38.1202C16.6205 38.222 16.5489 38.3097 16.4492 38.3301L16.3553 38.3493C16.0017 38.4215 16.0017 38.9268 16.3553 38.999L17.2626 39.1845L31.8596 42.168C32.1849 42.2345 32.3562 42.5936 32.2033 42.8883L28.3502 50.3098C28.33 50.3488 28.3039 50.3844 28.2728 50.4155L28.0335 50.6548C27.9982 50.6901 27.9982 50.7474 28.0335 50.7827C28.0614 50.8106 28.068 50.8534 28.0498 50.8884L28.0299 50.9268L27.957 51.0672C27.732 51.5006 28.1978 51.9664 28.6311 51.7414L28.7716 51.6685L36.4337 47.6905C36.7284 47.5376 37.0875 47.7089 37.154 48.0342L39.7227 60.6017C39.7294 60.6347 39.7328 60.6682 39.7328 60.7018V61.929C39.7328 62.0185 39.8054 62.091 39.8948 62.091C39.9718 62.091 40.0382 62.1451 40.0536 62.2206L40.0948 62.4225C40.1852 62.8645 40.8167 62.8645 40.907 62.4225L41.0113 61.9125L43.8844 47.8555C43.9509 47.5303 44.31 47.3589 44.6047 47.5119L52.6109 51.6685L53.3621 52.0585C53.6067 52.1854 53.8695 51.9226 53.7426 51.678L53.7333 51.6601C53.6821 51.5616 53.7007 51.4412 53.7793 51.3627C53.8787 51.2632 53.8787 51.102 53.7793 51.0025L53.0282 50.2515C52.992 50.2153 52.9616 50.1737 52.938 50.1283L49.1427 42.8179C48.9898 42.5233 49.1611 42.1642 49.4863 42.0977L63.7393 39.1845L65.083 38.9098C65.0954 38.9073 65.108 38.906 65.1207 38.906H65.2854C65.2983 38.906 65.3087 38.8956 65.3087 38.8827C65.3087 38.8717 65.3165 38.8621 65.3273 38.8599L65.4413 38.8366C65.6181 38.8005 65.6181 38.5478 65.4413 38.5117C65.3641 38.4959 65.3087 38.428 65.3087 38.3492V38.2246C65.3087 38.0486 65.1661 37.906 64.9901 37.906H62.5286C62.495 37.906 62.4615 37.9026 62.4285 37.8959L49.7989 35.3145C49.4737 35.248 49.3023 34.8889 49.4553 34.5943L53.3526 27.0875L53.5414 26.7237C53.7306 26.3594 53.339 25.9678 52.9747 26.1569L52.7842 26.2558C52.735 26.2814 52.6748 26.2721 52.6355 26.2329C52.5858 26.1831 52.5052 26.1831 52.4555 26.2329L52.1073 26.581C52.0711 26.6172 52.0296 26.6476 51.9842 26.6712L44.7277 30.4385C44.4331 30.5915 44.074 30.4201 44.0075 30.0949L41.0113 15.4358L40.8259 14.5287C40.7536 14.175 40.2483 14.175 40.176 14.5287L40.1568 14.6226C40.1364 14.7223 40.0487 14.7939 39.947 14.7939C39.8287 14.7939 39.7328 14.8898 39.7328 15.0081V16.6464ZM40.7328 53.338C40.7328 53.9407 41.602 54.0286 41.7227 53.4381L43.0186 47.0976C43.0634 46.8787 42.9575 46.6567 42.7592 46.5538L41.4632 45.881C41.1304 45.7082 40.7328 45.9497 40.7328 46.3247V53.338ZM40.7328 44.0712C40.7328 44.2579 40.8368 44.429 41.0024 44.515L41.152 44.5927L42.7148 45.404C43.0094 45.557 43.3686 45.3856 43.435 45.0604L43.8886 42.8413C43.922 42.6779 43.8711 42.5086 43.7532 42.3906L41.5864 40.2238C41.2714 39.9088 40.7328 40.1319 40.7328 40.5774V44.0712ZM38.8793 41.2233C39.1943 40.9083 39.7328 41.1314 39.7328 41.5768V44.5472C39.7328 44.7339 39.6289 44.905 39.4632 44.991L38.3236 45.5826C38.029 45.7356 37.6698 45.5642 37.6034 45.239L37.1922 43.2276C37.1586 43.0631 37.2098 42.8927 37.3286 42.774L38.8793 41.2233ZM39.6978 38.906C39.7172 38.906 39.7328 38.9217 39.7328 38.941C39.7328 38.9503 39.7291 38.9592 39.7226 38.9657L36.7522 41.9361C36.6427 42.0456 36.4855 42.0928 36.3338 42.0618L34.6548 41.7186C34.3295 41.6522 34.1582 41.293 34.3112 40.9984L35.1057 39.4679L35.3324 39.0314C35.3403 39.0162 35.3403 38.9981 35.3324 38.9829C35.3142 38.9479 35.3396 38.906 35.3791 38.906H39.6978ZM39.0024 46.3569C39.3353 46.1841 39.7328 46.4257 39.7328 46.8007V50.7144C39.7328 51.3171 38.8636 51.405 38.743 50.8146L38.0198 47.2763C37.975 47.0574 38.0809 46.8354 38.2792 46.7324L39.0024 46.3569ZM36.3338 35.2865C36.4972 35.2531 36.6665 35.3039 36.7845 35.4219L38.415 37.0525C38.73 37.3675 38.5069 37.906 38.0615 37.906H35.0771C34.8904 37.906 34.7193 37.8021 34.6333 37.6364L33.9986 36.4138C33.8456 36.1192 34.017 35.76 34.3422 35.6936L36.3338 35.2865ZM32.3049 36.11C32.5238 36.0652 32.7459 36.1711 32.8488 36.3694L33.2674 37.1756C33.4402 37.5085 33.1986 37.906 32.8236 37.906H28.4607C27.858 37.906 27.7701 37.0368 28.3605 36.9162L32.3049 36.11ZM34.194 38.9606C34.1766 38.9271 34.142 38.906 34.1043 38.906H25.8371C25.2344 38.906 25.1465 39.7752 25.7369 39.8959L32.6175 41.3022C32.8364 41.347 33.0584 41.241 33.1614 41.0427L34.194 39.0537C34.2092 39.0245 34.2092 38.9898 34.194 38.9606ZM48.4972 36.4398C48.6001 36.2415 48.8221 36.1355 49.0411 36.1803L52.6414 36.9162C53.2318 37.0368 53.1439 37.906 52.5412 37.906H48.5589C48.1839 37.906 47.9423 37.5085 48.1151 37.1756L48.4972 36.4398ZM46.0501 39.0314C46.0422 39.0162 46.0422 38.9981 46.0501 38.9829C46.0683 38.9479 46.0429 38.906 46.0034 38.906H42.8899C42.4445 38.906 42.2214 39.4446 42.5364 39.7596L44.6195 41.8427C44.7382 41.9614 44.9086 42.0127 45.0731 41.979L46.6912 41.6483C47.0164 41.5818 47.1878 41.2227 47.0348 40.9281L46.2768 39.4679L46.0501 39.0314ZM43.0501 37.0525C42.7351 37.3675 42.9582 37.906 43.4036 37.906H46.3054C46.4921 37.906 46.6632 37.8021 46.7492 37.6364L47.3474 36.4841C47.5004 36.1895 47.329 35.8304 47.0038 35.7639L45.0544 35.3655C44.8899 35.3318 44.7195 35.383 44.6008 35.5018L43.0501 37.0525ZM55.2649 39.8959C55.8554 39.7752 55.7674 38.906 55.1648 38.906H47.2782C47.2405 38.906 47.2059 38.9271 47.1885 38.9606C47.1733 38.9898 47.1733 39.0245 47.1885 39.0537L48.1846 40.9724C48.2875 41.1707 48.5096 41.2766 48.7285 41.2319L55.2649 39.8959ZM35.6375 32.8607C35.9192 33.1424 36.4011 32.9976 36.4809 32.6073L36.6145 31.9535C36.6593 31.7346 36.5533 31.5126 36.355 31.4096L34.7175 30.5595C34.2102 30.2961 33.7294 30.9526 34.1335 31.3568L35.6375 32.8607ZM32.2083 30.8457C31.8041 30.4416 31.1476 30.9224 31.411 31.4297L33.0404 34.5683C33.1434 34.7666 33.3654 34.8725 33.5843 34.8278L34.8374 34.5717C35.2277 34.4919 35.3725 34.01 35.0908 33.7282L32.2083 30.8457ZM48.3416 45.5649C48.7458 45.969 49.4023 45.4882 49.1389 44.9809L47.9929 42.7736C47.89 42.5753 47.668 42.4693 47.4491 42.5141L46.5678 42.6942C46.1775 42.774 46.0327 43.2559 46.3144 43.5376L48.3416 45.5649ZM44.6034 44.3377C44.6832 43.9474 45.1651 43.8026 45.4468 44.0843L48.8526 47.4901C49.2568 47.8943 48.776 48.5508 48.2687 48.2874L44.5603 46.3621C44.362 46.2592 44.2561 46.0371 44.3008 45.8182L44.6034 44.3377ZM33.353 42.8439C33.456 42.6456 33.678 42.5397 33.8969 42.5844L34.8187 42.7728C35.209 42.8526 35.3538 43.3345 35.0721 43.6162L32.9517 45.7366C32.5475 46.1408 31.891 45.66 32.1544 45.1527L33.353 42.8439ZM36.4771 44.7223C36.3973 44.332 35.9154 44.1872 35.6336 44.4689L32.7016 47.4009C32.2975 47.8051 32.7783 48.4616 33.2856 48.1982L36.4781 46.5408C36.6764 46.4378 36.7823 46.2158 36.7376 45.9969L36.4771 44.7223ZM44.4239 32.1321C44.3791 31.9132 44.4851 31.6912 44.6834 31.5883L46.8368 30.4703C47.3441 30.2069 47.8249 30.8634 47.4207 31.2676L45.443 33.2453C45.1613 33.527 44.6794 33.3822 44.5996 32.9919L44.4239 32.1321ZM46.5491 34.6503C46.1588 34.5705 46.014 34.0886 46.2957 33.8069L49.085 31.0175C49.4892 30.6133 50.1457 31.0942 49.8823 31.6015L48.3055 34.6386C48.2026 34.8369 47.9806 34.9429 47.7616 34.8981L46.5491 34.6503Z" fill="white"/>
</svg>
