<svg width="179" height="172" viewBox="0 0 179 172" fill="none" xmlns="http://www.w3.org/2000/svg">
<path d="M122.541 85.6849C122.541 103.98 107.452 118.825 88.8211 118.825C70.1898 118.825 55.1008 103.98 55.1008 85.6849C55.1008 67.3901 70.1898 52.5447 88.8211 52.5447C107.452 52.5447 122.541 67.3901 122.541 85.6849Z" stroke="#8E744B"/>
<mask id="path-2-inside-1_28_4" fill="white">
<path fill-rule="evenodd" clip-rule="evenodd" d="M90.6451 19.3199L89.5 0L88.3523 19.3629C85.8685 19.4507 83.4188 19.6717 81.0104 20.0191L77.0364 0.837524L78.7234 20.3889C76.3102 20.8217 73.9416 21.3818 71.6251 22.0621L64.8154 3.33381L69.3864 22.7621C67.0997 23.5212 64.8676 24.3985 62.6974 25.3867L53.0749 7.44025L60.5501 26.4107C58.4373 27.4644 56.388 28.625 54.4094 29.8854L42.0433 13.0769L52.3963 31.219C50.4938 32.5287 48.6625 33.9331 46.9093 35.4252L31.9354 20.1342L45.0726 37.0466C43.4065 38.572 41.8179 40.1797 40.3136 41.8632L22.948 28.4745L38.6941 43.7441C37.2822 45.4463 35.9534 47.2189 34.7137 49.0557L15.2559 37.9357L33.349 51.162C32.2037 53.0044 31.1458 54.9061 30.1812 56.8613L9.0089 48.3336L29.1044 59.1529C28.2339 61.1014 27.4543 63.0988 26.7711 65.1398L4.32855 59.4658L26.0088 67.572C25.4176 69.5942 24.9199 71.6559 24.5207 73.7521L1.30598 71.1156L24.0905 76.2754C23.7793 78.3411 23.5631 80.4378 23.4466 82.5607L0 83.0563L23.3549 85.1226C23.3486 85.5007 23.3454 85.8796 23.3454 86.2592C23.3454 88.0008 23.4124 89.7268 23.544 91.4349L0.436035 95.0555L23.7894 93.9814C24.0348 96.1016 24.38 98.1916 24.8202 100.247L2.6056 106.879L25.4011 102.725C25.9325 104.81 26.5625 106.856 27.286 108.858L6.46646 118.298L28.1893 111.216C29.0076 113.236 29.9223 115.207 30.9277 117.124L11.9435 129.09L32.1303 119.316C33.2323 121.238 34.4274 123.1 35.7095 124.897L18.93 139.043L37.1806 126.881C38.5588 128.67 40.026 130.388 41.5754 132.029L27.2902 147.966L43.2787 133.768C44.921 135.386 46.6467 136.92 48.4489 138.365L36.8612 155.684L50.3449 139.83C52.2319 141.236 54.1957 142.545 56.2288 143.752L47.4567 162.046L58.276 144.919C60.379 146.07 62.5505 147.112 64.783 148.039L58.8705 166.929L66.9391 148.891C69.2176 149.746 71.555 150.483 73.9436 151.092L70.8806 170.239L76.1665 151.62C78.5686 152.147 81.0188 152.547 83.5097 152.813L83.253 171.91L85.7579 153.015C87.4211 153.137 89.1012 153.199 90.7958 153.199C91.621 153.199 92.4427 153.184 93.2607 153.155L95.747 171.91L95.4934 153.039C98.0276 152.866 100.523 152.554 102.973 152.111L108.119 170.239L105.15 151.68C107.626 151.147 110.05 150.48 112.416 149.686L120.129 166.929L114.501 148.948C116.856 148.07 119.149 147.066 121.371 145.942L131.543 162.046L123.328 144.912C125.509 143.718 127.616 142.408 129.641 140.99L142.139 155.684L131.437 139.688C133.4 138.215 135.28 136.637 137.068 134.964L151.71 147.966L138.668 133.416C140.38 131.704 142 129.9 143.519 128.014L160.07 139.043L144.893 126.248C146.328 124.339 147.663 122.352 148.889 120.294L167.057 129.09L150.008 118.344C151.146 116.28 152.177 114.15 153.095 111.961L172.534 118.298L153.933 109.864C154.76 107.686 155.476 105.455 156.074 103.176L176.394 106.879L156.612 100.973C157.12 98.7226 157.514 96.4295 157.788 94.1L178.564 95.0555L158.015 91.836C158.168 89.9971 158.246 88.1372 158.246 86.2592C158.246 85.8029 158.242 85.3477 158.232 84.8936L179 83.0563L158.148 82.6156C158.022 80.2793 157.775 77.9749 157.413 75.7084L177.694 71.1156L157.015 73.4641C156.567 71.1655 156 68.9089 155.322 66.7007L174.671 59.4658L154.615 64.5365C153.847 62.3138 152.965 60.1438 151.975 58.0336L169.991 48.3336L150.974 55.9931C149.896 53.8853 148.708 51.8418 147.419 49.8698L163.744 37.9357L146.146 47.9931C144.772 46.0394 143.296 44.162 141.725 42.3683L156.052 28.4745L140.206 40.6916C138.557 38.9318 136.815 37.2602 134.985 35.6847L147.065 20.1342L133.251 34.2405C131.355 32.7146 129.374 31.2887 127.316 29.9709L136.957 13.0769L125.398 28.7876C123.291 27.535 121.108 26.3935 118.86 25.371L125.925 7.44025L116.793 24.4726C114.519 23.5293 112.182 22.706 109.79 22.0107L114.185 3.33381L107.61 21.4163C105.226 20.8091 102.79 20.3281 100.312 19.9808L101.964 0.837524L98.0551 19.7029C95.6703 19.4497 93.2483 19.3198 90.7958 19.3198C90.7456 19.3198 90.6954 19.3198 90.6451 19.3199ZM151.694 65.275C142.943 40.2789 118.996 22.3198 90.7958 22.3198C55.1793 22.3198 26.3454 50.9679 26.3454 86.2592C26.3454 121.55 55.1793 150.199 90.7958 150.199C111.101 150.199 129.201 140.888 141.011 126.343L140.983 126.324C141.517 125.65 142.038 124.965 142.546 124.269L142.595 124.311C143.875 122.598 145.072 120.819 146.178 118.981L146.057 118.923C146.497 118.177 146.921 117.421 147.331 116.657L147.464 116.741C148.478 114.89 149.402 112.983 150.231 111.027L150.034 110.963C150.368 110.16 150.687 109.349 150.989 108.53L151.194 108.622C151.928 106.67 152.57 104.673 153.112 102.636L152.864 102.59C153.086 101.746 153.291 100.895 153.48 100.038L153.729 100.112C154.178 98.096 154.531 96.0442 154.783 93.9618L154.519 93.9496C154.625 93.0815 154.713 92.2081 154.785 91.3298L155.043 91.3703C155.178 89.6841 155.246 87.9795 155.246 86.2592C155.246 85.8916 155.243 85.5248 155.237 85.1587L154.995 85.1801C154.984 84.2981 154.956 83.4203 154.91 82.5471L155.14 82.552C155.019 80.4639 154.798 78.4025 154.48 76.3726L154.298 76.4138C154.17 75.5443 154.024 74.6803 153.861 73.8223L154.024 73.8038C153.615 71.7502 153.107 69.7318 152.505 67.7538L152.414 67.7878C152.17 66.9484 151.909 66.1159 151.631 65.2909L151.694 65.275Z"/>
</mask>
<path fill-rule="evenodd" clip-rule="evenodd" d="M90.6451 19.3199L89.5 0L88.3523 19.3629C85.8685 19.4507 83.4188 19.6717 81.0104 20.0191L77.0364 0.837524L78.7234 20.3889C76.3102 20.8217 73.9416 21.3818 71.6251 22.0621L64.8154 3.33381L69.3864 22.7621C67.0997 23.5212 64.8676 24.3985 62.6974 25.3867L53.0749 7.44025L60.5501 26.4107C58.4373 27.4644 56.388 28.625 54.4094 29.8854L42.0433 13.0769L52.3963 31.219C50.4938 32.5287 48.6625 33.9331 46.9093 35.4252L31.9354 20.1342L45.0726 37.0466C43.4065 38.572 41.8179 40.1797 40.3136 41.8632L22.948 28.4745L38.6941 43.7441C37.2822 45.4463 35.9534 47.2189 34.7137 49.0557L15.2559 37.9357L33.349 51.162C32.2037 53.0044 31.1458 54.9061 30.1812 56.8613L9.0089 48.3336L29.1044 59.1529C28.2339 61.1014 27.4543 63.0988 26.7711 65.1398L4.32855 59.4658L26.0088 67.572C25.4176 69.5942 24.9199 71.6559 24.5207 73.7521L1.30598 71.1156L24.0905 76.2754C23.7793 78.3411 23.5631 80.4378 23.4466 82.5607L0 83.0563L23.3549 85.1226C23.3486 85.5007 23.3454 85.8796 23.3454 86.2592C23.3454 88.0008 23.4124 89.7268 23.544 91.4349L0.436035 95.0555L23.7894 93.9814C24.0348 96.1016 24.38 98.1916 24.8202 100.247L2.6056 106.879L25.4011 102.725C25.9325 104.81 26.5625 106.856 27.286 108.858L6.46646 118.298L28.1893 111.216C29.0076 113.236 29.9223 115.207 30.9277 117.124L11.9435 129.09L32.1303 119.316C33.2323 121.238 34.4274 123.1 35.7095 124.897L18.93 139.043L37.1806 126.881C38.5588 128.67 40.026 130.388 41.5754 132.029L27.2902 147.966L43.2787 133.768C44.921 135.386 46.6467 136.92 48.4489 138.365L36.8612 155.684L50.3449 139.83C52.2319 141.236 54.1957 142.545 56.2288 143.752L47.4567 162.046L58.276 144.919C60.379 146.07 62.5505 147.112 64.783 148.039L58.8705 166.929L66.9391 148.891C69.2176 149.746 71.555 150.483 73.9436 151.092L70.8806 170.239L76.1665 151.62C78.5686 152.147 81.0188 152.547 83.5097 152.813L83.253 171.91L85.7579 153.015C87.4211 153.137 89.1012 153.199 90.7958 153.199C91.621 153.199 92.4427 153.184 93.2607 153.155L95.747 171.91L95.4934 153.039C98.0276 152.866 100.523 152.554 102.973 152.111L108.119 170.239L105.15 151.68C107.626 151.147 110.05 150.48 112.416 149.686L120.129 166.929L114.501 148.948C116.856 148.07 119.149 147.066 121.371 145.942L131.543 162.046L123.328 144.912C125.509 143.718 127.616 142.408 129.641 140.99L142.139 155.684L131.437 139.688C133.4 138.215 135.28 136.637 137.068 134.964L151.71 147.966L138.668 133.416C140.38 131.704 142 129.9 143.519 128.014L160.07 139.043L144.893 126.248C146.328 124.339 147.663 122.352 148.889 120.294L167.057 129.09L150.008 118.344C151.146 116.28 152.177 114.15 153.095 111.961L172.534 118.298L153.933 109.864C154.76 107.686 155.476 105.455 156.074 103.176L176.394 106.879L156.612 100.973C157.12 98.7226 157.514 96.4295 157.788 94.1L178.564 95.0555L158.015 91.836C158.168 89.9971 158.246 88.1372 158.246 86.2592C158.246 85.8029 158.242 85.3477 158.232 84.8936L179 83.0563L158.148 82.6156C158.022 80.2793 157.775 77.9749 157.413 75.7084L177.694 71.1156L157.015 73.4641C156.567 71.1655 156 68.9089 155.322 66.7007L174.671 59.4658L154.615 64.5365C153.847 62.3138 152.965 60.1438 151.975 58.0336L169.991 48.3336L150.974 55.9931C149.896 53.8853 148.708 51.8418 147.419 49.8698L163.744 37.9357L146.146 47.9931C144.772 46.0394 143.296 44.162 141.725 42.3683L156.052 28.4745L140.206 40.6916C138.557 38.9318 136.815 37.2602 134.985 35.6847L147.065 20.1342L133.251 34.2405C131.355 32.7146 129.374 31.2887 127.316 29.9709L136.957 13.0769L125.398 28.7876C123.291 27.535 121.108 26.3935 118.86 25.371L125.925 7.44025L116.793 24.4726C114.519 23.5293 112.182 22.706 109.79 22.0107L114.185 3.33381L107.61 21.4163C105.226 20.8091 102.79 20.3281 100.312 19.9808L101.964 0.837524L98.0551 19.7029C95.6703 19.4497 93.2483 19.3198 90.7958 19.3198C90.7456 19.3198 90.6954 19.3198 90.6451 19.3199ZM151.694 65.275C142.943 40.2789 118.996 22.3198 90.7958 22.3198C55.1793 22.3198 26.3454 50.9679 26.3454 86.2592C26.3454 121.55 55.1793 150.199 90.7958 150.199C111.101 150.199 129.201 140.888 141.011 126.343L140.983 126.324C141.517 125.65 142.038 124.965 142.546 124.269L142.595 124.311C143.875 122.598 145.072 120.819 146.178 118.981L146.057 118.923C146.497 118.177 146.921 117.421 147.331 116.657L147.464 116.741C148.478 114.89 149.402 112.983 150.231 111.027L150.034 110.963C150.368 110.16 150.687 109.349 150.989 108.53L151.194 108.622C151.928 106.67 152.57 104.673 153.112 102.636L152.864 102.59C153.086 101.746 153.291 100.895 153.48 100.038L153.729 100.112C154.178 98.096 154.531 96.0442 154.783 93.9618L154.519 93.9496C154.625 93.0815 154.713 92.2081 154.785 91.3298L155.043 91.3703C155.178 89.6841 155.246 87.9795 155.246 86.2592C155.246 85.8916 155.243 85.5248 155.237 85.1587L154.995 85.1801C154.984 84.2981 154.956 83.4203 154.91 82.5471L155.14 82.552C155.019 80.4639 154.798 78.4025 154.48 76.3726L154.298 76.4138C154.17 75.5443 154.024 74.6803 153.861 73.8223L154.024 73.8038C153.615 71.7502 153.107 69.7318 152.505 67.7538L152.414 67.7878C152.17 66.9484 151.909 66.1159 151.631 65.2909L151.694 65.275Z" fill="#8E744B"/>
<path d="M90.6451 19.3199L-343.593 45.0585L-319.282 455.209L91.5872 454.319L90.6451 19.3199ZM89.5 0L523.738 -25.7385L-344.738 -25.7386L89.5 0ZM88.3523 19.3629L103.715 454.092L499.176 440.116L522.59 45.1015L88.3523 19.3629ZM81.0104 20.0191L-344.944 108.268L-261.925 508.981L143.107 450.564L81.0104 20.0191ZM77.0364 0.837524L502.991 -87.4114L-356.353 38.2323L77.0364 0.837524ZM78.7234 20.3889L155.505 448.559L546.238 378.491L512.113 -17.0058L78.7234 20.3889ZM71.6251 22.0621L-337.19 170.708L-197.641 554.504L194.193 439.437L71.6251 22.0621ZM64.8154 3.33381L473.63 -145.312L-358.623 102.958L64.8154 3.33381ZM69.3864 22.7621L206.426 435.612L583.916 310.309L492.825 -76.8619L69.3864 22.7621ZM62.6974 25.3867L-320.672 230.942L-128.035 590.219L242.973 421.273L62.6974 25.3867ZM53.0749 7.44025L436.444 -198.115L-351.638 166.915L53.0749 7.44025ZM60.5501 26.4107L254.689 415.686L611.396 237.79L465.263 -133.064L60.5501 26.4107ZM54.4094 29.8854L-295.98 287.668L-54.9364 615.306L288.123 396.768L54.4094 29.8854ZM42.0433 13.0769L392.433 -244.706L-335.767 228.679L42.0433 13.0769ZM52.3963 31.219L299.063 389.521L628.348 162.831L430.207 -184.383L52.3963 31.219ZM46.9093 35.4252L-263.89 339.775L19.929 629.608L328.847 366.69L46.9093 35.4252ZM31.9354 20.1342L342.734 -284.216L-311.6 286.984L31.9354 20.1342ZM45.0726 37.0466L338.815 357.89L634.695 87.003L388.608 -229.803L45.0726 37.0466ZM40.3136 41.8632L-225.291 386.362L95.1093 633.386L364.68 331.71L40.3136 41.8632ZM22.948 28.4745L288.552 -316.024L-279.882 340.755L22.948 28.4745ZM38.6941 43.7441L373.506 321.459L630.47 11.6655L341.524 -268.536L38.6941 43.7441ZM34.7137 49.0557L-181.125 426.731L169.422 627.066L395.283 292.397L34.7137 49.0557ZM15.2559 37.9357L231.095 -339.74L-241.456 389.111L15.2559 37.9357ZM33.349 51.162L402.786 280.817L615.819 -61.8809L290.061 -300.013L33.349 51.162ZM30.1812 56.8613L-132.338 460.362L241.822 611.063L420.288 249.323L30.1812 56.8613ZM9.0089 48.3336L171.528 -355.167L-197.204 431.349L9.0089 48.3336ZM29.1044 59.1529L426.268 236.597L591.091 -132.317L235.318 -323.863L29.1044 59.1529ZM26.7711 65.1398L-79.8522 486.87L311.224 585.743L439.273 203.225L26.7711 65.1398ZM4.32855 59.4658L110.952 -362.264L-148.016 466.917L4.32855 59.4658ZM26.0088 67.572L443.531 189.637L556.953 -198.321L178.353 -339.879L26.0088 67.572ZM24.5207 73.7521L-24.566 505.974L376.356 551.506L451.841 155.13L24.5207 73.7521ZM1.30598 71.1156L50.3927 -361.106L-94.7703 495.373L1.30598 71.1156ZM24.0905 76.2754L454.235 141.09L514.474 -258.688L120.167 -347.982L24.0905 76.2754ZM23.4466 82.5607L32.6393 517.464L435.705 508.944L457.793 106.394L23.4466 82.5607ZM0 83.0563L-9.19267 -351.847L-38.3352 516.364L0 83.0563ZM23.3549 85.1226L458.294 92.4197L465.087 -312.496L61.6902 -348.185L23.3549 85.1226ZM23.544 91.4349L90.8774 521.192L488.151 458.948L457.258 58.0163L23.544 91.4349ZM0.436035 95.0555L-66.8973 -334.702L20.4207 529.596L0.436035 95.0555ZM23.7894 93.9814L455.905 43.967L409.24 -359.205L3.80471 -340.559L23.7894 93.9814ZM24.8202 100.247L149.272 517.064L534.346 402.09L450.171 9.13222L24.8202 100.247ZM2.6056 106.879L-121.846 -309.938L80.609 534.829L2.6056 106.879ZM25.4011 102.725L446.927 -4.70361L346.692 -398.005L-52.6023 -325.225L25.4011 102.725ZM27.286 108.858L206.924 505.034L572.987 339.049L436.398 -38.9672L27.286 108.858ZM6.46646 118.298L-173.172 -277.877L141.3 531.874L6.46646 118.298ZM28.1893 111.216L431.361 -52.1169L279.042 -428.101L-106.645 -302.359L28.1893 111.216ZM30.9277 117.124L262.874 485.127L602.786 270.885L416.152 -84.9337L30.9277 117.124ZM11.9435 129.09L-220.003 -238.913L201.504 520.614L11.9435 129.09ZM32.1303 119.316L409.504 -97.0503L207.715 -448.998L-157.431 -272.209L32.1303 119.316ZM35.7095 124.897L316.093 457.479L622.849 198.868L389.822 -127.748L35.7095 124.897ZM18.93 139.043L-261.453 -193.538L260.159 501.029L18.93 139.043ZM37.1806 126.881L381.77 -138.605L133.908 -460.319L-204.048 -235.105L37.1806 126.881ZM41.5754 132.029L365.499 422.371L632.653 124.317L357.814 -166.666L41.5754 132.029ZM27.2902 147.966L-296.633 -142.376L316.128 473.232L27.2902 147.966ZM43.2787 133.768L348.556 -176.12L58.6906 -461.673L-245.559 -191.498L43.2787 133.768ZM48.4489 138.365L409.987 380.264L631.939 48.5389L320.493 -201.072L48.4489 138.365ZM36.8612 155.684L-324.677 -86.2158L368.22 437.51L36.8612 155.684ZM50.3449 139.83L310.201 -209.025L-16.8238 -452.62L-281.014 -141.997L50.3449 139.83ZM56.2288 143.752L448.467 331.832L620.604 -27.1558L278.227 -230.336L56.2288 143.752ZM47.4567 162.046L-344.781 -26.0346L415.223 394.367L47.4567 162.046ZM58.276 144.919L267.084 -236.689L-91.3053 -432.792L-309.491 -87.4016L58.276 144.919ZM64.783 148.039L479.924 277.974L598.637 -101.315L231.583 -253.71L64.783 148.039ZM58.8705 166.929L-356.27 36.995L455.957 344.545L58.8705 166.929ZM66.9391 148.891L219.802 -258.366L-163.137 -402.101L-330.147 -28.7245L66.9391 148.891ZM73.9436 151.092L503.482 219.809L566.195 -172.202L181.534 -270.392L73.9436 151.092ZM70.8806 170.239L-358.658 101.522L489.344 289.04L70.8806 170.239ZM76.1665 151.62L169.414 -273.268L-230.483 -361.031L-342.297 32.8188L76.1665 151.62ZM83.5097 152.813L518.47 158.658L523.798 -237.72L129.616 -279.737L83.5097 152.813ZM83.253 171.91L-351.708 166.064L514.48 229.076L83.253 171.91ZM85.7579 153.015L117.547 -280.822L-291.561 -310.799L-345.469 95.8481L85.7579 153.015ZM93.2607 153.155L524.488 95.9879L472.57 -295.643L77.7639 -281.569L93.2607 153.155ZM95.747 171.91L-335.48 229.077L530.708 166.064L95.747 171.91ZM95.4934 153.039L65.8633 -280.951L-345.002 -252.9L-339.467 158.885L95.4934 153.039ZM102.973 152.111L521.436 33.3095L413.7 -346.179L25.5186 -275.938L102.973 152.111ZM108.119 170.239L-310.344 289.04L537.658 101.522L108.119 170.239ZM105.15 151.68L13.6745 -273.594L-389.54 -186.862L-324.388 220.396L105.15 151.68ZM112.416 149.686L509.503 -27.9299L348.299 -388.326L-25.9898 -262.708L112.416 149.686ZM120.129 166.929L-276.957 344.545L535.27 36.995L120.129 166.929ZM114.501 148.948L-37.3847 -258.674L-423.821 -114.682L-300.64 278.882L114.501 148.948ZM121.371 145.942L489.137 -86.3781L277.97 -420.659L-74.8922 -242.266L121.371 145.942ZM131.543 162.046L-236.223 394.367L523.781 -26.0345L131.543 162.046ZM123.328 144.912L-85.5561 -236.654L-447.143 -38.7072L-268.91 332.993L123.328 144.912ZM129.641 140.99L461 -140.837L204.455 -442.471L-119.893 -215.321L129.641 140.99ZM142.139 155.684L-189.22 437.51L503.677 -86.2156L142.139 155.684ZM131.437 139.688L-129.641 -208.254L-459.267 39.0805L-230.102 381.587L131.437 139.688ZM137.068 134.964L425.905 -190.302L129.347 -453.647L-160.202 -182.614L137.068 134.964ZM151.71 147.966L-137.128 473.232L475.633 -142.376L151.71 147.966ZM138.668 133.416L-168.895 -174.205L-460.184 117.03L-185.256 423.758L138.668 133.416ZM143.519 128.014L384.747 -233.972L53.9745 -454.4L-195.307 -144.791L143.519 128.014ZM160.07 139.043L-81.1585 501.029L440.453 -193.538L160.07 139.043ZM144.893 126.248L-202.814 -135.143L-450.006 193.677L-135.49 458.83L144.893 126.248ZM148.889 120.294L338.45 -271.231L-20.533 -445.036L-224.758 -102.444L148.889 120.294ZM167.057 129.09L-22.5043 520.614L399.003 -238.913L167.057 129.09ZM150.008 118.344L-230.931 -91.6817L-429.012 267.592L-81.9384 486.347L150.008 118.344ZM153.095 111.961L287.929 -301.615L-93.0791 -425.831L-248.059 -56.266L153.095 111.961ZM172.534 118.298L37.6997 531.874L352.172 -277.877L172.534 118.298ZM153.933 109.864L-252.727 -44.5803L-397.773 337.333L-25.7057 506.04L153.933 109.864ZM156.074 103.176L234.077 -324.774L-162.403 -397.041L-264.684 -7.22332L156.074 103.176ZM176.394 106.879L98.3911 534.829L300.846 -309.938L176.394 106.879ZM156.612 100.973L-267.687 5.07937L-357.283 401.512L32.16 517.79L156.612 100.973ZM157.788 94.1L177.773 -340.441L-226.934 -359.053L-274.237 43.311L157.788 94.1ZM178.564 95.0555L158.579 529.596L245.897 -334.702L178.564 95.0555ZM158.015 91.836L-275.49 55.8097L-308.995 458.973L90.6821 521.593L158.015 91.836ZM158.232 84.8936L119.897 -348.414L-284.87 -312.604L-276.679 93.6623L158.232 84.8936ZM179 83.0563L217.335 516.364L188.193 -351.847L179 83.0563ZM158.148 82.6156L-276.218 106.092L-254.442 508.992L148.955 517.518L158.148 82.6156ZM157.413 75.7084L61.3369 -348.549L-336.404 -258.478L-272.154 144.241L157.413 75.7084ZM177.694 71.1156L273.77 495.373L128.607 -361.106L177.694 71.1156ZM157.015 73.4641L-269.94 156.736L-193.041 551.016L206.102 505.686L157.015 73.4641ZM155.322 66.7007L2.97694 -340.75L-380.886 -197.225L-260.48 194.505L155.322 66.7007ZM174.671 59.4658L327.016 466.917L68.048 -362.264L174.671 59.4658ZM154.615 64.5365L-256.535 206.595L-126.071 584.188L261.239 486.267L154.615 64.5365ZM151.975 58.0336L-54.2388 -324.982L-416.689 -129.841L-241.828 242.817L151.975 58.0336ZM169.991 48.3336L376.204 431.349L7.47212 -355.167L169.991 48.3336ZM150.974 55.9931L-236.279 254.135L-55.2195 608.001L313.493 459.494L150.974 55.9931ZM147.419 49.8698L-109.294 -301.305L-442.614 -57.6445L-216.662 287.926L147.419 49.8698ZM163.744 37.9357L420.456 389.111L-52.0946 -339.74L163.744 37.9357ZM146.146 47.9931L-209.675 298.226L18.1415 622.172L361.984 425.668L146.146 47.9931ZM141.725 42.3683L-161.105 -269.912L-457.92 17.9202L-185.522 328.96L141.725 42.3683ZM156.052 28.4745L458.882 340.755L-109.552 -316.024L156.052 28.4745ZM140.206 40.6916L-177.255 338.086L92.8842 626.453L405.81 385.19L140.206 40.6916ZM134.985 35.6847L-208.55 -231.165L-462.226 95.4113L-148.9 365.282L134.985 35.6847ZM147.065 20.1342L490.6 286.984L-163.734 -284.216L147.065 20.1342ZM133.251 34.2405L-139.488 373.119L167.943 620.548L444.05 338.591L133.251 34.2405ZM127.316 29.9709L-250.495 -185.631L-455.376 173.393L-107.259 396.304L127.316 29.9709ZM136.957 13.0769L514.767 228.679L-213.433 -244.706L136.957 13.0769ZM125.398 28.7876L-96.8296 402.739L242.128 604.171L475.788 286.571L125.398 28.7876ZM118.86 25.371L-285.854 -134.103L-437.337 250.329L-61.1929 421.358L118.86 25.371ZM125.925 7.44025L530.638 166.915L-257.444 -198.115L125.925 7.44025ZM116.793 24.4726L-49.9054 426.264L313.993 577.241L500.162 230.028L116.793 24.4726ZM109.79 22.0107L-313.648 -77.6134L-408.237 324.426L-11.6392 439.719L109.79 22.0107ZM114.185 3.33381L537.623 102.958L-294.63 -145.312L114.185 3.33381ZM107.61 21.4163L0.26723 442.964L381.866 540.134L516.424 170.062L107.61 21.4163ZM100.312 19.9808L-333.078 -17.414L-368.536 393.528L39.9415 450.771L100.312 19.9808ZM101.964 0.837524L535.353 38.2323L-323.991 -87.4114L101.964 0.837524ZM98.0551 19.7029L52.1188 452.271L444.051 493.892L524.009 107.952L98.0551 19.7029ZM151.694 65.275L258.329 487.003L719.409 370.418L562.261 -78.4603L151.694 65.275ZM141.011 126.343L478.705 400.547L780.035 29.4457L382.238 -235.645L141.011 126.343ZM140.983 126.324L-200.022 -143.751L-493.211 226.439L-100.243 488.311L140.983 126.324ZM142.546 124.269L422.927 -208.313L66.1525 -509.09L-208.874 -132.108L142.546 124.269ZM142.595 124.311L-137.787 456.894L214.846 754.178L491.003 384.766L142.595 124.311ZM146.178 118.981L518.926 343.221L764.479 -64.9551L335.745 -272.541L146.178 118.981ZM146.057 118.923L-228.827 -101.728L-468.132 304.85L-43.5103 510.444L146.057 118.923ZM147.331 116.657L379.275 -251.347L-15.6167 -500.239L-236.089 -88.8037L147.331 116.657ZM147.464 116.741L-84.4805 484.745L306.817 731.371L528.994 325.691L147.464 116.741ZM150.231 111.027L550.729 280.811L735.746 -155.62L285.063 -302.549L150.231 111.027ZM150.034 110.963L-251.557 -56.2185L-432.556 378.564L15.2024 524.539L150.034 110.963ZM150.989 108.53L330.623 -287.648L-95.0398 -480.651L-257.043 -42.2513L150.989 108.53ZM151.194 108.622L-28.4402 504.8L394.663 696.642L558.311 261.856L151.194 108.622ZM153.112 102.636L573.458 214.595L694.754 -240.807L231.113 -325.314L153.112 102.636ZM152.864 102.59L-267.809 -8.13076L-387.411 446.283L74.8624 530.54L152.864 102.59ZM153.48 100.038L277.939 -316.777L-170.687 -450.735L-271.347 6.51552L153.48 100.038ZM153.729 100.112L29.2699 516.927L476.802 650.558L578.328 194.669L153.729 100.112ZM154.783 93.9618L586.63 146.245L642.962 -319.043L174.771 -340.579L154.783 93.9618ZM154.519 93.9496L-277.282 41.2922L-334.067 506.936L134.531 528.49L154.519 93.9496ZM154.785 91.3298L222.12 -338.427L-240.877 -410.971L-278.79 56.1392L154.785 91.3298ZM155.043 91.3703L87.7074 521.127L551.358 593.773L588.666 125.952L155.043 91.3703ZM155.237 85.1587L590.174 77.7624L582.231 -389.319L116.9 -348.149L155.237 85.1587ZM154.995 85.1801L-279.972 90.5605L-274.167 559.849L193.332 518.487L154.995 85.1801ZM154.91 82.5471L164.096 -352.356L-303.964 -362.242L-279.496 105.282L154.91 82.5471ZM155.14 82.552L145.954 517.455L616.506 527.394L589.419 57.5162L155.14 82.552ZM154.48 76.3726L584.249 9.11222L512.29 -450.678L58.3977 -347.883L154.48 76.3726ZM154.298 76.4138L-276.026 140.024L-207.391 604.343L250.38 500.67L154.298 76.4138ZM153.861 73.8223L104.779 -358.4L-360.78 -305.532L-273.531 154.824L153.861 73.8223ZM154.024 73.8038L203.106 506.026L672.98 452.668L580.652 -11.125L154.024 73.8038ZM152.505 67.7538L568.662 -58.8896L433.861 -501.852L0.163492 -339.698L152.505 67.7538ZM152.414 67.7878L-265.226 189.45L-134.167 639.348L304.756 475.24L152.414 67.7878ZM151.631 65.2909L44.9971 -356.437L-410.239 -241.33L-260.729 203.796L151.631 65.2909ZM524.883 -6.4186L523.738 -25.7385L-344.738 25.7385L-343.593 45.0585L524.883 -6.4186ZM-344.738 -25.7386L-345.886 -6.37572L522.59 45.1015L523.738 25.7386L-344.738 -25.7386ZM72.9895 -415.366C54.8217 -414.724 36.7719 -413.102 18.9141 -410.526L143.107 450.564C130.066 452.445 116.915 453.625 103.715 454.092L72.9895 -415.366ZM-348.918 89.0865L-344.944 108.268L506.965 -68.2299L502.991 -87.4114L-348.918 89.0865ZM512.113 -17.0058L510.426 -36.5572L-356.353 38.2323L-354.666 57.7837L512.113 -17.0058ZM1.94176 -407.781C-15.9971 -404.564 -33.6483 -400.392 -50.9427 -395.313L194.193 439.437C181.532 443.156 168.618 446.208 155.505 448.559L1.94176 -407.781ZM-343.999 151.979L-337.19 170.708L480.44 -126.584L473.63 -145.312L-343.999 151.979ZM492.825 -76.8619L488.254 -96.2903L-358.623 102.958L-354.052 122.386L492.825 -76.8619ZM-67.6535 -390.088C-84.7279 -384.42 -101.389 -377.871 -117.578 -370.499L242.973 421.273C231.124 426.668 218.927 431.463 206.426 435.612L-67.6535 -390.088ZM-330.295 212.995L-320.672 230.942L446.067 -180.168L436.444 -198.115L-330.295 212.995ZM465.263 -133.064L457.788 -152.034L-351.638 166.915L-344.163 185.885L465.263 -133.064ZM-133.589 -362.865C-149.336 -355.011 -164.591 -346.37 -179.304 -336.997L288.123 396.768C277.367 403.62 266.21 409.94 254.689 415.686L-133.589 -362.865ZM404.799 -227.897L392.433 -244.706L-308.346 270.86L-295.98 287.668L404.799 -227.897ZM-335.767 228.679L-325.414 246.821L430.207 -184.383L419.854 -202.525L-335.767 228.679ZM-194.27 -327.083C-208.407 -317.351 -222.009 -306.92 -235.028 -295.84L328.847 366.69C319.334 374.786 309.395 382.409 299.063 389.521L-194.27 -327.083ZM357.708 -268.925L342.734 -284.216L-278.863 324.484L-263.89 339.775L357.708 -268.925ZM-311.6 286.984L-298.462 303.896L388.608 -229.803L375.47 -246.715L-311.6 286.984ZM-248.669 -283.797C-261.045 -272.467 -272.855 -260.515 -284.053 -247.984L364.68 331.71C356.491 340.874 347.858 349.611 338.815 357.89L-248.669 -283.797ZM305.918 -302.635L288.552 -316.024L-242.656 372.973L-225.291 386.362L305.918 -302.635ZM-279.882 340.755L-264.136 356.024L341.524 -268.536L325.778 -283.806L-279.882 340.755ZM-296.118 -233.971C-306.642 -221.283 -316.572 -208.042 -325.856 -194.285L395.283 292.397C388.478 302.48 381.207 312.176 373.506 321.459L-296.118 -233.971ZM250.552 -328.62L231.095 -339.74L-200.583 415.611L-181.125 426.731L250.552 -328.62ZM-241.456 389.111L-223.363 402.337L290.061 -300.013L271.968 -313.239L-241.456 389.111ZM-336.088 -178.493C-344.683 -164.666 -352.647 -150.355 -359.926 -135.6L420.288 249.323C414.938 260.167 409.091 270.674 402.786 280.817L-336.088 -178.493ZM192.7 -346.639L171.528 -355.167L-153.51 451.834L-132.338 460.362L192.7 -346.639ZM-197.204 431.349L-177.109 442.169L235.318 -323.863L215.222 -334.682L-197.204 431.349ZM-368.059 -118.291C-374.641 -103.559 -380.547 -88.4291 -385.73 -72.9456L439.273 203.225C435.456 214.627 431.109 225.762 426.268 236.597L-368.059 -118.291ZM133.394 -356.59L110.952 -362.264L-102.295 481.196L-79.8522 486.87L133.394 -356.59ZM-148.016 466.917L-126.336 475.023L178.353 -339.879L156.673 -347.985L-148.016 466.917ZM-391.514 -54.493C-396.001 -39.1437 -399.775 -23.5056 -402.799 -7.62624L451.841 155.13C449.615 166.817 446.836 178.332 443.531 189.637L-391.514 -54.493ZM73.6074 -358.469L50.3927 -361.106L-47.7807 503.337L-24.566 505.974L73.6074 -358.469ZM-94.7703 495.373L-71.9858 500.533L120.167 -347.982L97.3823 -353.142L-94.7703 495.373ZM-406.054 11.4606C-408.406 27.0742 -410.029 42.8465 -410.9 58.7279L457.793 106.394C457.155 118.029 455.965 129.608 454.235 141.09L-406.054 11.4606ZM14.2539 -352.342L-9.19267 -351.847L9.19267 517.959L32.6393 517.464L14.2539 -352.342ZM-38.3352 516.364L-14.9803 518.43L61.6902 -348.185L38.3352 -350.251L-38.3352 516.364ZM-411.584 77.8254C-411.631 80.6363 -411.655 83.4477 -411.655 86.2592H458.345C458.345 88.3114 458.328 90.365 458.294 92.4197L-411.584 77.8254ZM-411.655 86.2592C-411.655 99.1649 -411.158 112.039 -410.17 124.854L457.258 58.0163C457.983 67.415 458.345 76.8367 458.345 86.2592H-411.655ZM-43.7893 -338.322L-66.8973 -334.702L67.7694 524.813L90.8774 521.192L-43.7893 -338.322ZM20.4207 529.596L43.774 528.522L3.80471 -340.559L-19.5486 -339.485L20.4207 529.596ZM-408.326 143.996C-406.477 159.973 -403.868 175.778 -400.53 191.361L450.171 9.13222C452.628 20.6052 454.546 32.2301 455.905 43.967L-408.326 143.996ZM-99.6314 -316.571L-121.846 -309.938L127.057 523.697L149.272 517.064L-99.6314 -316.571ZM80.609 534.829L103.404 530.674L-52.6023 -325.225L-75.3978 -321.07L80.609 534.829ZM-396.125 210.153C-392.092 225.976 -387.312 241.502 -381.826 256.683L436.398 -38.9672C440.437 -27.7902 443.957 -16.3569 446.927 -4.70361L-396.125 210.153ZM-152.352 -287.317L-173.172 -277.877L186.105 514.474L206.924 505.034L-152.352 -287.317ZM141.3 531.874L163.023 524.792L-106.645 -302.359L-128.367 -295.277L141.3 531.874ZM-374.982 274.549C-368.786 289.844 -361.874 304.736 -354.296 319.182L416.152 -84.9337C421.718 -74.3214 426.801 -63.3722 431.361 -52.1169L-374.982 274.549ZM-201.019 -250.878L-220.003 -238.913L243.89 497.092L262.874 485.127L-201.019 -250.878ZM201.504 520.614L221.691 510.841L-157.431 -272.209L-177.617 -262.435L201.504 520.614ZM-345.243 335.682C-336.956 350.136 -327.992 364.103 -318.403 377.543L389.822 -127.748C396.846 -117.902 403.421 -107.66 409.504 -97.0503L-345.243 335.682ZM-244.674 -207.684L-261.453 -193.538L299.313 471.625L316.093 457.479L-244.674 -207.684ZM260.159 501.029L278.409 488.867L-204.048 -235.105L-222.299 -222.942L260.159 501.029ZM-307.409 392.368C-297.121 405.721 -286.189 418.52 -274.663 430.723L357.814 -166.666C366.24 -157.744 374.238 -148.381 381.77 -138.605L-307.409 392.368ZM-282.348 -158.314L-296.633 -142.376L351.214 438.308L365.499 422.371L-282.348 -158.314ZM316.128 473.232L332.116 459.034L-245.559 -191.498L-261.547 -177.3L316.128 473.232ZM-261.999 443.656C-249.794 455.68 -236.976 467.077 -223.595 477.801L320.493 -201.072C330.27 -193.236 339.636 -184.908 348.556 -176.12L-261.999 443.656ZM-313.089 -103.535L-324.677 -86.2158L398.399 397.583L409.987 380.264L-313.089 -103.535ZM368.22 437.51L381.704 421.657L-281.014 -141.997L-294.498 -126.143L368.22 437.51ZM-209.511 488.685C-195.495 499.125 -180.898 508.862 -165.77 517.84L278.227 -230.336C289.29 -223.771 299.959 -216.654 310.201 -209.025L-209.511 488.685ZM-336.009 -44.3287L-344.781 -26.0346L439.695 350.127L448.467 331.832L-336.009 -44.3287ZM415.223 394.367L426.042 377.239L-309.491 -87.4016L-320.31 -70.2745L415.223 394.367ZM-150.532 526.526C-134.87 535.096 -118.679 542.871 -102.017 549.789L231.583 -253.71C243.781 -248.646 255.628 -242.957 267.084 -236.689L-150.532 526.526ZM-350.358 18.1046L-356.27 36.995L474.012 296.864L479.924 277.974L-350.358 18.1046ZM455.957 344.545L464.026 326.507L-330.147 -28.7245L-338.216 -10.6862L455.957 344.545ZM-85.9238 556.148C-68.91 562.534 -51.462 568.029 -33.6469 572.577L181.534 -270.392C194.572 -267.064 207.345 -263.041 219.802 -258.366L-85.9238 556.148ZM-355.595 82.3755L-358.658 101.522L500.419 238.956L503.482 219.809L-355.595 82.3755ZM489.344 289.04L494.63 270.421L-342.297 32.8188L-347.582 51.4379L489.344 289.04ZM-17.0811 576.508C0.817092 580.436 19.0037 583.401 37.4031 585.362L129.616 -279.737C143.034 -278.307 156.32 -276.142 169.414 -273.268L-17.0811 576.508ZM-351.451 146.967L-351.708 166.064L518.214 177.756L518.47 158.658L-351.451 146.967ZM514.48 229.076L516.985 210.181L-345.469 95.8481L-347.974 114.743L514.48 229.076ZM53.9692 586.852C66.1996 587.748 78.4829 588.199 90.7958 588.199V-281.801C99.7194 -281.801 108.643 -281.475 117.547 -280.822L53.9692 586.852ZM90.7958 588.199C96.7909 588.199 102.779 588.092 108.757 587.879L77.7639 -281.569C82.1063 -281.724 86.451 -281.801 90.7958 -281.801V588.199ZM-337.967 210.322L-335.48 229.077L526.974 114.743L524.488 95.9879L-337.967 210.322ZM530.708 166.064L530.454 147.193L-339.467 158.885L-339.214 177.756L530.708 166.064ZM125.123 587.028C143.753 585.757 162.214 583.455 180.427 580.159L25.5186 -275.938C38.8324 -278.347 52.3019 -280.025 65.8633 -280.951L125.123 587.028ZM-315.49 270.912L-310.344 289.04L526.582 51.4378L521.436 33.3095L-315.49 270.912ZM537.658 101.522L534.688 82.9627L-324.388 220.396L-321.419 238.956L537.658 101.522ZM196.626 576.953C215.062 572.987 233.152 568.01 250.823 562.08L-25.9898 -262.708C-13.0512 -267.051 0.189579 -270.693 13.6745 -273.594L196.626 576.953ZM-284.67 327.301L-276.957 344.545L517.216 -10.6861L509.503 -27.9299L-284.67 327.301ZM535.27 36.995L529.642 19.0131L-300.64 278.882L-295.012 296.864L535.27 36.995ZM266.387 556.57C283.97 550.018 301.074 542.523 317.633 534.151L-74.8922 -242.266C-62.776 -248.392 -50.2572 -253.878 -37.3847 -258.674L266.387 556.57ZM-246.396 378.263L-236.223 394.367L499.31 -70.2745L489.137 -86.3781L-246.396 378.263ZM523.781 -26.0345L515.566 -43.1682L-268.91 332.993L-260.695 350.127L523.781 -26.0345ZM332.211 526.478C348.455 517.586 364.13 507.838 379.176 497.301L-119.893 -215.321C-108.897 -223.022 -97.4378 -230.149 -85.5561 -236.654L332.211 526.478ZM-201.718 422.816L-189.22 437.51L473.498 -126.143L461 -140.837L-201.718 422.816ZM503.677 -86.2156L492.975 -102.211L-230.102 381.587L-219.399 397.583L503.677 -86.2156ZM392.514 487.63C407.098 476.687 421.059 464.971 434.338 452.541L-160.202 -182.614C-150.499 -191.697 -140.298 -200.257 -129.641 -208.254L392.514 487.63ZM-151.77 460.23L-137.128 473.232L440.547 -177.3L425.905 -190.302L-151.77 460.23ZM475.633 -142.376L462.592 -156.926L-185.256 423.758L-172.214 438.308L475.633 -142.376ZM446.231 441.036C458.955 428.314 471.014 414.891 482.344 400.818L-195.307 -144.791C-187.014 -155.091 -178.194 -164.907 -168.895 -174.205L446.231 441.036ZM-97.7095 490L-81.1585 501.029L401.298 -222.943L384.747 -233.972L-97.7095 490ZM440.453 -193.538L425.276 -206.333L-135.49 458.83L-120.313 471.625L440.453 -193.538ZM492.599 387.639C503.317 373.382 513.319 358.497 522.537 343.032L-224.758 -102.444C-217.994 -113.792 -210.662 -124.703 -202.814 -135.143L492.599 387.639ZM-40.6714 511.819L-22.5043 520.614L356.617 -262.435L338.45 -271.231L-40.6714 511.819ZM399.003 -238.913L381.954 -249.659L-81.9384 486.347L-64.8896 497.092L399.003 -238.913ZM530.946 328.37C539.514 312.831 547.303 296.752 554.249 280.188L-248.059 -56.266C-242.948 -68.4524 -237.222 -80.2707 -230.931 -91.6817L530.946 328.37ZM18.2614 525.537L37.6997 531.874L307.367 -295.277L287.929 -301.615L18.2614 525.537ZM352.172 -277.877L333.571 -286.311L-25.7057 506.04L-7.10499 514.474L352.172 -277.877ZM560.592 264.309C566.861 247.804 572.293 230.872 576.832 213.575L-264.684 -7.22332C-261.341 -19.9632 -257.341 -32.431 -252.727 -44.5803L560.592 264.309ZM78.0705 531.125L98.3911 534.829L254.398 -321.07L234.077 -324.774L78.0705 531.125ZM300.846 -309.938L281.063 -315.845L32.16 517.79L51.9429 523.697L300.846 -309.938ZM580.91 196.866C584.769 179.795 587.749 162.447 589.813 144.889L-274.237 43.311C-272.72 30.4118 -270.528 17.6503 -267.687 5.07937L580.91 196.866ZM137.804 528.641L158.579 529.596L198.549 -339.485L177.773 -340.441L137.804 528.641ZM245.897 -334.702L225.349 -337.921L90.6821 521.593L111.231 524.813L245.897 -334.702ZM591.521 127.862C592.668 114.055 593.246 100.176 593.246 86.2592H-276.754C-276.754 76.0981 -276.332 65.939 -275.49 55.8097L591.521 127.862ZM593.246 86.2592C593.246 82.8835 593.212 79.5053 593.144 76.125L-276.679 93.6623C-276.729 91.1902 -276.754 88.7223 -276.754 86.2592H593.246ZM196.568 518.201L217.335 516.364L140.665 -350.251L119.897 -348.414L196.568 518.201ZM188.193 -351.847L167.341 -352.287L148.955 517.518L169.807 517.959L188.193 -351.847ZM592.514 59.1392C591.569 41.6617 589.716 24.3185 586.981 7.17541L-272.154 144.241C-274.166 131.631 -275.526 118.897 -276.218 106.092L592.514 59.1392ZM253.489 499.966L273.77 495.373L81.6178 -353.142L61.3369 -348.549L253.489 499.966ZM128.607 -361.106L107.929 -358.758L206.102 505.686L226.781 503.337L128.607 -361.106ZM583.971 -9.80777C580.574 -27.2251 576.274 -44.3447 571.123 -61.1041L-260.48 194.505C-264.274 182.162 -267.44 169.556 -269.94 156.736L583.971 -9.80777ZM307.666 474.151L327.016 466.917L22.3269 -347.985L2.97694 -340.75L307.666 474.151ZM68.048 -362.264L47.9918 -357.194L261.239 486.267L281.295 481.196L68.048 -362.264ZM565.766 -77.5216C559.941 -94.38 553.257 -110.808 545.777 -126.75L-241.828 242.817C-247.328 231.096 -252.246 219.008 -256.535 206.595L565.766 -77.5216ZM358.188 441.049L376.204 431.349L-36.2222 -334.682L-54.2388 -324.982L358.188 441.049ZM7.47212 -355.167L-11.5448 -347.507L313.493 459.494L332.51 451.834L7.47212 -355.167ZM538.227 -142.149C530.095 -158.042 521.164 -173.404 511.499 -188.186L-216.662 287.926C-223.748 277.088 -230.304 265.812 -236.279 254.135L538.227 -142.149ZM404.131 401.045L420.456 389.111L-92.9681 -313.239L-109.294 -301.305L404.131 401.045ZM-52.0946 -339.74L-69.6929 -329.682L361.984 425.668L379.583 415.611L-52.0946 -339.74ZM501.967 -202.24C491.687 -216.856 480.668 -230.867 468.971 -244.223L-185.522 328.96C-194.077 319.191 -202.144 308.935 -209.675 298.226L501.967 -202.24ZM444.555 354.648L458.882 340.755L-146.778 -283.806L-161.105 -269.912L444.555 354.648ZM-109.552 -316.024L-125.398 -303.807L405.81 385.19L421.656 372.973L-109.552 -316.024ZM457.667 -256.703C445.405 -269.793 432.453 -282.214 418.87 -293.913L-148.9 365.282C-158.824 356.734 -168.29 347.656 -177.255 338.086L457.667 -256.703ZM478.52 302.534L490.6 286.984L-196.471 -246.715L-208.55 -231.165L478.52 302.534ZM-163.734 -284.216L-177.548 -270.11L444.05 338.591L457.863 324.484L-163.734 -284.216ZM405.99 -304.638C391.911 -315.969 377.193 -326.563 361.891 -336.362L-107.259 396.304C-118.445 389.141 -129.201 381.398 -139.488 373.119L405.99 -304.638ZM505.127 245.573L514.767 228.679L-240.854 -202.525L-250.495 -185.631L505.127 245.573ZM-213.433 -244.706L-224.991 -228.995L475.788 286.571L487.346 270.86L-213.433 -244.706ZM347.626 -345.164C331.943 -354.484 315.685 -362.99 298.912 -370.617L-61.1929 421.358C-73.4685 415.777 -85.3618 409.554 -96.8296 402.739L347.626 -345.164ZM523.573 184.845L530.638 166.915L-278.788 -152.034L-285.854 -134.103L523.573 184.845ZM-257.444 -198.115L-266.577 -181.082L500.162 230.028L509.295 212.995L-257.444 -198.115ZM283.491 -377.319C266.52 -384.36 249.074 -390.507 231.22 -395.697L-11.6392 439.719C-24.7095 435.919 -37.482 431.419 -49.9054 426.264L283.491 -377.319ZM533.229 121.635L537.623 102.958L-309.254 -96.2902L-313.648 -77.6134L533.229 121.635ZM-294.63 -145.312L-301.205 -127.229L516.424 170.062L522.999 151.979L-294.63 -145.312ZM214.952 -400.132C197.166 -404.661 179.051 -408.235 160.682 -410.81L39.9415 450.771C26.5292 448.892 13.2847 446.279 0.26723 442.964L214.952 -400.132ZM533.702 57.3755L535.353 38.2323L-331.426 -36.5572L-333.078 -17.414L533.702 57.3755ZM-323.991 -87.4114L-327.899 -68.546L524.009 107.952L527.918 89.0865L-323.991 -87.4114ZM143.991 -412.865C126.375 -414.736 108.619 -415.68 90.7958 -415.68V454.32C77.8772 454.32 64.9658 453.635 52.1188 452.271L143.991 -412.865ZM90.7958 -415.68C90.4262 -415.68 90.062 -415.68 89.7031 -415.679L91.5872 454.319C91.3288 454.319 91.0649 454.32 90.7958 454.32V-415.68ZM562.261 -78.4603C493.766 -274.11 307.83 -412.68 90.7958 -412.68V457.32C-69.8386 457.32 -207.879 354.668 -258.873 209.01L562.261 -78.4603ZM90.7958 -412.68C-181.984 -412.68 -408.655 -192.345 -408.655 86.2592H461.345C461.345 294.281 292.343 457.32 90.7958 457.32V-412.68ZM-408.655 86.2592C-408.655 364.863 -181.984 585.199 90.7958 585.199V-284.801C292.343 -284.801 461.345 -121.762 461.345 86.2592H-408.655ZM90.7958 585.199C246.968 585.199 387.388 513.008 478.705 400.547L-196.683 -147.861C-128.986 -231.233 -24.7667 -284.801 90.7958 -284.801V585.199ZM-100.243 488.311L-100.215 488.33L382.238 -235.645L382.21 -235.663L-100.243 488.311ZM-208.874 -132.108C-205.994 -136.056 -203.042 -139.937 -200.022 -143.751L481.989 396.399C486.077 391.237 490.07 385.986 493.965 380.647L-208.874 -132.108ZM422.976 -208.272L422.927 -208.313L-137.836 456.852L-137.787 456.894L422.976 -208.272ZM491.003 384.766C500.958 371.449 510.284 357.587 518.926 343.221L-226.571 -105.26C-220.14 -115.949 -213.207 -126.253 -205.813 -136.144L491.003 384.766ZM-43.5103 510.444L-43.3902 510.502L335.745 -272.541L335.625 -272.599L-43.5103 510.444ZM-236.089 -88.8037C-233.755 -93.1606 -231.333 -97.4696 -228.827 -101.728L520.942 339.573C524.326 333.823 527.597 328.003 530.751 322.117L-236.089 -88.8037ZM379.409 -251.263L379.275 -251.347L-84.6139 484.66L-84.4805 484.745L379.409 -251.263ZM528.994 325.691C536.936 311.189 544.199 296.214 550.729 280.811L-250.266 -58.7561C-245.395 -70.2478 -239.98 -81.4096 -234.065 -92.2093L528.994 325.691ZM15.2024 524.539L15.4001 524.604L285.063 -302.549L284.865 -302.614L15.2024 524.539ZM-257.043 -42.2513C-255.305 -46.9539 -253.476 -51.6105 -251.557 -56.2185L551.625 278.144C554.212 271.93 556.678 265.651 559.021 259.31L-257.043 -42.2513ZM330.827 -287.556L330.623 -287.648L-28.6442 504.707L-28.4402 504.8L330.827 -287.556ZM558.311 261.856C564.106 246.458 569.171 230.687 573.458 214.595L-267.233 -9.32321C-264.032 -21.342 -260.25 -33.1177 -255.924 -44.6119L558.311 261.856ZM74.8624 530.54L75.1109 530.585L231.113 -325.314L230.865 -325.359L74.8624 530.54ZM-271.347 6.51552C-270.264 1.59568 -269.084 -3.28734 -267.809 -8.13076L573.537 213.312C575.256 206.78 576.847 200.195 578.308 193.56L-271.347 6.51552ZM278.188 -316.703L277.939 -316.777L29.0211 516.853L29.2699 516.927L278.188 -316.703ZM578.328 194.669C581.873 178.751 584.651 162.591 586.63 146.245L-277.063 41.6786C-275.589 29.4973 -273.517 17.4415 -270.87 5.55483L578.328 194.669ZM134.531 528.49L134.795 528.502L174.771 -340.579L174.507 -340.591L134.531 528.49ZM-278.79 56.1392C-278.387 51.184 -277.885 46.2339 -277.282 41.2922L586.32 146.607C587.134 139.929 587.814 133.232 588.359 126.52L-278.79 56.1392ZM222.379 -338.387L222.12 -338.427L87.4489 521.087L87.7074 521.127L222.379 -338.387ZM588.666 125.952C589.717 112.774 590.246 99.5336 590.246 86.2592H-279.754C-279.754 76.4254 -279.362 66.5937 -278.58 56.7887L588.666 125.952ZM590.246 86.2592C590.246 83.4237 590.222 80.5913 590.174 77.7624L-279.7 92.5549C-279.736 90.4582 -279.754 88.3596 -279.754 86.2592H590.246ZM193.332 518.487L193.574 518.466L116.9 -348.149L116.658 -348.127L193.332 518.487ZM-279.496 105.282C-279.753 100.373 -279.911 95.4646 -279.972 90.5605L589.962 79.7996C589.879 73.1316 589.664 66.4677 589.315 59.8119L-279.496 105.282ZM164.325 -352.351L164.096 -352.356L145.724 517.45L145.954 517.455L164.325 -352.351ZM589.419 57.5162C588.481 41.2457 586.75 25.093 584.249 9.11222L-275.288 143.633C-277.154 131.712 -278.442 119.682 -279.139 107.588L589.419 57.5162ZM250.38 500.67L250.563 500.629L58.3977 -347.883L58.2156 -347.842L250.38 500.67ZM-273.531 154.824C-274.461 149.914 -275.293 144.979 -276.026 140.024L584.622 12.8036C583.632 6.10903 582.509 -0.553417 581.253 -7.17991L-273.531 154.824ZM104.942 -358.418L104.779 -358.4L202.943 506.044L203.106 506.026L104.942 -358.418ZM580.652 -11.125C577.428 -27.3231 573.418 -43.2617 568.662 -58.8896L-263.652 194.397C-267.204 182.725 -270.198 170.824 -272.605 158.733L580.652 -11.125ZM304.756 475.24L304.846 475.206L0.163492 -339.698L0.0725649 -339.664L304.756 475.24ZM-260.729 203.796C-262.322 199.053 -263.822 194.27 -265.226 189.45L570.054 -53.874C568.161 -60.3733 566.139 -66.8211 563.992 -73.2139L-260.729 203.796ZM45.0599 -356.453L44.9971 -356.437L258.266 487.018L258.329 487.003L45.0599 -356.453Z" fill="#8E744B" mask="url(#path-2-inside-1_28_4)"/>
<path fill-rule="evenodd" clip-rule="evenodd" d="M97.909 75.8116L98.0133 76.3218C98.0302 76.4049 98.0952 76.4698 98.1783 76.4868C98.3435 76.5206 98.4048 76.7246 98.2856 76.8438L90.5075 84.6219C90.4269 84.7025 90.3176 84.7478 90.2036 84.7478C89.9663 84.7478 89.7739 84.5554 89.7739 84.318V73.0869C89.7739 72.9003 89.8779 72.7292 90.0435 72.6432L90.1429 72.5916L95.9813 69.5605C96.2759 69.4075 96.6351 69.5788 96.7015 69.9041L97.909 75.8116ZM88.5043 72.2193C88.6699 72.3053 88.7739 72.4764 88.7739 72.6631V83.15C88.7739 83.5955 88.2353 83.8185 87.9203 83.5036L80.7414 76.3246C80.6226 76.2059 80.5714 76.0354 80.6051 75.8709L80.6172 75.8116L81.905 69.5107C81.9715 69.1855 82.3307 69.0142 82.6253 69.1671L88.5043 72.2193ZM89.7739 70.8334C89.7739 71.2085 90.1714 71.45 90.5043 71.2772L96.0256 68.4107C96.2239 68.3077 96.3299 68.0857 96.2851 67.8668L90.7638 40.8532C90.6431 40.2628 89.7739 40.3507 89.7739 40.9533V70.8334ZM87.784 40.7474C87.9047 40.157 88.7739 40.2449 88.7739 40.8475V70.4096C88.7739 70.7846 88.3764 71.0261 88.0435 70.8533L82.5809 68.0173C82.3826 67.9144 82.2767 67.6924 82.3214 67.4735L87.784 40.7474ZM88.7739 85.788C88.7739 85.7773 88.7697 85.7671 88.7621 85.7596C88.7546 85.752 88.7443 85.7478 88.7337 85.7478H76.6176C76.5307 85.7478 76.4747 85.8399 76.5147 85.917C76.5321 85.9505 76.5321 85.9904 76.5147 86.0238L76.3032 86.4312L73.4499 91.9272C73.2969 92.2218 73.4683 92.581 73.7935 92.6475L79.8377 93.8829L80.3479 93.9871C80.431 94.0041 80.4959 94.0691 80.5129 94.1521C80.5467 94.3174 80.7507 94.3787 80.87 94.2594L88.6274 86.502C88.7212 86.4082 88.7739 86.281 88.7739 86.1484V85.788ZM88.7739 88.9768C88.7739 88.5314 88.2353 88.3083 87.9203 88.6233L81.0219 95.5217C80.9031 95.6405 80.8519 95.8109 80.8856 95.9754L82.1761 102.289C82.2426 102.615 82.6017 102.786 82.8963 102.633L88.5043 99.7216C88.6699 99.6356 88.7739 99.4645 88.7739 99.2778V88.9768ZM88.7739 101.531C88.7739 101.156 88.3764 100.915 88.0435 101.088L82.852 103.783C82.6537 103.886 82.5478 104.108 82.5925 104.327L87.784 129.727C87.9047 130.317 88.7739 130.229 88.7739 129.626V101.531ZM89.2631 136.847C89.2509 136.847 89.2417 136.858 89.2441 136.87C89.2484 136.891 89.2778 136.891 89.282 136.87C89.2845 136.858 89.2753 136.847 89.2631 136.847ZM90.7638 129.621C90.6431 130.211 89.7739 130.123 89.7739 129.521V101.107C89.7739 100.732 90.1714 100.491 90.5043 100.664L95.7546 103.389C95.9529 103.492 96.0588 103.714 96.0141 103.933L90.7638 129.621ZM90.0435 99.2977C89.8779 99.2117 89.7739 99.0406 89.7739 98.854V87.9784C89.7739 87.533 90.3125 87.3099 90.6274 87.6249L97.6774 94.6748C97.7961 94.7936 97.8473 94.964 97.8137 95.1285L96.4305 101.896C96.364 102.221 96.0048 102.393 95.7102 102.24L90.1429 99.3493L90.0435 99.2977ZM79.3715 76.6863C79.5361 76.6527 79.7065 76.7039 79.8252 76.8227L86.8968 83.8942C87.2118 84.2092 86.9887 84.7478 86.5432 84.7478H76.2115C76.0248 84.7478 75.8537 84.6438 75.7677 84.4782L72.7614 78.6874C72.6084 78.3928 72.7797 78.0337 73.105 77.9672L79.3715 76.6863ZM71.0677 78.3836C71.2866 78.3388 71.5086 78.4448 71.6116 78.6431L74.4018 84.0174C74.5746 84.3502 74.333 84.7478 73.958 84.7478H44.8737C44.271 84.7478 44.1831 83.8786 44.7735 83.7579L71.0677 78.3836ZM75.3624 85.8678C75.3242 85.7941 75.2479 85.7478 75.1648 85.7478H44.9794C44.3768 85.7478 44.2889 86.617 44.8793 86.7376L71.7562 92.2311C71.9751 92.2758 72.1972 92.1699 72.3001 91.9716L75.3624 86.073C75.3958 86.0087 75.3958 85.9322 75.3624 85.8678ZM102.849 85.917C102.89 85.8399 102.834 85.7478 102.747 85.7478H90.9266C90.8429 85.7478 90.7626 85.781 90.7034 85.8402C90.5801 85.9635 90.5801 86.1634 90.7034 86.2866L98.1754 93.7587C98.2942 93.8774 98.4646 93.9286 98.6291 93.895L98.6885 93.8829L105.49 92.4926C105.816 92.4261 105.987 92.067 105.834 91.7724L103.061 86.4312L102.849 86.0238C102.832 85.9904 102.832 85.9505 102.849 85.917ZM92.6494 83.8942C92.3344 84.2092 92.5575 84.7478 93.003 84.7478H103.153C103.339 84.7478 103.51 84.6438 103.597 84.4782L106.522 78.8423C106.675 78.5477 106.504 78.1885 106.179 78.122L100.002 76.8594C99.837 76.8258 99.6666 76.877 99.5479 76.9958L92.6494 83.8942ZM104.002 86.073C103.968 86.0087 103.968 85.9322 104.002 85.8678C104.04 85.7941 104.116 85.7478 104.199 85.7478H133.547C134.149 85.7478 134.237 86.617 133.647 86.7376L107.528 92.0762C107.309 92.121 107.087 92.015 106.984 91.8167L104.002 86.073ZM104.962 84.0174C104.79 84.3502 105.031 84.7478 105.406 84.7478H133.652C134.255 84.7478 134.343 83.8786 133.753 83.7579L108.216 78.5384C107.997 78.4937 107.775 78.5996 107.672 78.7979L104.962 84.0174ZM143.486 84.7266L143.558 84.7413C143.579 84.7456 143.6 84.7478 143.621 84.7478H143.899C143.921 84.7478 143.938 84.7654 143.938 84.7871C143.938 84.8057 143.952 84.8218 143.97 84.8255L144.231 84.8789C144.62 84.9585 144.62 85.5154 144.231 85.5951L143.979 85.6464C143.956 85.6513 143.938 85.6723 143.938 85.6966C143.938 85.7249 143.916 85.7478 143.887 85.7478H143.525C143.498 85.7478 143.47 85.7506 143.443 85.7561L108.285 92.942C107.96 93.0085 107.789 93.3676 107.942 93.6622L118.551 114.098L118.624 114.239C118.849 114.672 118.384 115.138 117.95 114.913L117.81 114.84L97.6001 104.348C97.3055 104.195 96.9463 104.366 96.8798 104.691L89.7734 139.46L89.753 139.56C89.644 140.093 88.8822 140.093 88.7732 139.56L88.7527 139.46L81.7267 105.085C81.6602 104.759 81.3011 104.588 81.0065 104.741L61.5544 114.84L61.414 114.913C60.9806 115.138 60.5148 114.672 60.7398 114.239L60.8127 114.098L71.342 93.8171C71.4949 93.5225 71.3236 93.1633 70.9984 93.0968L35.0403 85.7473L34.9402 85.7268C34.407 85.6179 34.407 84.8561 34.9402 84.7471L35.0403 84.7266L70.3098 77.5178C70.6351 77.4513 70.8064 77.0922 70.6535 76.7976L60.8127 57.8428L60.7398 57.7023C60.5148 57.269 60.9806 56.8032 61.414 57.0282L61.5544 57.1011L80.7354 67.0592C81.03 67.2122 81.3892 67.0408 81.4557 66.7156L88.7527 31.0142L88.7732 30.914C88.8822 30.3809 89.644 30.3809 89.753 30.914L89.7734 31.0142L97.1509 67.1089C97.2174 67.4342 97.5765 67.6055 97.8712 67.4526L117.81 57.1011L117.95 57.0282C118.384 56.8032 118.849 57.269 118.624 57.7023L118.551 57.8428L108.63 76.9524C108.477 77.247 108.649 77.6062 108.974 77.6727L143.486 84.7266ZM79.0465 74.6297C79.3282 74.9114 79.8101 74.7666 79.8899 74.3762L81.0393 68.7529C81.084 68.534 80.9781 68.3119 80.7798 68.209L66.6943 60.8963C66.187 60.6329 65.7062 61.2894 66.1104 61.6936L79.0465 74.6297ZM62.5342 58.8226C62.5623 58.7945 62.555 58.7473 62.5198 58.729C62.4689 58.7026 62.4142 58.7572 62.4407 58.8081C62.4589 58.8433 62.5062 58.8506 62.5342 58.8226ZM65.4095 62.407C65.0054 62.0028 64.3489 62.4836 64.6122 62.9909L71.8032 76.8419C71.9062 77.0402 72.1282 77.1461 72.3471 77.1014L77.8769 75.9712C78.2672 75.8914 78.412 75.4094 78.1303 75.1277L65.4095 62.407ZM99.3723 96.3697C99.0906 96.088 98.6087 96.2328 98.5289 96.6232L97.2962 102.654C97.2515 102.873 97.3574 103.095 97.5557 103.198L112.662 111.04C113.169 111.304 113.65 110.647 113.246 110.243L99.3723 96.3697ZM114.756 108.958C115.02 109.466 114.363 109.946 113.959 109.542L99.8704 95.4536C99.5887 95.1719 99.7335 94.6899 100.124 94.6102L106.248 93.3584C106.467 93.3136 106.689 93.4196 106.792 93.6179L114.756 108.958ZM79.3494 94.8037C79.5241 94.8394 79.6606 94.976 79.6963 95.1506C79.7262 95.2971 79.6807 95.4488 79.575 95.5544L65.2087 109.921C64.8046 110.325 64.148 109.844 64.4114 109.337L72.4918 93.7727C72.5947 93.5744 72.8167 93.4685 73.0356 93.5132L79.3494 94.8037ZM62.7245 113.106C62.6104 113.165 62.4877 113.042 62.547 112.928C62.588 112.849 62.694 112.833 62.757 112.896C62.8199 112.959 62.8036 113.065 62.7245 113.106ZM80.1704 97.4701C80.0906 97.0798 79.6087 96.935 79.327 97.2167L66.4972 110.046C66.093 110.451 66.5738 111.107 67.0811 110.844L81.0508 103.591C81.2491 103.488 81.3551 103.266 81.3103 103.047L80.1704 97.4701ZM114.555 63.3694C114.819 62.8621 114.162 62.3813 113.758 62.7855L101.243 75.3008C100.961 75.5826 101.106 76.0645 101.496 76.1443L106.937 77.2563C107.156 77.301 107.378 77.1951 107.481 76.9968L114.555 63.3694ZM116.929 58.6852C116.954 58.6723 116.98 58.699 116.967 58.7238C116.958 58.741 116.935 58.7445 116.922 58.7308C116.908 58.7172 116.912 58.6941 116.929 58.6852ZM99.1768 75.6702C99.3232 75.7001 99.4749 75.6545 99.5806 75.5489L113.632 61.4971C114.036 61.0929 113.556 60.4364 113.048 60.6998L97.8268 68.6023C97.6285 68.7053 97.5226 68.9273 97.5673 69.1462L98.8299 75.3233C98.8656 75.498 99.0021 75.6345 99.1768 75.6702Z" fill="white"/>
</svg>
