<svg width="111" height="110" viewBox="0 0 111 110" fill="none" xmlns="http://www.w3.org/2000/svg">
<path d="M55.5 109.141C85.6729 109.141 110.133 84.901 110.133 55C110.133 25.099 85.6729 0.859375 55.5 0.859375C25.3271 0.859375 0.867188 25.099 0.867188 55C0.867188 84.901 25.3271 109.141 55.5 109.141Z" fill="#34485C" stroke="#34485C" stroke-linecap="round" stroke-linejoin="round"/>
<path d="M69.5989 16.9809L68.5235 12.8904L64.3957 11.8248L68.5235 10.7589L69.5988 6.6685L70.6742 10.759L74.802 11.8246L70.6743 12.8903L69.5989 16.9809Z" fill="white"/>
<path d="M26.0159 32.6444L25.299 29.9174L22.5472 29.207L25.299 28.4964L26.0159 25.7695L26.7329 28.4965L29.4847 29.2069L26.7329 29.9173L26.0159 32.6444Z" fill="white"/>
<path d="M20.588 80.5742L19.6022 76.8245L15.8184 75.8477L19.6022 74.8707L20.5879 71.1211L21.5737 74.8708L25.3575 75.8476L21.5738 76.8245L20.588 80.5742Z" fill="white"/>
<path d="M86.0599 36.9531L85.1637 33.5443L81.7239 32.6563L85.1637 31.7681L86.0599 28.3594L86.956 31.7682L90.3958 32.6562L86.9561 33.5442L86.0599 36.9531Z" fill="white"/>
<path d="M28.62 22.3446L28.0823 20.2993L26.0184 19.7665L28.0823 19.2336L28.62 17.1884L29.1577 19.2337L31.2215 19.7665L29.1577 20.2993L28.62 22.3446Z" fill="white"/>
<path d="M92.1383 87.4286L91.4661 84.872L88.8863 84.206L91.4661 83.5398L92.1382 80.9833L92.8104 83.5399L95.3902 84.2059L92.8104 84.872L92.1383 87.4286Z" fill="white"/>
<path d="M55.5 82.5001C70.8259 82.5001 83.25 70.1879 83.25 55.0001C83.25 39.8123 70.8259 27.5 55.5 27.5C40.1741 27.5 27.75 39.8123 27.75 55.0001C27.75 70.1879 40.1741 82.5001 55.5 82.5001Z" fill="#F05542"/>
<path d="M55.5 82.5001C70.8259 82.5001 83.25 70.1879 83.25 55.0001C83.25 39.8123 70.8259 27.5 55.5 27.5C40.1741 27.5 27.75 39.8123 27.75 55.0001C27.75 70.1879 40.1741 82.5001 55.5 82.5001Z" fill="#F05542"/>
<path d="M56.3672 29.2188C55.4063 29.2188 54.6328 29.9853 54.6328 30.9375C54.6328 31.8897 55.4063 32.6562 56.3672 32.6562H58.1016C59.0624 32.6562 59.8359 33.4228 59.8359 34.375C59.8359 35.3272 59.0624 36.0938 58.1016 36.0938H54.6328C53.672 36.0938 52.8984 36.8603 52.8984 37.8125C52.8984 38.7647 53.672 39.5312 54.6328 39.5312H78.4093C77.5776 38.3137 76.6488 37.1642 75.6316 36.0938H70.2422C69.2813 36.0938 68.5078 35.3272 68.5078 34.375C68.5078 33.4228 69.2813 32.6562 70.2422 32.6562H71.6378C69.6095 31.2228 67.3957 30.0666 65.056 29.2188H56.3672Z" fill="#FCD062"/>
<path d="M65.9062 42.9688C65.4463 42.9688 65.0051 43.1498 64.6799 43.4722C64.3546 43.7945 64.1719 44.2317 64.1719 44.6875C64.1719 45.1433 64.3546 45.5805 64.6799 45.9028C65.0051 46.2252 65.4463 46.4062 65.9062 46.4062C66.3662 46.4062 66.8074 46.2252 67.1326 45.9028C67.4579 45.5805 67.6406 45.1433 67.6406 44.6875C67.6406 44.2317 67.4579 43.7945 67.1326 43.4722C66.8074 43.1498 66.3662 42.9688 65.9062 42.9688ZM72.8438 42.9688C71.8829 42.9688 71.1094 43.7353 71.1094 44.6875C71.1094 45.6397 71.8829 46.4062 72.8438 46.4062H76.3125C77.2734 46.4062 78.0469 47.1728 78.0469 48.125C78.0469 49.0772 77.2734 49.8438 76.3125 49.8438H69.375C68.4141 49.8438 67.6406 50.6103 67.6406 51.5625C67.6406 52.5147 68.4141 53.2812 69.375 53.2812H83.1856C82.9557 49.6986 82.0201 46.1952 80.4316 42.9688H72.8438Z" fill="#F17F53"/>
<path d="M27.8143 56.7188C27.8903 57.8728 28.0396 59.0209 28.2615 60.1562H31.3426C32.3035 60.1562 33.077 60.9228 33.077 61.875C33.077 62.8272 32.3035 63.5938 31.3426 63.5938H29.1795C29.564 64.7692 30.028 65.9176 30.5683 67.0312H52.0312C52.9921 67.0312 53.7656 66.2647 53.7656 65.3125C53.7656 64.3603 52.9921 63.5938 52.0312 63.5938H50.2968C49.336 63.5938 48.5625 62.8272 48.5625 61.875C48.5625 60.9228 49.336 60.1562 50.2968 60.1562H58.9687C59.9296 60.1562 60.7031 59.3897 60.7031 58.4375C60.7031 57.4853 59.9296 56.7188 58.9687 56.7188H27.8143Z" fill="#FCD062"/>
<path d="M32.5907 70.4688C33.4224 71.6863 34.3513 72.8358 35.3684 73.9062H43.3594C44.3203 73.9062 45.0938 73.1397 45.0938 72.1875C45.0938 71.2353 44.3203 70.4688 43.3594 70.4688H32.5907V70.4688ZM39.3622 77.3438C41.3905 78.7772 43.6043 79.9334 45.944 80.7812H46.8282C47.789 80.7812 48.5625 80.0147 48.5625 79.0625C48.5625 78.1103 47.789 77.3438 46.8282 77.3438H39.3622ZM64.1719 70.4688C63.2111 70.4688 62.4375 71.2353 62.4375 72.1875C62.4375 73.1397 63.2111 73.9062 64.1719 73.9062H67.6407C68.6015 73.9062 69.375 74.6728 69.375 75.625C69.375 76.5772 68.6015 77.3438 67.6407 77.3438H65.0391C64.0782 77.3438 63.3047 78.1103 63.3047 79.0625C63.3047 80.0147 64.0782 80.7812 65.0391 80.7812H65.0933C70.5172 78.8048 75.1831 75.1996 78.4399 70.4688H64.1719Z" fill="#F17F53"/>
<path d="M57.2344 67.0312C58.1922 67.0312 58.9688 66.2617 58.9688 65.3125C58.9688 64.3633 58.1922 63.5938 57.2344 63.5938C56.2765 63.5938 55.5 64.3633 55.5 65.3125C55.5 66.2617 56.2765 67.0312 57.2344 67.0312Z" fill="#FCD062"/>
<path d="M64.1719 63.5938C65.1297 63.5938 65.9062 62.8242 65.9062 61.875C65.9062 60.9258 65.1297 60.1562 64.1719 60.1562C63.214 60.1562 62.4375 60.9258 62.4375 61.875C62.4375 62.8242 63.214 63.5938 64.1719 63.5938Z" fill="#FCD062"/>
<path d="M32.5602 39.5312C30.4289 42.641 28.9636 46.1508 28.2548 49.8438H39.8907C40.8515 49.8438 41.625 49.0772 41.625 48.125C41.625 47.1728 40.8515 46.4062 39.8907 46.4062H38.1563C37.1954 46.4062 36.4219 45.6397 36.4219 44.6875C36.4219 43.7353 37.1954 42.9688 38.1563 42.9688H46.8282C47.789 42.9688 48.5625 42.2022 48.5625 41.25C48.5625 40.2978 47.789 39.5312 46.8282 39.5312H32.5602Z" fill="#F17F53"/>
</svg>
