<svg width="110" height="110" viewBox="0 0 110 110" fill="none" xmlns="http://www.w3.org/2000/svg">
<path d="M55 109.141C84.901 109.141 109.141 84.901 109.141 55C109.141 25.099 84.901 0.859375 55 0.859375C25.0989 0.859375 0.859375 25.099 0.859375 55C0.859375 84.901 25.0989 109.141 55 109.141Z" fill="#34485C" stroke="#34485C" stroke-linecap="round" stroke-linejoin="round"/>
<path d="M55.0017 82.5C70.1895 82.5 82.5017 70.1878 82.5017 55C82.5017 39.8122 70.1895 27.5 55.0017 27.5C39.8139 27.5 27.5017 39.8122 27.5017 55C27.5017 70.1878 39.8139 82.5 55.0017 82.5Z" fill="#576D7E"/>
<path d="M57.8455 27.6511C57.1899 27.8931 56.7209 28.5108 56.7209 29.2523C56.7209 30.2045 57.4874 30.971 58.4396 30.971H60.3296C61.2818 30.971 62.0483 31.7378 62.0483 32.6898C62.0483 33.642 61.2818 34.4085 60.3296 34.4085H55.1935C54.2413 34.4085 53.4747 35.1751 53.4747 36.1273C53.4747 37.0795 54.2413 37.846 55.1935 37.846H60.3128H68.8226C69.7748 37.846 70.5414 38.6126 70.5414 39.5648C70.5414 40.517 69.7748 41.2835 68.8226 41.2835H65.4355C64.4833 41.2835 63.7167 42.0501 63.7167 43.0023C63.7167 43.9545 64.4833 44.721 65.4355 44.721H72.8778H75.7043C76.6565 44.721 77.4231 45.4876 77.4231 46.4398C77.4231 47.392 76.6565 48.1585 75.7043 48.1585H56.7511C55.7989 48.1585 55.0323 48.9251 55.0323 49.8773C55.0323 50.8295 55.7989 51.596 56.7511 51.596H64.3948H67.2214C68.1736 51.596 68.9401 52.3626 68.9401 53.3148C68.9401 54.267 68.1736 55.0335 67.2214 55.0335H66.2378H65.3012C64.349 55.0335 63.5825 55.8001 63.5825 56.7523C63.5825 57.7045 64.349 58.471 65.3012 58.471H70.5548C71.507 58.471 72.2736 59.2376 72.2736 60.1898C72.2736 61.142 71.507 61.9085 70.5548 61.9085H58.5303C57.5781 61.9085 56.8115 62.6751 56.8115 63.6273C56.8115 64.5795 57.5781 65.346 58.5303 65.346H71.0617H73.8882C74.8404 65.346 75.607 66.1126 75.607 67.0648C75.607 68.017 74.8404 68.7835 73.8882 68.7835H71.0617H61.9476C60.9954 68.7835 60.2289 69.5501 60.2289 70.5023C60.2289 71.4545 60.9954 72.221 61.9476 72.221H67.0137C67.9659 72.221 68.7325 72.9876 68.7325 73.9398C68.7325 74.892 67.9659 75.6585 67.0137 75.6585H56.7041C55.7519 75.6585 54.9854 76.4251 54.9854 77.3773C54.9854 78.3295 55.7519 79.096 56.7041 79.096H58.7988H59.9234C60.8756 79.096 61.6422 79.8626 61.6422 80.8148C61.6422 81.1602 61.5198 81.4626 61.3434 81.7245C73.7325 78.7887 82.4862 67.7322 82.5021 55.0001C82.5004 40.9144 71.8556 29.1074 57.8455 27.6511V27.6511ZM36.6498 34.3751C36.7077 34.3751 36.7581 34.4077 36.8177 34.4077H36.8378C36.8499 34.3905 36.8622 34.3854 36.8747 34.3751H36.6498ZM36.8378 34.4077C31.1171 39.4452 27.4988 46.8104 27.4988 55.0327C27.5022 65.3338 33.2022 74.3551 41.6852 79.0617H43.1463C44.0151 78.9741 44.6972 78.2692 44.6972 77.3764C44.6972 76.4243 43.9306 75.6577 42.9784 75.6577H39.5703C38.6181 75.6577 37.8516 74.8911 37.8516 73.9389C37.8516 72.9868 38.6181 72.2202 39.5703 72.2202H44.6052C45.5574 72.2202 46.324 71.4536 46.324 70.5014C46.324 69.5493 45.5574 68.7827 44.6052 68.7827H37.2205H34.3939C33.4417 68.7827 32.6752 68.0161 32.6752 67.0639C32.6752 66.1118 33.4417 65.3452 34.3939 65.3452H37.8217C38.7739 65.3452 39.5405 64.5786 39.5405 63.6264C39.5405 62.6743 38.7739 61.9077 37.8217 61.9077H36.1462C35.194 61.9077 34.4275 61.1411 34.4275 60.1889C34.4275 59.2368 35.194 58.4702 36.1462 58.4702H41.1414C42.0936 58.4702 42.8601 57.7036 42.8601 56.7514C42.8601 55.7993 42.0936 55.0327 41.1414 55.0327H40.2048H31.1008C30.1486 55.0327 29.382 54.2661 29.382 53.3139C29.382 52.3618 30.1486 51.5952 31.1008 51.5952H36.0355H40.3021C41.2543 51.5952 42.0209 50.8286 42.0209 49.8764C42.0209 48.9243 41.2543 48.1577 40.3021 48.1577H36.0287C35.0766 48.1577 34.31 47.3911 34.31 46.4389C34.31 45.4867 35.0766 44.7202 36.0287 44.7202H41.3495C42.3017 44.7202 43.0682 43.9536 43.0682 43.0014C43.0682 42.0492 42.3017 41.2827 41.3495 41.2827H37.8415C36.8893 41.2827 36.1227 40.5161 36.1227 39.5639C36.1227 38.6117 36.8893 37.8452 37.8415 37.8452H38.429C39.3812 37.8452 40.1477 37.0786 40.1477 36.1264C40.1477 35.1742 39.3812 34.4077 38.429 34.4077H36.8378Z" fill="#E9EDED"/>
<path d="M68.9597 16.9856L67.894 12.8951L63.8034 11.8294L67.894 10.7636L68.9597 6.67316L70.0254 10.7637L74.116 11.8293L70.0255 12.895L68.9597 16.9856Z" fill="white"/>
<path d="M25.779 32.6454L25.0685 29.9184L22.3415 29.2079L25.0685 28.4974L25.779 25.7705L26.4894 28.4975L29.2165 29.2079L26.4895 29.9183L25.779 32.6454Z" fill="white"/>
<path d="M20.4032 80.573L19.4263 76.8233L15.6766 75.8465L19.4263 74.8695L20.4032 71.1199L21.3801 74.8696L25.1298 75.8464L21.3802 76.8233L20.4032 80.573Z" fill="white"/>
<path d="M85.2857 36.954L84.3976 33.5453L80.9888 32.6572L84.3976 31.769L85.2856 28.3604L86.1737 31.7691L89.5825 32.6572L86.1738 33.5452L85.2857 36.954Z" fill="white"/>
<path d="M28.3623 22.3422L27.8294 20.2969L25.7841 19.7641L27.8294 19.2312L28.3623 17.1859L28.8951 19.2312L30.9404 19.764L28.8952 20.2969L28.3623 22.3422Z" fill="white"/>
<path d="M91.3052 87.4298L90.6392 84.8732L88.0826 84.2072L90.6392 83.541L91.3052 80.9846L91.9713 83.5411L94.5279 84.2071L91.9714 84.8732L91.3052 87.4298Z" fill="white"/>
</svg>
