<svg width="110" height="110" viewBox="0 0 110 110" fill="none" xmlns="http://www.w3.org/2000/svg">
<path d="M55 109.141C84.901 109.141 109.141 84.901 109.141 55C109.141 25.099 84.901 0.859375 55 0.859375C25.099 0.859375 0.859375 25.099 0.859375 55C0.859375 84.901 25.099 109.141 55 109.141Z" fill="#34485C" stroke="#34485C" stroke-linecap="round" stroke-linejoin="round"/>
<path d="M55 82.5001C70.1878 82.5001 82.5 70.1879 82.5 55.0001C82.5 39.8123 70.1878 27.5 55 27.5C39.8122 27.5 27.5 39.8123 27.5 55.0001C27.5 70.1879 39.8122 82.5001 55 82.5001Z" fill="#E9EDED"/>
<path d="M32.6562 53.2812C33.6055 53.2812 34.375 52.5117 34.375 51.5625C34.375 50.6133 33.6055 49.8438 32.6562 49.8438C31.707 49.8438 30.9375 50.6133 30.9375 51.5625C30.9375 52.5117 31.707 53.2812 32.6562 53.2812Z" fill="#E4E8E8"/>
<path d="M36.0938 68.75C37.043 68.75 37.8125 67.9805 37.8125 67.0312C37.8125 66.082 37.043 65.3125 36.0938 65.3125C35.1445 65.3125 34.375 66.082 34.375 67.0312C34.375 67.9805 35.1445 68.75 36.0938 68.75Z" fill="#E4E8E8"/>
<path d="M48.9844 37.8126C50.4082 37.8126 51.5625 36.6583 51.5625 35.2345C51.5625 33.8106 50.4082 32.6562 48.9844 32.6562C47.5605 32.6562 46.4062 33.8106 46.4062 35.2345C46.4062 36.6583 47.5605 37.8126 48.9844 37.8126Z" fill="#E4E8E8"/>
<path d="M55 58.4375C56.8985 58.4375 58.4375 56.8985 58.4375 55C58.4375 53.1015 56.8985 51.5625 55 51.5625C53.1015 51.5625 51.5625 53.1015 51.5625 55C51.5625 56.8985 53.1015 58.4375 55 58.4375Z" fill="#E4E8E8"/>
<path d="M54.1406 75.625C55.5645 75.625 56.7188 74.4707 56.7188 73.0469C56.7188 71.623 55.5645 70.4688 54.1406 70.4688C52.7168 70.4688 51.5625 71.623 51.5625 73.0469C51.5625 74.4707 52.7168 75.625 54.1406 75.625Z" fill="#E4E8E8"/>
<path d="M46.4062 49.8438C47.3555 49.8438 48.125 49.0742 48.125 48.125C48.125 47.1758 47.3555 46.4062 46.4062 46.4062C45.457 46.4062 44.6875 47.1758 44.6875 48.125C44.6875 49.0742 45.457 49.8438 46.4062 49.8438Z" fill="#E4E8E8"/>
<path d="M67.0312 48.125C67.9805 48.125 68.75 47.3555 68.75 46.4062C68.75 45.457 67.9805 44.6875 67.0312 44.6875C66.082 44.6875 65.3125 45.457 65.3125 46.4062C65.3125 47.3555 66.082 48.125 67.0312 48.125Z" fill="#E4E8E8"/>
<path d="M68.75 70.4688C69.6992 70.4688 70.4688 69.6992 70.4688 68.75C70.4688 67.8008 69.6992 67.0312 68.75 67.0312C67.8008 67.0312 67.0312 67.8008 67.0312 68.75C67.0312 69.6992 67.8008 70.4688 68.75 70.4688Z" fill="#E4E8E8"/>
<path d="M73.0469 60.1562C74.4707 60.1562 75.625 59.002 75.625 57.5781C75.625 56.1543 74.4707 55 73.0469 55C71.623 55 70.4688 56.1543 70.4688 57.5781C70.4688 59.002 71.623 60.1562 73.0469 60.1562Z" fill="#E4E8E8"/>
<path d="M76.4844 68.75C76.959 68.75 77.3438 68.3652 77.3438 67.8906C77.3438 67.416 76.959 67.0312 76.4844 67.0312C76.0098 67.0312 75.625 67.416 75.625 67.8906C75.625 68.3652 76.0098 68.75 76.4844 68.75Z" fill="#E4E8E8"/>
<path d="M79.9219 53.2812C80.3965 53.2812 80.7812 52.8965 80.7812 52.4219C80.7812 51.9473 80.3965 51.5625 79.9219 51.5625C79.4473 51.5625 79.0625 51.9473 79.0625 52.4219C79.0625 52.8965 79.4473 53.2812 79.9219 53.2812Z" fill="#E4E8E8"/>
<path d="M38.6719 73.9062C39.1465 73.9062 39.5312 73.5215 39.5312 73.0469C39.5312 72.5723 39.1465 72.1875 38.6719 72.1875C38.1973 72.1875 37.8125 72.5723 37.8125 73.0469C37.8125 73.5215 38.1973 73.9062 38.6719 73.9062Z" fill="#E4E8E8"/>
<path d="M31.7969 48.125C32.2715 48.125 32.6562 47.7402 32.6562 47.2656C32.6562 46.791 32.2715 46.4062 31.7969 46.4062C31.3223 46.4062 30.9375 46.791 30.9375 47.2656C30.9375 47.7402 31.3223 48.125 31.7969 48.125Z" fill="#E4E8E8"/>
<path d="M59.2969 79.0625C59.7715 79.0625 60.1562 78.6777 60.1562 78.2031C60.1562 77.7285 59.7715 77.3438 59.2969 77.3438C58.8223 77.3438 58.4375 77.7285 58.4375 78.2031C58.4375 78.6777 58.8223 79.0625 59.2969 79.0625Z" fill="#E4E8E8"/>
<path d="M66.1719 34.3751C66.6465 34.3751 67.0312 33.9902 67.0312 33.5156C67.0312 33.041 66.6465 32.6562 66.1719 32.6562C65.6973 32.6562 65.3125 33.041 65.3125 33.5156C65.3125 33.9902 65.6973 34.3751 66.1719 34.3751Z" fill="#E4E8E8"/>
<path d="M69.6094 42.9688C70.084 42.9688 70.4688 42.584 70.4688 42.1094C70.4688 41.6348 70.084 41.25 69.6094 41.25C69.1348 41.25 68.75 41.6348 68.75 42.1094C68.75 42.584 69.1348 42.9688 69.6094 42.9688Z" fill="#E4E8E8"/>
<path d="M55.0008 51.5627C54.7087 51.5625 54.4176 51.5994 54.1348 51.6727C54.8736 51.8619 55.5286 52.2915 55.9965 52.8938C56.4645 53.496 56.7188 54.2367 56.7196 54.9994C56.7196 55.7603 56.4672 56.4997 56.0018 57.1017C55.5365 57.7037 54.8845 58.1344 54.1482 58.3261C54.4267 58.3983 54.7131 58.4352 55.0008 58.4361C55.4523 58.4361 55.8993 58.3472 56.3163 58.1744C56.7334 58.0017 57.1123 57.7484 57.4315 57.4292C57.7507 57.11 58.0039 56.7311 58.1767 56.3141C58.3494 55.897 58.4384 55.45 58.4383 54.9986C58.4384 54.5471 58.3494 54.1001 58.1767 53.6831C58.0039 53.266 57.7507 52.8871 57.4315 52.5679C57.1123 52.2487 56.7334 51.9954 56.3163 51.8227C55.8993 51.6499 55.4523 51.5611 55.0008 51.5611V51.5627ZM48.9852 32.6579C48.766 32.6576 48.5477 32.6854 48.3356 32.7404C48.8897 32.8823 49.3809 33.2044 49.7319 33.656C50.0828 34.1077 50.2736 34.6633 50.2742 35.2352C50.2743 35.8059 50.085 36.3604 49.7359 36.812C49.3869 37.2635 48.898 37.5865 48.3457 37.7303C48.5545 37.7844 48.7694 37.8121 48.9852 37.8127C49.3237 37.8127 49.659 37.7461 49.9718 37.6166C50.2846 37.487 50.5688 37.297 50.8082 37.0576C51.0476 36.8182 51.2375 36.5341 51.367 36.2213C51.4966 35.9086 51.5633 35.5732 51.5633 35.2346C51.5633 34.8961 51.4966 34.5609 51.367 34.2481C51.2375 33.9353 51.0476 33.651 50.8082 33.4116C50.5688 33.1722 50.2846 32.9823 49.9718 32.8528C49.659 32.7232 49.3237 32.6565 48.9852 32.6565V32.6579ZM46.4071 46.4073C46.261 46.4072 46.1155 46.4256 45.974 46.4623C46.3435 46.5569 46.671 46.7717 46.9049 47.0728C47.1389 47.374 47.2661 47.7445 47.2664 48.1259C47.2664 48.5063 47.1402 48.8758 46.9075 49.1768C46.6749 49.4778 46.3489 49.6932 45.9807 49.789C46.12 49.8251 46.2632 49.8436 46.4071 49.844C46.6328 49.844 46.8563 49.7997 47.0648 49.7133C47.2734 49.6269 47.4628 49.5003 47.6224 49.3407C47.782 49.1811 47.9086 48.9915 47.995 48.783C48.0814 48.5745 48.1258 48.351 48.1258 48.1252C48.1258 47.8995 48.0814 47.676 47.995 47.4675C47.9086 47.259 47.782 47.0696 47.6224 46.91C47.4628 46.7504 47.2734 46.6238 47.0648 46.5374C46.8563 46.451 46.6328 46.4065 46.4071 46.4065V46.4073ZM31.7977 46.4065C31.7246 46.4064 31.6519 46.4156 31.5812 46.434C31.7659 46.4813 31.9296 46.5887 32.0466 46.7393C32.1636 46.8898 32.2272 47.075 32.2274 47.2657C32.2274 47.4559 32.1643 47.6407 32.0479 47.7912C31.9316 47.9417 31.7686 48.0494 31.5845 48.0973C31.6541 48.1154 31.7257 48.1248 31.7977 48.125C31.9105 48.125 32.0223 48.1028 32.1265 48.0596C32.2308 48.0164 32.3256 47.9531 32.4054 47.8733C32.4852 47.7935 32.5485 47.6987 32.5916 47.5944C32.6348 47.4902 32.657 47.3785 32.657 47.2657C32.657 47.0378 32.5664 46.8192 32.4053 46.6581C32.2441 46.4969 32.0256 46.4063 31.7977 46.4063V46.4065ZM32.6571 49.8448C32.511 49.8447 32.3655 49.8631 32.224 49.8998C32.5935 49.9944 32.921 50.2092 33.1549 50.5103C33.3889 50.8115 33.5161 51.182 33.5164 51.5634C33.5164 51.9438 33.3902 52.3133 33.1575 52.6143C32.9249 52.9153 32.5989 53.1307 32.2307 53.2265C32.37 53.2626 32.5132 53.2811 32.6571 53.2815C32.8828 53.2815 33.1063 53.2372 33.3148 53.1508C33.5234 53.0644 33.7128 52.9378 33.8724 52.7782C34.032 52.6186 34.1586 52.429 34.245 52.2205C34.3314 52.012 34.3758 51.7885 34.3758 51.5627C34.3758 51.337 34.3314 51.1135 34.245 50.905C34.1586 50.6965 34.032 50.5071 33.8724 50.3475C33.7128 50.1879 33.5234 50.0613 33.3148 49.9749C33.1063 49.8885 32.8828 49.844 32.6571 49.844V49.8448ZM36.0946 65.3136C35.9485 65.3134 35.803 65.3319 35.6615 65.3686C36.031 65.4631 36.3585 65.678 36.5924 65.9791C36.8264 66.2802 36.9536 66.6508 36.9539 67.0321C36.9539 67.4126 36.8277 67.7821 36.595 68.0831C36.3624 68.384 36.0364 68.5994 35.6682 68.6953C35.8075 68.7314 35.9507 68.7498 36.0946 68.7502C36.3203 68.7502 36.5438 68.7059 36.7523 68.6195C36.9609 68.5332 37.1503 68.4065 37.3099 68.2469C37.4695 68.0873 37.5961 67.8978 37.6825 67.6892C37.7689 67.4807 37.8133 67.2572 37.8133 67.0315C37.8133 66.8058 37.7689 66.5823 37.6825 66.3737C37.5961 66.1652 37.4695 65.9759 37.3099 65.8163C37.1503 65.6567 36.9609 65.53 36.7523 65.4437C36.5438 65.3573 36.3203 65.3127 36.0946 65.3127V65.3136ZM68.7508 67.0323C68.6047 67.0322 68.4592 67.0506 68.3178 67.0873C68.6872 67.1819 69.0147 67.3967 69.2487 67.6978C69.4827 67.999 69.6098 68.3695 69.6102 68.7509C69.6102 69.1313 69.484 69.5008 69.2513 69.8018C69.0186 70.1028 68.6927 70.3182 68.3245 70.414C68.4637 70.4501 68.607 70.4686 68.7508 70.469C68.9765 70.469 69.2 70.4247 69.4086 70.3383C69.6171 70.2519 69.8066 70.1253 69.9662 69.9657C70.1258 69.8061 70.2524 69.6165 70.3388 69.408C70.4251 69.1995 70.4696 68.976 70.4696 68.7502C70.4696 68.5245 70.4251 68.301 70.3388 68.0925C70.2524 67.884 70.1258 67.6946 69.9662 67.535C69.8066 67.3754 69.6171 67.2488 69.4086 67.1624C69.2 67.076 68.9765 67.0315 68.7508 67.0315V67.0323ZM67.0321 44.6886C66.886 44.6884 66.7405 44.7069 66.5991 44.7436C66.9685 44.8381 67.296 45.053 67.53 45.3541C67.764 45.6552 67.8911 46.0258 67.8915 46.4071C67.8915 46.7876 67.7652 47.1571 67.5326 47.4581C67.2999 47.759 66.974 47.9744 66.6058 48.0703C66.745 48.1064 66.8883 48.1248 67.0321 48.1252C67.2578 48.1252 67.4813 48.0809 67.6898 47.9945C67.8984 47.9082 68.0879 47.7815 68.2475 47.6219C68.4071 47.4623 68.5337 47.2728 68.62 47.0642C68.7064 46.8557 68.7509 46.6322 68.7509 46.4065C68.7509 46.1808 68.7064 45.9573 68.62 45.7487C68.5337 45.5402 68.4071 45.3509 68.2475 45.1913C68.0879 45.0317 67.8984 44.905 67.6898 44.8187C67.4813 44.7323 67.2578 44.6877 67.0321 44.6877V44.6886ZM54.1414 70.4705C53.9223 70.4702 53.704 70.4979 53.4919 70.5529C54.046 70.6948 54.5371 71.0169 54.8881 71.4685C55.2391 71.9202 55.4299 72.4758 55.4305 73.0477C55.4305 73.6184 55.2412 74.1729 54.8922 74.6245C54.5432 75.076 54.0542 75.399 53.5019 75.5428C53.7108 75.5969 53.9256 75.6246 54.1414 75.6252C54.48 75.6252 54.8153 75.5586 55.128 75.4291C55.4408 75.2995 55.725 75.1095 55.9644 74.8701C56.2038 74.6307 56.3937 74.3466 56.5233 74.0338C56.6529 73.7211 56.7195 73.3857 56.7195 73.0471C56.7195 72.7086 56.6529 72.3734 56.5233 72.0606C56.3937 71.7478 56.2038 71.4635 55.9644 71.2241C55.725 70.9847 55.4408 70.7947 55.128 70.6652C54.8153 70.5356 54.48 70.469 54.1414 70.469V70.4705ZM73.0477 55.0017C72.8286 55.0015 72.6103 55.0292 72.3982 55.0842C72.9523 55.226 73.4434 55.5481 73.7944 55.9998C74.1454 56.4514 74.3362 57.007 74.3368 57.579C74.3368 58.1497 74.1475 58.7042 73.7985 59.1557C73.4495 59.6072 72.9605 59.9303 72.4082 60.074C72.6171 60.1282 72.8319 60.1559 73.0477 60.1565C73.3863 60.1565 73.7216 60.0899 74.0343 59.9603C74.3471 59.8308 74.6313 59.6408 74.8707 59.4014C75.1101 59.162 75.3 58.8779 75.4296 58.5651C75.5592 58.2523 75.6259 57.9169 75.6258 57.5784C75.6259 57.2398 75.5592 56.9046 75.4296 56.5919C75.3 56.2791 75.1101 55.9947 74.8707 55.7553C74.6313 55.5159 74.3471 55.326 74.0343 55.1964C73.7216 55.0669 73.3863 55.0002 73.0477 55.0002V55.0017ZM38.6727 72.188C38.5996 72.1879 38.5269 72.1971 38.4562 72.2154C38.6409 72.2627 38.8046 72.3701 38.9216 72.5207C39.0386 72.6713 39.1022 72.8564 39.1024 73.0471C39.1024 73.2374 39.0393 73.4222 38.923 73.5727C38.8066 73.7232 38.6437 73.8309 38.4596 73.8788C38.5292 73.8969 38.6008 73.9061 38.6727 73.9063C38.7856 73.9063 38.8973 73.8842 39.0016 73.841C39.1058 73.7978 39.2006 73.7345 39.2804 73.6547C39.3602 73.5749 39.4235 73.4802 39.4667 73.3759C39.5099 73.2716 39.5321 73.1598 39.5321 73.0469C39.532 72.819 39.4415 72.6006 39.2803 72.4395C39.1192 72.2784 38.9006 72.1877 38.6727 72.1877V72.188ZM59.2977 77.3444C59.2246 77.3443 59.1519 77.3536 59.0812 77.3719C59.2659 77.4192 59.4296 77.5266 59.5466 77.6772C59.6636 77.8277 59.7272 78.0129 59.7274 78.2036C59.7274 78.3938 59.6643 78.5786 59.548 78.7291C59.4316 78.8797 59.2687 78.9873 59.0846 79.0353C59.1542 79.0533 59.2258 79.0625 59.2977 79.0627C59.4106 79.0627 59.5223 79.0405 59.6266 78.9973C59.7308 78.9541 59.8256 78.8908 59.9054 78.811C59.9852 78.7312 60.0485 78.6366 60.0917 78.5323C60.1349 78.4281 60.1571 78.3162 60.1571 78.2034C60.157 77.9755 60.0665 77.7569 59.9053 77.5958C59.7442 77.4346 59.5256 77.3442 59.2977 77.3442V77.3444ZM76.4852 67.0317C76.4121 67.0316 76.3394 67.0409 76.2687 67.0592C76.4534 67.1065 76.6171 67.2139 76.7341 67.3645C76.8511 67.515 76.9147 67.7002 76.9149 67.8909C76.9149 68.0811 76.8518 68.2659 76.7355 68.4164C76.6191 68.567 76.4562 68.6746 76.2721 68.7225C76.3417 68.7406 76.4133 68.7498 76.4852 68.75C76.5981 68.75 76.7098 68.728 76.8141 68.6848C76.9183 68.6416 77.0131 68.5783 77.0929 68.4985C77.1727 68.4187 77.236 68.3239 77.2792 68.2196C77.3224 68.1154 77.3446 68.0035 77.3446 67.8907C77.3445 67.6628 77.254 67.4444 77.0928 67.2833C76.9317 67.1221 76.7131 67.0315 76.4852 67.0315V67.0317ZM79.9227 51.563C79.8496 51.5629 79.7769 51.5721 79.7062 51.5904C79.8909 51.6377 80.0546 51.7451 80.1716 51.8957C80.2886 52.0463 80.3522 52.2314 80.3524 52.4221C80.3524 52.6124 80.2893 52.7972 80.173 52.9477C80.0566 53.0982 79.8937 53.2059 79.7096 53.2538C79.7792 53.2719 79.8508 53.2811 79.9227 53.2813C80.0356 53.2813 80.1473 53.2592 80.2516 53.216C80.3558 53.1728 80.4506 53.1095 80.5304 53.0297C80.6102 52.9499 80.6735 52.8552 80.7167 52.7509C80.7598 52.6466 80.7821 52.5348 80.7821 52.4219C80.782 52.194 80.6915 51.9756 80.5303 51.8145C80.3692 51.6534 80.1506 51.5627 79.9227 51.5627V51.563ZM69.6102 41.2505C69.5371 41.2504 69.4644 41.2596 69.3937 41.2779C69.5784 41.3252 69.7421 41.4326 69.8591 41.5832C69.9761 41.7338 70.0397 41.9189 70.0399 42.1096C70.0399 42.2999 69.9768 42.4847 69.8604 42.6352C69.7441 42.7857 69.5811 42.8934 69.397 42.9413C69.4666 42.9594 69.5382 42.9686 69.6102 42.9688C69.723 42.9688 69.8348 42.9467 69.939 42.9035C70.0433 42.8603 70.1381 42.797 70.2179 42.7172C70.2977 42.6374 70.361 42.5427 70.4041 42.4384C70.4473 42.3341 70.4695 42.2223 70.4695 42.1094C70.4695 41.8815 70.3789 41.6631 70.2178 41.502C70.0566 41.3409 69.8381 41.2502 69.6102 41.2502V41.2505ZM66.1727 32.6567C66.0996 32.6566 66.0269 32.6659 65.9562 32.6842C66.1409 32.7315 66.3046 32.8389 66.4216 32.9895C66.5386 33.14 66.6022 33.3252 66.6024 33.5159C66.6024 33.7061 66.5393 33.8909 66.4229 34.0414C66.3066 34.192 66.1436 34.2996 65.9595 34.3475C66.0291 34.3656 66.1007 34.3748 66.1727 34.375C66.2855 34.375 66.3973 34.353 66.5015 34.3098C66.6058 34.2666 66.7006 34.2033 66.7804 34.1235C66.8602 34.0437 66.9235 33.9489 66.9666 33.8446C67.0098 33.7404 67.032 33.6286 67.032 33.5158C67.032 33.2879 66.9414 33.0693 66.7803 32.9082C66.6191 32.747 66.4006 32.6565 66.1727 32.6565V32.6567Z" fill="#C8D2D2"/>
<path d="M55.0008 27.5002C53.861 27.5113 52.7231 27.5932 51.5935 27.7454C58.2286 28.5888 64.3288 31.8214 68.7524 36.8382C73.176 41.8549 75.6195 48.3118 75.6258 55.0002C75.6177 61.6979 73.1656 68.1625 68.7297 73.1806C64.2939 78.1987 58.1791 81.4253 51.5331 82.2552C52.6827 82.4099 53.8409 82.4918 55.0008 82.5002C58.6121 82.5002 62.1881 81.789 65.5246 80.407C68.861 79.025 71.8926 76.9993 74.4462 74.4457C76.9998 71.8921 79.0255 68.8605 80.4075 65.524C81.7895 62.1876 82.5008 58.6116 82.5008 55.0002C82.5008 51.3889 81.7895 47.8129 80.4075 44.4765C79.0255 41.14 76.9998 38.1084 74.4462 35.5548C71.8926 33.0012 68.861 30.9756 65.5246 29.5936C62.1881 28.2116 58.6121 27.5002 55.0008 27.5002V27.5002Z" fill="#AAB4B2" fill-opacity="0.243"/>
<path d="M68.972 16.9809L67.9062 12.8904L63.8157 11.8248L67.9062 10.7589L68.9719 6.6685L70.0376 10.759L74.1282 11.8246L70.0377 12.8903L68.972 16.9809Z" fill="white"/>
<path d="M25.7816 32.6444L25.0711 29.9174L22.344 29.207L25.0711 28.4964L25.7815 25.7695L26.492 28.4965L29.219 29.2069L26.4921 29.9173L25.7816 32.6444Z" fill="white"/>
<path d="M20.4022 80.5749L19.4253 76.8253L15.6756 75.8484L19.4253 74.8714L20.4022 71.1219L21.3791 74.8715L25.1288 75.8484L21.3792 76.8252L20.4022 80.5749Z" fill="white"/>
<path d="M85.2846 36.9531L84.3965 33.5443L80.9877 32.6563L84.3965 31.7681L85.2845 28.3594L86.1726 31.7682L89.5814 32.6562L86.1727 33.5442L85.2846 36.9531Z" fill="white"/>
<path d="M28.3622 22.3446L27.8293 20.2993L25.784 19.7665L27.8293 19.2336L28.3622 17.1884L28.895 19.2337L30.9403 19.7665L28.8951 20.2993L28.3622 22.3446Z" fill="white"/>
<path d="M91.3082 87.4286L90.6421 84.872L88.0855 84.206L90.6421 83.5398L91.3082 80.9833L91.9742 83.5399L94.5308 84.2059L91.9743 84.872L91.3082 87.4286Z" fill="white"/>
</svg>
