<svg width="109" height="110" viewBox="0 0 109 110" fill="none" xmlns="http://www.w3.org/2000/svg">
<path d="M54.5 109.141C84.1292 109.141 108.148 84.901 108.148 55C108.148 25.099 84.1292 0.859375 54.5 0.859375C24.8708 0.859375 0.851562 25.099 0.851562 55C0.851562 84.901 24.8708 109.141 54.5 109.141Z" fill="#34485C" stroke="#34485C" stroke-linecap="round" stroke-linejoin="round"/>
<path d="M54.5 82.5C69.5498 82.5 81.75 70.1878 81.75 55C81.75 39.8122 69.5498 27.5 54.5 27.5C39.4502 27.5 27.25 39.8122 27.25 55C27.25 70.1878 39.4502 82.5 54.5 82.5Z" fill="#E9EDED"/>
<path d="M54.5 27.5002C51.6274 27.5174 48.7747 27.9824 46.0476 28.8935C46.0263 29.0018 45.9844 29.1037 45.9844 29.219C45.9844 30.1712 46.744 30.9377 47.6875 30.9377H49.3906C50.3342 30.9377 51.0938 31.7043 51.0938 32.6565C51.0938 33.6087 50.3342 34.3752 49.3906 34.3752H47.6875H45.9844C45.0408 34.3752 44.2812 35.1418 44.2812 36.094C44.2812 37.0462 45.0408 37.8127 45.9844 37.8127H47.6875H52.7969C53.7404 37.8127 54.5 38.5793 54.5 39.5315C54.5 40.4837 53.7404 41.2502 52.7969 41.2502H42.8033C41.8597 41.2502 41.1002 42.0168 41.1002 42.969C41.1002 43.9212 41.8597 44.6877 42.8033 44.6877H47.9127C48.8562 44.6877 49.6158 45.4543 49.6158 46.4065C49.6158 47.3587 48.8562 48.1252 47.9127 48.1252H46.2095C45.266 48.1252 44.5064 48.8918 44.5064 49.844C44.5064 50.7962 45.266 51.5627 46.2095 51.5627H49.5626C50.5061 51.5627 51.2657 52.3293 51.2657 53.2815C51.2657 54.2337 50.5061 55.0002 49.5626 55.0002H44.7603H40.7686C39.825 55.0002 39.0654 55.7668 39.0654 56.719C39.0654 57.6712 39.825 58.4377 40.7686 58.4377H44.7603H47.9127C48.8562 58.4377 49.6158 59.2043 49.6158 60.1565C49.6158 61.1087 48.8562 61.8752 47.9127 61.8752H44.5064C43.5629 61.8752 42.8033 62.6418 42.8033 63.594C42.8033 64.5462 43.5629 65.3127 44.5064 65.3127H47.9127C48.8562 65.3127 49.6158 66.0793 49.6158 67.0315C49.6158 67.9837 48.8562 68.7502 47.9127 68.7502H42.5973C41.6538 68.7502 40.8942 69.5168 40.8942 70.469C40.8942 71.4212 41.6538 72.1877 42.5973 72.1877H47.6875H51.1592C52.1028 72.1877 52.8624 72.9543 52.8624 73.9065C52.8624 74.8587 52.1028 75.6252 51.1592 75.6252H47.6875C46.744 75.6252 45.9844 76.3918 45.9844 77.344C45.9844 78.2962 46.744 79.0627 47.6875 79.0627H54.5C55.4435 79.0627 56.2031 79.8293 56.2031 80.7815C56.2031 81.7337 55.4435 82.5002 54.5 82.5002C69.5498 82.5002 81.75 70.1882 81.75 55.0002C81.75 39.8123 69.5498 27.5002 54.5 27.5002H54.5Z" fill="white"/>
<path d="M62.683 28.7758C62.5494 28.8187 62.4134 28.8481 62.2805 28.8927C62.2592 29.001 62.2173 29.1029 62.2173 29.2183C62.2173 30.1704 62.9769 30.937 63.9204 30.937H65.6235C66.5671 30.937 67.3267 31.7036 67.3267 32.6558C67.3267 33.6079 66.5671 34.3745 65.6235 34.3745H63.9204H62.2173C61.2738 34.3745 60.5142 35.1411 60.5142 36.0933C60.5142 37.0454 61.2738 37.812 62.2173 37.812H63.9204H69.0298C69.9733 37.812 70.7329 38.5786 70.7329 39.5308C70.7329 40.483 69.9733 41.2495 69.0298 41.2495H59.0372C58.0937 41.2495 57.3341 42.0161 57.3341 42.9683C57.3341 43.9205 58.0937 44.687 59.0372 44.687H64.1466C65.0901 44.687 65.8497 45.4536 65.8497 46.4058C65.8497 47.358 65.0901 48.1245 64.1466 48.1245H62.4435C61.4999 48.1245 60.7403 48.8911 60.7403 49.8433C60.7403 50.7955 61.4999 51.562 62.4435 51.562H65.7965C66.7401 51.562 67.4996 52.3286 67.4996 53.2808C67.4996 54.233 66.7401 54.9995 65.7965 54.9995H60.9932H57.0015C56.0579 54.9995 55.2983 55.7661 55.2983 56.7183C55.2983 57.6705 56.0579 58.437 57.0015 58.437H60.9932H64.1466C65.0901 58.437 65.8497 59.2036 65.8497 60.1558C65.8497 61.108 65.0901 61.8745 64.1466 61.8745H60.7403C59.7968 61.8745 59.0372 62.6411 59.0372 63.5933C59.0372 64.5455 59.7968 65.312 60.7403 65.312H64.1466C65.0901 65.312 65.8497 66.0786 65.8497 67.0308C65.8497 67.983 65.0901 68.7495 64.1466 68.7495H58.831C57.8874 68.7495 57.1279 69.5161 57.1279 70.4683C57.1279 71.4205 57.8874 72.187 58.831 72.187H63.9204H67.3932C68.3367 72.187 69.0963 72.9536 69.0963 73.9058C69.0963 74.858 68.3367 75.6245 67.3932 75.6245H63.9204C62.9769 75.6245 62.2173 76.3911 62.2173 77.3433C62.2173 78.2955 62.9769 79.062 63.9204 79.062H67.6294C71.9003 76.6921 75.4632 73.2096 77.9468 68.9774C80.4304 64.7452 81.7438 59.9182 81.75 54.9995C81.7486 49.1501 79.8991 43.4535 76.4702 38.7375C73.0413 34.0214 68.2117 30.5317 62.683 28.7751L62.683 28.7758Z" fill="#C8D2D2"/>
<path d="M68.3449 16.9809L67.2889 12.8904L63.2355 11.8248L67.2889 10.7589L68.3448 6.6685L69.4009 10.759L73.4543 11.8246L69.401 12.8903L68.3449 16.9809Z" fill="white"/>
<path d="M25.5472 32.6444L24.8431 29.9174L22.1409 29.207L24.8432 28.4964L25.5471 25.7695L26.2512 28.4965L28.9534 29.2069L26.2512 29.9173L25.5472 32.6444Z" fill="white"/>
<path d="M20.2167 80.5749L19.2487 76.8253L15.5331 75.8484L19.2487 74.8714L20.2167 71.1219L21.1847 74.8715L24.9003 75.8484L21.1848 76.8252L20.2167 80.5749Z" fill="white"/>
<path d="M84.5092 36.9531L83.6292 33.5443L80.2514 32.6563L83.6292 31.7681L84.5092 28.3594L85.3892 31.7682L88.7671 32.6562L85.3893 33.5442L84.5092 36.9531Z" fill="white"/>
<path d="M28.1044 22.3446L27.5764 20.2993L25.5497 19.7665L27.5764 19.2336L28.1044 17.1884L28.6324 19.2337L30.6591 19.7665L28.6324 20.2993L28.1044 22.3446Z" fill="white"/>
<path d="M90.4781 87.4286L89.8181 84.872L87.2847 84.206L89.8181 83.5398L90.4781 80.9833L91.1381 83.5399L93.6714 84.2059L91.1381 84.872L90.4781 87.4286Z" fill="white"/>
</svg>
