<svg width="110" height="110" viewBox="0 0 110 110" fill="none" xmlns="http://www.w3.org/2000/svg">
<path d="M55 109.141C84.901 109.141 109.141 84.901 109.141 55C109.141 25.099 84.901 0.859375 55 0.859375C25.099 0.859375 0.859375 25.099 0.859375 55C0.859375 84.901 25.099 109.141 55 109.141Z" fill="#34485C" stroke="#34485C" stroke-linecap="round" stroke-linejoin="round"/>
<path d="M54.9736 87.6592C73.0092 87.6592 87.6299 73.0384 87.6299 55.0029C87.6299 36.9673 73.0092 22.3464 54.9736 22.3464C36.938 22.3464 22.3173 36.9673 22.3173 55.0029C22.3173 73.0384 36.938 87.6592 54.9736 87.6592Z" fill="#FCD062"/>
<path d="M31.4577 32.3945C29.9767 33.9356 28.6506 35.6184 27.4984 37.4186H49.9496C51.3412 37.4186 52.4616 36.2982 52.4616 34.9066C52.4616 33.5149 51.3412 32.3945 49.9496 32.3945H31.4577ZM57.4856 32.3945C56.094 32.3945 54.9736 33.5149 54.9736 34.9066C54.9736 36.2982 56.094 37.4186 57.4856 37.4186C58.8773 37.4186 59.9976 36.2982 59.9976 34.9066C59.9976 33.5149 58.8773 32.3945 57.4856 32.3945ZM67.5337 42.4426C66.1421 42.4426 65.0217 43.563 65.0217 44.9546C65.0217 46.3463 66.1421 47.4667 67.5337 47.4667H86.7075C86.3043 45.751 85.7628 44.0709 85.0884 42.4426H67.5337ZM22.7491 49.9787C22.6136 50.8117 22.5105 51.6497 22.44 52.4907H31.1094C31.8052 52.4907 32.3654 51.9305 32.3654 51.2347C32.3654 50.5389 31.8052 49.9787 31.1094 49.9787H22.7491ZM36.0598 49.9787C35.3511 49.9787 34.7842 50.5504 34.7842 51.2592C34.7842 51.968 35.3511 52.5398 36.0598 52.5398H36.1089C36.8177 52.5398 37.3895 51.968 37.3895 51.2592C37.3895 50.5504 36.8177 49.9787 36.1089 49.9787H36.0598V49.9787ZM22.3173 55.0027C22.325 56.6855 22.4628 58.3652 22.7295 60.0268H37.3895C38.7811 60.0268 39.9015 58.9064 39.9015 57.5148C39.9015 56.1231 38.7811 55.0027 37.3895 55.0027H22.3173ZM59.9044 57.5148C57.1211 57.5148 54.8804 59.7555 54.8804 62.5388C54.8804 65.3221 57.1211 67.5628 59.9044 67.5628H85.113C86.4391 64.3617 87.2473 60.9699 87.5072 57.5148H59.9044ZM68.7897 70.0749C68.0939 70.0749 67.5337 70.635 67.5337 71.3309C67.5337 72.0267 68.0939 72.5869 68.7897 72.5869H82.4488C82.9749 71.7717 83.4644 70.9336 83.9158 70.0749H68.7897ZM29.2499 75.0989C31.5898 78.0789 34.4304 80.629 37.6446 82.635H53.7176C54.4134 82.635 54.9736 82.0748 54.9736 81.379C54.9736 80.6831 54.4134 80.1229 53.7176 80.1229H46.1815C45.4857 80.1229 44.9255 79.5628 44.9255 78.8669C44.9255 78.1711 45.4857 77.6109 46.1815 77.6109H51.2056C51.9014 77.6109 52.4616 77.0508 52.4616 76.3549C52.4616 75.6591 51.9014 75.0989 51.2056 75.0989H29.2499ZM58.7416 80.1229C58.4085 80.1229 58.0891 80.2553 57.8535 80.4908C57.618 80.7264 57.4856 81.0458 57.4856 81.379C57.4856 81.7121 57.618 82.0315 57.8535 82.2671C58.0891 82.5026 58.4085 82.635 58.7416 82.635C59.0748 82.635 59.3942 82.5026 59.6298 82.2671C59.8653 82.0315 59.9976 81.7121 59.9976 81.379C59.9976 81.0458 59.8653 80.7264 59.6298 80.4908C59.3942 80.2553 59.0748 80.1229 58.7416 80.1229Z" fill="#F8B84E"/>
<path d="M89.6807 29.8779C86.8706 30.0437 83.0966 30.927 78.5974 32.4736C79.3036 33.2104 79.9749 33.9797 80.609 34.7793C83.7759 33.718 86.5307 34.2701 87.341 35.6128C88.1248 36.9733 87.5884 39.647 85.0099 42.2761C79.3651 47.7254 69.6173 54.7377 58.6828 61.2147C47.7032 67.7088 36.8265 72.8952 29.3284 75.2121C26.2991 76.0239 22.4405 75.6472 22.6565 73.1073C22.6565 71.7131 23.5939 70.0752 24.9422 67.7398C24.5461 66.8018 24.1941 65.8454 23.8873 64.8745C16.9243 71.2126 13.7705 76.1616 15.164 78.5631C16.5856 80.9497 22.4342 80.5738 31.34 77.5229C39.644 74.6821 49.9569 69.7353 60.1547 63.7019C70.3175 57.6823 79.5868 51.044 86.0648 45.1463C93.0617 38.7864 96.2327 33.8196 94.8323 31.4136C94.144 30.246 92.3922 29.7239 89.6807 29.8779Z" fill="#F8A44E"/>
<path d="M68.972 16.9809L67.9062 12.8904L63.8157 11.8248L67.9062 10.7589L68.9719 6.6685L70.0376 10.759L74.1282 11.8246L70.0377 12.8903L68.972 16.9809Z" fill="white"/>
<path d="M25.7816 32.6444L25.0711 29.9174L22.344 29.207L25.0711 28.4964L25.7815 25.7695L26.492 28.4965L29.219 29.2069L26.4921 29.9173L25.7816 32.6444Z" fill="white"/>
<path d="M29.2188 95.8205L28.2418 92.0709L24.4921 91.094L28.2419 90.117L29.2187 86.3675L30.1956 90.1171L33.9453 91.094L30.1957 92.0708L29.2188 95.8205Z" fill="white"/>
<path d="M101.406 50.7038L100.518 47.295L97.1091 46.407L100.518 45.5188L101.406 42.1101L102.294 45.5189L105.703 46.4069L102.294 47.295L101.406 50.7038Z" fill="white"/>
<path d="M28.3622 22.3446L27.8293 20.2993L25.784 19.7665L27.8293 19.2336L28.3622 17.1884L28.895 19.2337L30.9403 19.7665L28.8951 20.2993L28.3622 22.3446Z" fill="white"/>
<path d="M91.3082 87.4286L90.6421 84.872L88.0855 84.206L90.6421 83.5398L91.3082 80.9833L91.9742 83.5399L94.5308 84.2059L91.9743 84.872L91.3082 87.4286Z" fill="white"/>
</svg>
