<svg width="111" height="110" viewBox="0 0 111 110" fill="none" xmlns="http://www.w3.org/2000/svg">
<path d="M55.5 109.141C85.6729 109.141 110.133 84.901 110.133 55C110.133 25.099 85.6729 0.859375 55.5 0.859375C25.3271 0.859375 0.867188 25.099 0.867188 55C0.867188 84.901 25.3271 109.141 55.5 109.141Z" fill="#34485C" stroke="#34485C" stroke-linecap="round" stroke-linejoin="round"/>
<path d="M55.5 82.5001C70.8259 82.5001 83.25 70.1879 83.25 55.0001C83.25 39.8123 70.8259 27.5 55.5 27.5C40.1741 27.5 27.75 39.8123 27.75 55.0001C27.75 70.1879 40.1741 82.5001 55.5 82.5001Z" fill="#FFE90A"/>
<path d="M55.5001 27.5C49.664 27.5083 43.9791 29.3398 39.2538 32.734C34.5285 36.1282 31.0033 40.9124 29.1796 46.4062H41.6251C42.5859 46.4062 43.3594 47.1728 43.3594 48.125C43.3594 49.0772 42.5859 49.8438 41.6251 49.8438H38.1563C37.1955 49.8438 36.4219 50.6103 36.4219 51.5625C36.4219 52.5147 37.1955 53.2812 38.1563 53.2812H45.0938C46.0547 53.2812 46.8282 54.0478 46.8282 55C46.8282 55.9522 46.0547 56.7188 45.0938 56.7188H27.8381C28.0205 59.669 28.6816 62.5708 29.7961 65.3125H50.2969C51.2578 65.3125 52.0313 66.0791 52.0313 67.0312C52.0313 67.9834 51.2578 68.75 50.2969 68.75H46.8282C45.8673 68.75 45.0938 69.5166 45.0938 70.4688C45.0938 71.4209 45.8673 72.1875 46.8282 72.1875H53.7657C54.7265 72.1875 55.5001 72.9541 55.5001 73.9062C55.5001 74.8584 54.7265 75.625 53.7657 75.625H37.1977C38.7108 76.945 40.3646 78.0976 42.1298 79.0625H68.9178C71.4095 77.6954 73.674 75.9563 75.6317 73.9062H71.1094C70.1486 73.9062 69.3751 73.1397 69.3751 72.1875C69.3751 71.2353 70.1486 70.4688 71.1094 70.4688H78.4094C79.8646 68.346 81.0128 66.0319 81.8206 63.5938H62.4376C61.4767 63.5938 60.7032 62.8272 60.7032 61.875C60.7032 60.9228 61.4767 60.1562 62.4376 60.1562H65.9063C66.8672 60.1562 67.6407 59.3897 67.6407 58.4375C67.6407 57.4853 66.8672 56.7188 65.9063 56.7188H64.1719C63.2111 56.7188 62.4376 55.9522 62.4376 55C62.4376 54.0478 63.2111 53.2812 64.1719 53.2812H83.1586C83.077 52.1269 82.922 50.9788 82.6945 49.8438H55.5001C54.5392 49.8438 53.7657 49.0772 53.7657 48.125C53.7657 47.1728 54.5392 46.4062 55.5001 46.4062H81.7867C81.2024 44.6142 80.434 42.8864 79.4934 41.25H52.0313C51.0705 41.25 50.2969 40.4834 50.2969 39.5312C50.2969 38.5791 51.0705 37.8125 52.0313 37.8125H58.9688H59.836C59.6822 37.8125 59.5442 37.7621 59.4024 37.7252C60.1464 37.5316 60.7032 36.8935 60.7032 36.0938C60.7032 35.294 60.1464 34.6559 59.4024 34.4623C59.5442 34.4254 59.6822 34.375 59.836 34.375H58.9688H55.5001C54.5392 34.375 53.7657 33.6084 53.7657 32.6562C53.7657 31.7041 54.5392 30.9375 55.5001 30.9375H68.9178C64.8105 28.6855 60.194 27.5028 55.5001 27.5V27.5ZM48.5626 46.4062C49.0225 46.4062 49.4637 46.5873 49.7889 46.9097C50.1142 47.232 50.2969 47.6692 50.2969 48.125C50.2969 48.5808 50.1142 49.018 49.7889 49.3403C49.4637 49.6627 49.0225 49.8438 48.5626 49.8438C48.1026 49.8438 47.6614 49.6627 47.3362 49.3403C47.0109 49.018 46.8282 48.5808 46.8282 48.125C46.8282 47.6692 47.0109 47.232 47.3362 46.9097C47.6614 46.5873 48.1026 46.4062 48.5626 46.4062V46.4062ZM78.0469 56.7188C77.0861 56.7188 76.3126 57.4853 76.3126 58.4375C76.3126 59.3897 77.0861 60.1562 78.0469 60.1562H82.7386C82.9604 59.0209 83.1097 57.8728 83.1857 56.7188H78.0469ZM38.1563 68.75C37.6963 68.75 37.2552 68.9311 36.9299 69.2534C36.6047 69.5757 36.4219 70.0129 36.4219 70.4688C36.4219 70.9246 36.6047 71.3618 36.9299 71.6841C37.2552 72.0064 37.6963 72.1875 38.1563 72.1875C38.6163 72.1875 39.0574 72.0064 39.3827 71.6841C39.708 71.3618 39.8907 70.9246 39.8907 70.4688C39.8907 70.0129 39.708 69.5757 39.3827 69.2534C39.0574 68.9311 38.6163 68.75 38.1563 68.75Z" fill="#FFCB0A"/>
<path d="M69.5989 16.9809L68.5235 12.8904L64.3957 11.8248L68.5235 10.7589L69.5988 6.6685L70.6742 10.759L74.802 11.8246L70.6743 12.8903L69.5989 16.9809Z" fill="white"/>
<path d="M26.0159 32.6444L25.299 29.9174L22.5472 29.207L25.299 28.4964L26.0159 25.7695L26.7329 28.4965L29.4847 29.2069L26.7329 29.9173L26.0159 32.6444Z" fill="white"/>
<path d="M20.588 80.5742L19.6022 76.8245L15.8184 75.8477L19.6022 74.8707L20.5879 71.1211L21.5737 74.8708L25.3575 75.8476L21.5738 76.8245L20.588 80.5742Z" fill="white"/>
<path d="M86.0599 36.9531L85.1637 33.5443L81.7239 32.6563L85.1637 31.7681L86.0599 28.3594L86.956 31.7682L90.3958 32.6562L86.9561 33.5442L86.0599 36.9531Z" fill="white"/>
<path d="M28.62 22.3446L28.0823 20.2993L26.0184 19.7665L28.0823 19.2336L28.62 17.1884L29.1577 19.2337L31.2215 19.7665L29.1577 20.2993L28.62 22.3446Z" fill="white"/>
<path d="M92.1383 87.4286L91.4661 84.872L88.8863 84.206L91.4661 83.5398L92.1382 80.9833L92.8104 83.5399L95.3902 84.2059L92.8104 84.872L92.1383 87.4286Z" fill="white"/>
</svg>
