<svg width="110" height="110" viewBox="0 0 110 110" fill="none" xmlns="http://www.w3.org/2000/svg">
<path d="M55 109.141C84.901 109.141 109.141 84.901 109.141 55C109.141 25.099 84.901 0.859375 55 0.859375C25.099 0.859375 0.859375 25.099 0.859375 55C0.859375 84.901 25.099 109.141 55 109.141Z" fill="#34485C" stroke="#34485C" stroke-linecap="round" stroke-linejoin="round"/>
<path d="M68.972 16.9809L67.9062 12.8904L63.8157 11.8248L67.9062 10.7589L68.9719 6.6685L70.0376 10.759L74.1282 11.8246L70.0377 12.8903L68.972 16.9809Z" fill="white"/>
<path d="M25.7816 32.6444L25.0711 29.9174L22.344 29.207L25.0711 28.4964L25.7815 25.7695L26.492 28.4965L29.219 29.2069L26.4921 29.9173L25.7816 32.6444Z" fill="white"/>
<path d="M20.4025 80.5742L19.4256 76.8245L15.6759 75.8477L19.4256 74.8707L20.4024 71.1211L21.3793 74.8708L25.129 75.8476L21.3794 76.8245L20.4025 80.5742Z" fill="white"/>
<path d="M85.2846 36.9531L84.3965 33.5443L80.9877 32.6563L84.3965 31.7681L85.2845 28.3594L86.1726 31.7682L89.5814 32.6562L86.1727 33.5442L85.2846 36.9531Z" fill="white"/>
<path d="M28.3622 22.3446L27.8293 20.2993L25.784 19.7665L27.8293 19.2336L28.3622 17.1884L28.895 19.2337L30.9403 19.7665L28.8951 20.2993L28.3622 22.3446Z" fill="white"/>
<path d="M91.3082 87.4286L90.6421 84.872L88.0855 84.206L90.6421 83.5398L91.3082 80.9833L91.9742 83.5399L94.5308 84.2059L91.9743 84.872L91.3082 87.4286Z" fill="white"/>
<path d="M55.0012 82.5001C70.1891 82.5001 82.5012 70.1879 82.5012 55.0001C82.5012 39.8123 70.1891 27.5 55.0012 27.5C39.8134 27.5 27.5012 39.8123 27.5012 55.0001C27.5012 70.1879 39.8134 82.5001 55.0012 82.5001Z" fill="#60C5B8"/>
<path d="M55.0012 82.5001C70.1891 82.5001 82.5012 70.1879 82.5012 55.0001C82.5012 39.8123 70.1891 27.5 55.0012 27.5C39.8134 27.5 27.5012 39.8123 27.5012 55.0001C27.5012 70.1879 39.8134 82.5001 55.0012 82.5001Z" fill="#F05542"/>
<path d="M57.845 27.6514C57.1895 27.8934 56.7204 28.5112 56.7204 29.2526C56.7204 30.2048 57.487 30.9714 58.4392 30.9714H58.4392C59.3914 30.9714 60.158 31.7381 60.158 32.6901C60.158 33.6423 59.3914 34.4089 58.4392 34.4089H53.4741C52.5219 34.4089 51.7554 35.1754 51.7554 36.1276C51.7554 37.0798 52.5219 37.8464 53.4741 37.8464H60.3124H67.1033C68.0555 37.8464 68.822 38.6129 68.822 39.5651C68.822 40.5173 68.0555 41.2839 67.1033 41.2839H63.7161C62.7639 41.2839 61.9971 42.0504 61.9971 43.0026C61.9971 43.9548 62.7639 44.7214 63.7161 44.7214H71.1584H73.985C74.9372 44.7214 75.7037 45.4879 75.7037 46.4401C75.7037 47.3923 74.9372 48.1589 73.985 48.1589H55.0317C54.0796 48.1589 53.313 48.9254 53.313 49.8776C53.313 50.8298 54.0796 51.5964 55.0317 51.5964H62.6754H65.502C66.4542 51.5964 67.2208 52.3629 67.2208 53.3151C67.2208 54.2673 66.4542 55.0339 65.502 55.0339H64.5184H63.5818C62.6296 55.0339 61.8629 55.8004 61.8629 56.7526C61.8629 57.7048 62.6296 58.4714 63.5818 58.4714H68.8354C69.7877 58.4714 70.5542 59.2379 70.5542 60.1901C70.5542 61.1423 69.7877 61.9089 68.8354 61.9089H56.8109C55.8587 61.9089 55.0921 62.6754 55.0921 63.6276C55.0921 64.5798 55.8587 65.3464 56.8109 65.3464H69.3423H72.1689C73.1211 65.3464 73.8876 66.1129 73.8876 67.0651C73.8876 68.0173 73.1211 68.7839 72.1689 68.7839H69.3423H60.2283C59.2761 68.7839 58.5095 69.5504 58.5095 70.5026C58.5095 71.4548 59.2761 72.2214 60.2283 72.2214H65.2944C66.2466 72.2214 67.0131 72.9879 67.0131 73.9401C67.0131 74.8923 66.2466 75.6589 65.2944 75.6589H54.9847C54.0325 75.6589 53.266 76.4254 53.266 77.3776C53.266 78.3298 54.0325 79.0964 54.9847 79.0964H57.0794H60.0944C61.0466 79.0964 61.6417 79.8629 61.6417 80.8151C61.6417 81.1606 61.5193 81.4629 61.3429 81.7248C73.732 78.789 82.4858 67.7325 82.5017 55.0003C82.5 40.9146 71.8551 29.1077 57.845 27.6514V27.6514Z" fill="#E44A3C"/>
<path d="M57.845 27.6514C57.1894 27.8934 56.7204 28.5112 56.7204 29.2526C56.7204 30.2048 57.4869 30.9714 58.4391 30.9714H60.3291C61.2813 30.9714 62.0479 31.7381 62.0479 32.6901C62.0479 33.6423 61.2813 34.4089 60.3291 34.4089H55.193C54.2408 34.4089 53.4742 35.1754 53.4742 36.1276C53.4742 37.0798 54.2408 37.8464 55.193 37.8464H60.3123H68.8222C69.7744 37.8464 70.5409 38.6129 70.5409 39.5651C70.5409 40.5173 69.7744 41.2839 68.8222 41.2839H65.435C64.4828 41.2839 63.7162 42.0504 63.7162 43.0026C63.7162 43.9548 64.4828 44.7214 65.435 44.7214H72.8773H75.7039C76.656 44.7214 77.4226 45.4879 77.4226 46.4401C77.4226 47.3923 76.656 48.1589 75.7039 48.1589H56.7506C55.7984 48.1589 55.0319 48.9254 55.0319 49.8776C55.0319 50.8298 55.7984 51.5964 56.7506 51.5964H64.3943H67.2209C68.1731 51.5964 68.9397 52.3629 68.9397 53.3151C68.9397 54.2673 68.1731 55.0339 67.2209 55.0339H66.2373H65.3007C64.3485 55.0339 63.582 55.8004 63.582 56.7526C63.582 57.7048 64.3485 58.4714 65.3007 58.4714H70.5543C71.5065 58.4714 72.2731 59.2379 72.2731 60.1901C72.2731 61.1423 71.5065 61.9089 70.5543 61.9089H58.5298C57.5776 61.9089 56.811 62.6754 56.811 63.6276C56.811 64.5798 57.5776 65.3464 58.5298 65.3464H71.0612H73.8878C74.84 65.3464 75.6065 66.1129 75.6065 67.0651C75.6065 68.0173 74.84 68.7839 73.8878 68.7839H71.0612H61.9472C60.995 68.7839 60.2284 69.5504 60.2284 70.5026C60.2284 71.4548 60.995 72.2214 61.9472 72.2214H67.0132C67.9654 72.2214 68.732 72.9879 68.732 73.9401C68.732 74.8923 67.9654 75.6589 67.0132 75.6589H56.7036C55.7514 75.6589 54.9849 76.4254 54.9849 77.3776C54.9849 78.3298 55.7514 79.0964 56.7036 79.0964H58.7983H59.9229C60.8751 79.0964 61.6417 79.8629 61.6417 80.8151C61.6417 81.1606 61.5193 81.4629 61.3429 81.7248C73.732 78.789 82.4858 67.7325 82.5017 55.0003C82.4999 40.9146 71.8551 29.1077 57.845 27.6514V27.6514Z" fill="#E23F37"/>
<path d="M38.4431 34.407C32.7224 39.4445 29.1041 46.8098 29.1041 55.0321C29.1076 65.3332 34.8076 74.3544 43.2905 79.061H44.7517C45.6205 78.9734 46.3025 78.2686 46.3025 77.3758C46.3025 76.4237 45.536 75.6571 44.5838 75.6571H41.1757C40.2235 75.6571 39.4569 74.8905 39.4569 73.9383C39.4569 72.9862 40.2235 72.2196 41.1757 72.2196H46.2106C47.1628 72.2196 47.9293 71.453 47.9293 70.5008C47.9293 69.5487 47.1628 68.7821 46.2106 68.7821H38.8258H35.9993C35.0471 68.7821 34.2805 68.0155 34.2805 67.0633C34.2805 66.1112 35.0471 65.3446 35.9993 65.3446H39.427C40.3792 65.3446 41.1458 64.578 41.1458 63.6258C41.1458 62.6737 40.3792 61.9071 39.427 61.9071H37.7516C36.7994 61.9071 36.0328 61.1405 36.0328 60.1883C36.0328 59.2362 36.7994 58.4696 37.7516 58.4696H42.7467C43.6989 58.4696 44.4655 57.703 44.4655 56.7508C44.4655 55.7987 43.6989 55.0321 42.7467 55.0321H41.8101H32.7061C31.7539 55.0321 30.9874 54.2655 30.9874 53.3133C30.9874 52.3612 31.7539 51.5946 32.7061 51.5946H37.6408H41.9075C42.8597 51.5946 43.6262 50.828 43.6262 49.8758C43.6262 48.9237 42.8597 48.1571 41.9075 48.1571H37.6341C36.6819 48.1571 35.9153 47.3905 35.9153 46.4383C35.9153 45.4862 36.6819 44.7196 37.6341 44.7196H42.9548C43.907 44.7196 44.6736 43.953 44.6736 43.0008C44.6736 42.0487 43.907 41.2821 42.9548 41.2821H39.4468C38.4946 41.2821 37.7281 40.5154 37.7281 39.5632C37.7281 38.611 38.4946 37.8445 39.4468 37.8445H40.0343C40.9865 37.8445 41.7531 37.0779 41.7531 36.1257C41.7531 35.1735 40.9865 34.407 40.0343 34.407H38.4431Z" fill="#EA714A"/>
<path d="M36.8373 34.4082C31.1166 39.4457 27.4983 46.8109 27.4983 55.0332C27.5017 65.3344 33.2017 74.3555 41.6847 79.0621H43.1458C44.0146 78.9745 44.6967 78.2697 44.6967 77.377C44.6967 76.4248 43.9302 75.6582 42.978 75.6582H39.5698C38.6176 75.6582 37.8511 74.8916 37.8511 73.9395C37.8511 72.9873 38.6176 72.2207 39.5698 72.2207H44.6048C45.557 72.2207 46.3235 71.4541 46.3235 70.502C46.3235 69.5498 45.557 68.7832 44.6048 68.7832H37.22H34.3935C33.4413 68.7832 32.6747 68.0166 32.6747 67.0645C32.6747 66.1123 33.4413 65.3457 34.3935 65.3457H37.8212C38.7734 65.3457 39.54 64.5791 39.54 63.627C39.54 62.6748 38.7734 61.9082 37.8212 61.9082H36.1458C35.1935 61.9082 34.427 61.1416 34.427 60.1895C34.427 59.2373 35.1935 58.4707 36.1458 58.4707H41.1409C42.0931 58.4707 42.8596 57.7041 42.8596 56.752C42.8596 55.7998 42.0931 55.0332 41.1409 55.0332H40.2043H31.1003C30.1481 55.0332 29.3815 54.2666 29.3815 53.3145C29.3815 52.3623 30.1481 51.5957 31.1003 51.5957H36.035H40.3017C41.2538 51.5957 42.0204 50.8291 42.0204 49.877C42.0204 48.9248 41.2538 48.1582 40.3017 48.1582H36.0283C35.0761 48.1582 34.3095 47.3916 34.3095 46.4395C34.3095 45.4873 35.0761 44.7207 36.0283 44.7207H41.349C42.3012 44.7207 43.0677 43.9541 43.0677 43.002C43.0677 42.0498 42.3012 41.2832 41.349 41.2832H37.841C36.8888 41.2832 36.1223 40.5166 36.1223 39.5645C36.1223 38.6123 36.8888 37.8457 37.841 37.8457H38.4285C39.3807 37.8457 40.1472 37.0791 40.1472 36.127C40.1472 35.1748 39.3807 34.4082 38.4285 34.4082H36.8373Z" fill="#F17F53"/>
</svg>
